<?xml version="1.0" encoding="UTF-8"?>
<svg version="1.1" xmlns="http://www.w3.org/2000/svg" width="1024" height="1024">
<path d="M0 0 C4.75915534 3.86803777 9.50667677 7.97121217 10.6875 14.1875 C9.12652526 15.2938219 7.56364673 16.39745785 6 17.5 C5.12988281 18.11488281 4.25976562 18.72976563 3.36328125 19.36328125 C-3.71292827 24.1875 -3.71292827 24.1875 -7.3125 24.1875 C-8.453125 22.76171875 -8.453125 22.76171875 -9.5625 20.875 C-12.2612548 16.91896181 -14.60789668 15.49861896 -19.3125 14.1875 C-24.64236069 13.67036172 -29.47945763 13.6098774 -34.3125 16.1875 C-34.42047981 19.34590934 -34.23936799 22.15411384 -33.3125 25.1875 C-27.94740952 29.21131786 -21.20283877 30.38797735 -14.81884766 32.19897461 C-4.72343326 35.13178852 4.95293653 38.84737268 10.6875 48.1875 C13.63510983 55.43246691 14.03298643 64.0779494 11.5625 71.5625 C8.07091187 79.24076094 2.35669717 83.91121897 -5.3125 87.1875 C-11.01278409 89.19523553 -16.15419271 89.5393519 -22.125 89.5 C-23.01356689 89.49436035 -23.90213379 89.4887207 -24.81762695 89.48291016 C-36.0450118 89.27467108 -44.98761854 86.44466324 -53.13671875 78.3828125 C-57.14423178 73.86101814 -59.65946336 70.43284046 -59.3125 64.1875 C-57.09295349 62.81492523 -54.86414591 61.46490849 -52.625 60.125 C-51.99916016 59.73505859 -51.37332031 59.34511719 -50.72851562 58.94335938 C-47.86304974 57.24808375 -45.83590487 56.17887245 -42.46875 56.234375 C-39.51096244 57.54180284 -38.95192149 59.63529983 -37.5078125 62.3984375 C-35.21863669 65.82472024 -32.22159737 67.15490824 -28.3125 68.1875 C-21.51888949 68.90952624 -16.04666352 69.24790768 -10.3125 65.1875 C-8.99281822 64.08221558 -8.99281822 64.08221558 -9.0625 61.3125 C-9.01416486 58.25495581 -9.01416486 58.25495581 -10.59228516 56.58154297 C-12.42870839 55.09332601 -13.83856836 54.45649079 -16.0859375 53.7578125 C-16.82223389 53.52247803 -17.55853027 53.28714355 -18.31713867 53.04467773 C-19.09935791 52.80305908 -19.88157715 52.56144043 -20.6875 52.3125 C-22.31705947 51.78717826 -23.94596313 51.25981801 -25.57421875 50.73046875 C-26.37778809 50.47056152 -27.18135742 50.2106543 -28.00927734 49.94287109 C-48.84531511 43.10942814 -48.84531511 43.10942814 -54.3125 33.1875 C-57.32452704 26.71164187 -57.44216418 18.76399254 -55.1875 12 C-50.88632338 2.39600289 -45.04150085 -1.89650941 -35.3125 -5.8125 C-23.70291644 -9.73821485 -9.76018844 -6.85602691 0 0 Z " fill="#03416C" transform="translate(584.3125,485.8125)"/>
<path d="M0 0 C2.5439636 2.11044172 4.88075088 4.26584841 7.0859375 6.73046875 C8.2615625 8.02984375 8.2615625 8.02984375 9.4609375 9.35546875 C9.9971875 10.13921875 10.5334375 10.92296875 11.0859375 11.73046875 C9.65528422 16.02242858 6.47561423 17.323048 2.7734375 19.54296875 C1.75733398 20.19168945 1.75733398 20.19168945 0.72070312 20.85351562 C-1.1366031 21.97734021 -2.88010198 22.97113895 -4.9140625 23.73046875 C-8.06866566 22.94571574 -8.72858088 21.98219381 -10.6640625 19.35546875 C-15.09876709 14.18164672 -21.23520146 12.0981592 -27.90234375 11.57421875 C-35.68917647 11.25144848 -42.0496027 12.94291143 -48.2265625 17.79296875 C-54.440456 23.74639965 -56.12061644 30.28472428 -56.4140625 38.73046875 C-56.12061644 47.17621322 -54.440456 53.71453785 -48.2265625 59.66796875 C-40.91555364 65.38728196 -33.04254951 66.71623732 -23.9140625 65.73046875 C-16.58787049 64.10102259 -11.0871046 59.9900319 -6.9140625 53.73046875 C-2.45223814 55.0412124 1.08212507 56.80112886 4.9609375 59.35546875 C6.41113281 60.30292969 6.41113281 60.30292969 7.890625 61.26953125 C8.61507812 61.75164062 9.33953125 62.23375 10.0859375 62.73046875 C9.311002 69.41875823 4.81499545 73.28629381 0.0859375 77.73046875 C-11.7345819 86.70807842 -24.50845368 88.04119367 -38.9140625 86.73046875 C-47.93569769 85.15823357 -54.90280469 81.53802389 -61.9140625 75.73046875 C-62.86732422 74.98023438 -62.86732422 74.98023438 -63.83984375 74.21484375 C-72.63281998 66.4941817 -77.38060101 53.92009056 -78.125 42.4921875 C-78.53995723 27.88888489 -74.92558247 15.061533 -65.0390625 4.04296875 C-47.510785 -12.55804492 -19.25192312 -14.61027823 0 0 Z " fill="#03416C" transform="translate(310.9140625,488.26953125)"/>
<path d="M0 0 C0.66 0.66 1.32 1.32 2 2 C2.33 0.68 2.66 -0.64 3 -2 C9.6 -2 16.2 -2 23 -2 C23.02255338 6.71844341 23.04091645 15.43686759 23.05181217 24.15533352 C23.05704041 28.20325742 23.06413699 32.25116041 23.07543945 36.29907227 C23.08627043 40.20235971 23.09227728 44.10562699 23.09487724 48.0089283 C23.09673111 49.50133647 23.100351 50.99374348 23.10573006 52.48614311 C23.11294331 54.56948139 23.11399083 56.65273531 23.11352539 58.73608398 C23.115746 59.92411118 23.11796661 61.11213837 23.12025452 62.33616638 C23 65 23 65 22 66 C20.65732587 66.08631874 19.31025678 66.10706473 17.96484375 66.09765625 C17.15595703 66.09443359 16.34707031 66.09121094 15.51367188 66.08789062 C14.66353516 66.07951172 13.81339844 66.07113281 12.9375 66.0625 C12.08349609 66.05798828 11.22949219 66.05347656 10.34960938 66.04882812 C8.23304337 66.03700373 6.11651315 66.01906769 4 66 C3.34 64.68 2.68 63.36 2 62 C0.9275 62.639375 -0.145 63.27875 -1.25 63.9375 C-8.61479567 68.32805126 -18.17169019 68.0148335 -26.4453125 66.57421875 C-35.23931697 63.67255331 -41.3809776 57.32623368 -45.80859375 49.4296875 C-50.20630221 40.46124599 -51.53870165 30.82328632 -48.75 21.1015625 C-44.73942777 9.86360489 -39.11731644 3.07469223 -28.33203125 -2.0546875 C-18.90694428 -5.87524202 -8.84742708 -4.82907374 0 0 Z M-26.375 20.5625 C-30.0196688 26.0295032 -29.55596539 31.57116081 -29 38 C-26.7638768 42.9022701 -23.87010775 45.69776725 -19 48 C-13.85889362 48.76107013 -8.81589212 48.79474102 -4.0625 46.5 C0.33290107 42.91191749 2.50353248 39.33423071 3.34375 33.69140625 C3.54365251 28.75214829 2.83893941 25.1637778 0 21 C-4.19782012 16.66107669 -7.41372476 15.19519058 -13.3125 14.75 C-18.8183054 15.12327494 -22.59211276 16.48096377 -26.375 20.5625 Z " fill="#04416D" transform="translate(373,508)"/>
<path d="M0 0 C8.07489755 5.90651485 12.78109111 12.46682062 14.49609375 22.421875 C14.81412257 27.10783096 14.98013298 31.74492453 14.49609375 36.421875 C12.49609375 38.421875 12.49609375 38.421875 10.47128296 38.66238403 C9.64077423 38.65794281 8.8102655 38.65350159 7.95458984 38.64892578 C7.01376556 38.64877472 6.07294128 38.64862366 5.10360718 38.64846802 C4.08586212 38.63814545 3.06811707 38.62782288 2.01953125 38.6171875 C0.97914703 38.6143576 -0.06123718 38.61152771 -1.13314819 38.60861206 C-4.46518319 38.59739204 -7.79695211 38.57228415 -11.12890625 38.546875 C-13.38411071 38.53684756 -15.63931937 38.5277213 -17.89453125 38.51953125 C-23.43108079 38.49744678 -28.96747452 38.46395139 -34.50390625 38.421875 C-33.72998535 39.38391846 -32.95606445 40.34596191 -32.15869141 41.3371582 C-31.7233609 41.87830765 -31.2880304 42.41945709 -30.83950806 42.977005 C-28.27464812 45.75170113 -25.4949045 46.309328 -21.85546875 46.72265625 C-15.18722816 46.75131631 -10.20610756 46.21075793 -4.73046875 42.0859375 C-2.50390625 41.421875 -2.50390625 41.421875 0.6953125 42.90625 C1.86858273 43.64502491 3.0311447 44.40102314 4.18359375 45.171875 C4.77720703 45.54570313 5.37082031 45.91953125 5.98242188 46.3046875 C10.33805804 49.10580357 10.33805804 49.10580357 11.49609375 51.421875 C5.76263138 58.95790319 -0.19557155 63.25981576 -9.50390625 65.421875 C-12.4682545 65.71043379 -15.40192832 65.75634069 -18.37890625 65.734375 C-19.17611084 65.72873535 -19.97331543 65.7230957 -20.79467773 65.71728516 C-31.42752316 65.49742286 -39.9939582 62.09199596 -47.51953125 54.34765625 C-55.39692566 44.8649945 -56.48338481 35.37368335 -55.72851562 23.39697266 C-55.22810561 18.9966281 -53.62320669 15.26262887 -51.50390625 11.421875 C-50.96765625 10.390625 -50.43140625 9.359375 -49.87890625 8.296875 C-49.19828125 7.36875 -49.19828125 7.36875 -48.50390625 6.421875 C-47.84390625 6.421875 -47.18390625 6.421875 -46.50390625 6.421875 C-46.50390625 5.761875 -46.50390625 5.101875 -46.50390625 4.421875 C-45.84390625 4.421875 -45.18390625 4.421875 -44.50390625 4.421875 C-44.50390625 3.761875 -44.50390625 3.101875 -44.50390625 2.421875 C-31.1168771 -7.49045242 -14.31237772 -9.02059376 0 0 Z M-32.87890625 17.984375 C-34.68880632 20.21097336 -34.68880632 20.21097336 -34.50390625 22.421875 C-25.26390625 22.421875 -16.02390625 22.421875 -6.50390625 22.421875 C-7.56830746 18.16427017 -8.28742939 17.17885517 -11.50390625 14.421875 C-18.87326883 10.08059432 -27.17041996 11.82521874 -32.87890625 17.984375 Z " fill="#03416C" transform="translate(502.50390625,509.578125)"/>
<path d="M0 0 C4.65414261 3.91008718 7.84089786 7.6990853 10.39453125 13.19921875 C10.97203125 14.33359375 11.54953125 15.46796875 12.14453125 16.63671875 C14.47821426 23.0289809 13.80446385 30.50628078 13.39453125 37.19921875 C11.80977073 38.78397927 10.16561124 38.36349192 7.96655273 38.40454102 C7.02565292 38.42448624 6.08475311 38.44443146 5.11534119 38.46498108 C4.09243484 38.48169357 3.0695285 38.49840607 2.015625 38.515625 C0.97382584 38.5364061 -0.06797333 38.55718719 -1.14134216 38.57859802 C-4.48348122 38.64420932 -7.8257016 38.70303206 -11.16796875 38.76171875 C-13.42774293 38.80489297 -15.68750876 38.84850689 -17.94726562 38.89257812 C-23.49991296 38.99990242 -29.05264196 39.10164687 -34.60546875 39.19921875 C-31.80293325 42.86225315 -30.13470557 44.96888875 -25.60546875 46.19921875 C-18.08113315 47.08081665 -12.80796035 46.55415966 -6.60546875 42.19921875 C-5.61546875 41.86921875 -4.62546875 41.53921875 -3.60546875 41.19921875 C-1.27566438 42.38759504 0.83292343 43.60092703 3.01953125 45.01171875 C3.61765625 45.38103516 4.21578125 45.75035156 4.83203125 46.13085938 C9.25322887 48.91661398 9.25322887 48.91661398 10.39453125 51.19921875 C4.85301172 58.59402792 -1.48067053 63.20966488 -10.60546875 65.19921875 C-23.99236741 66.00853572 -34.88159777 65.36524398 -45.8515625 56.859375 C-53.01176152 50.08190376 -56.74716542 41.59266345 -57.15356445 31.79223633 C-57.23110271 19.85265938 -54.34922764 12.14577517 -45.97265625 3.3984375 C-33.5711131 -8.12312816 -14.13328722 -9.76828397 0 0 Z M-33.98046875 17.76171875 C-35.79036882 19.98831711 -35.79036882 19.98831711 -35.60546875 22.19921875 C-26.03546875 22.19921875 -16.46546875 22.19921875 -6.60546875 22.19921875 C-9.48757587 16.13093178 -9.48757587 16.13093178 -14.60546875 13.19921875 C-15.26546875 12.86921875 -15.92546875 12.53921875 -16.60546875 12.19921875 C-23.72839371 11.45843455 -28.92929964 12.31177313 -33.98046875 17.76171875 Z " fill="#04416D" transform="translate(918.60546875,509.80078125)"/>
<path d="M0 0 C7.64428079 5.48754714 13.00650289 12.9525718 15.15234375 22.1796875 C16.54486609 34.48030153 14.77180295 44.54324581 6.99609375 54.44140625 C0.94651891 61.0188921 -7.11551141 65.18773774 -16.046875 65.6953125 C-28.64561905 65.93400622 -37.41797837 64.17776337 -47.03515625 55.3671875 C-54.71617627 47.46476336 -56.81464337 38.31083649 -56.68359375 27.6171875 C-56.04600795 18.171472 -52.22269653 10.0223185 -45.36328125 3.48046875 C-32.19937485 -7.34570944 -14.67672151 -8.94978594 0 0 Z M-34.28515625 20.6171875 C-36.31110514 25.52211639 -37.31213604 30.58629593 -35.8125 35.77734375 C-33.50412383 40.77726785 -30.45224879 44.00239123 -25.47265625 46.4921875 C-20.54744475 47.03254344 -16.60323907 47.03654219 -12.09765625 44.8671875 C-7.14227413 40.38374653 -4.83183468 36.36014272 -4.375 29.73046875 C-4.5968569 24.64550857 -6.73158541 21.32363284 -10.03515625 17.6171875 C-14.36908019 13.83889483 -17.87925376 14.15723574 -23.484375 14.2109375 C-28.54368448 14.6871078 -31.08816247 16.86898789 -34.28515625 20.6171875 Z " fill="#04416D" transform="translate(657.47265625,509.5078125)"/>
<path d="M0 0 C1.27423828 -0.00193359 1.27423828 -0.00193359 2.57421875 -0.00390625 C3.91419922 0.00189453 3.91419922 0.00189453 5.28125 0.0078125 C6.17457031 0.00394531 7.06789063 0.00007813 7.98828125 -0.00390625 C8.83777344 -0.00261719 9.68726563 -0.00132812 10.5625 0 C11.34689453 0.00112793 12.13128906 0.00225586 12.93945312 0.00341797 C14.78125 0.1328125 14.78125 0.1328125 15.78125 1.1328125 C15.90461311 4.17525998 15.96743606 7.19847791 15.9921875 10.2421875 C16.02026482 12.13021687 16.04892934 14.01823759 16.078125 15.90625 C16.11934725 18.89290039 16.15621976 21.87939068 16.18261719 24.86621094 C16.21025869 27.74187992 16.25614209 30.61680553 16.3046875 33.4921875 C16.30794037 34.38194275 16.31119324 35.271698 16.31454468 36.18841553 C16.40912368 40.96842098 16.64951913 44.26739446 19.78125 48.1328125 C23.45994692 50.44513628 26.69126376 50.33968177 30.84765625 49.6796875 C33.82703862 48.8370339 35.64988659 47.32876268 37.78125 45.1328125 C38.67692202 42.44579643 38.92250963 40.80908981 38.97070312 38.04443359 C38.99577942 36.81833878 38.99577942 36.81833878 39.0213623 35.56747437 C39.03493774 34.68927032 39.04851318 33.81106628 39.0625 32.90625 C39.08090942 32.00282867 39.09931885 31.09940735 39.11828613 30.16860962 C39.19703766 26.29937669 39.26490292 22.42997118 39.33349609 18.56054688 C39.38507841 15.73818974 39.4423679 12.91598901 39.5 10.09375 C39.51357544 9.2114975 39.52715088 8.329245 39.5411377 7.42025757 C39.66840316 1.24565934 39.66840316 1.24565934 40.78125 0.1328125 C42.19695123 0.04629639 43.616845 0.02576346 45.03515625 0.03515625 C46.31616211 0.03999023 46.31616211 0.03999023 47.62304688 0.04492188 C48.52087891 0.05330078 49.41871094 0.06167969 50.34375 0.0703125 C51.24544922 0.07482422 52.14714844 0.07933594 53.07617188 0.08398438 C55.31126314 0.09581025 57.54622437 0.1122903 59.78125 0.1328125 C59.80437611 8.85125253 59.82216646 17.56968206 59.83306217 26.28814602 C59.83829041 30.33606992 59.84538699 34.38397291 59.85668945 38.43188477 C59.86752043 42.33517221 59.87352728 46.23843949 59.87612724 50.1417408 C59.87798111 51.63414897 59.881601 53.12655598 59.88698006 54.61895561 C59.89419331 56.70229389 59.89524083 58.78554781 59.89477539 60.86889648 C59.896996 62.05692368 59.89921661 63.24495087 59.90150452 64.46897888 C59.78125 67.1328125 59.78125 67.1328125 58.78125 68.1328125 C57.43857587 68.21913124 56.09150678 68.23987723 54.74609375 68.23046875 C53.93720703 68.22724609 53.12832031 68.22402344 52.29492188 68.22070312 C51.44478516 68.21232422 50.59464844 68.20394531 49.71875 68.1953125 C48.86474609 68.19080078 48.01074219 68.18628906 47.13085938 68.18164062 C45.01429337 68.16981623 42.89776315 68.15188019 40.78125 68.1328125 C40.45125 66.8128125 40.12125 65.4928125 39.78125 64.1328125 C39.23339844 64.49375 38.68554688 64.8546875 38.12109375 65.2265625 C30.49669013 69.68962804 23.48507524 70.28520271 14.78125 69.1328125 C7.81856288 67.05590057 2.72426834 63.21707258 -1.21875 57.1328125 C-5.21345987 49.41888999 -5.37109873 41.78444457 -5.3515625 33.296875 C-5.35251923 32.37691742 -5.35347595 31.45695984 -5.35446167 30.50912476 C-5.35513878 28.57785981 -5.35331738 26.64659253 -5.34912109 24.71533203 C-5.34372922 21.74636821 -5.34910075 18.77755314 -5.35546875 15.80859375 C-5.35480861 13.92968716 -5.35352877 12.05078067 -5.3515625 10.171875 C-5.35358673 9.28029694 -5.35561096 8.38871887 -5.35769653 7.47012329 C-5.32894707 0.00766282 -5.32894707 0.00766282 0 0 Z " fill="#04416D" transform="translate(683.21875,505.8671875)"/>
<path d="M0 0 C3.47230766 2.90501861 6.03339119 5.56678238 8.0625 9.625 C6.72742314 13.63023058 4.18912223 14.78389419 0.75 16.875 C0.16798828 17.25140625 -0.41402344 17.6278125 -1.01367188 18.015625 C-5.29937293 20.65596631 -5.29937293 20.65596631 -8.19140625 20.515625 C-10.95762787 19.10466632 -12.81652563 16.8576046 -14.9375 14.625 C-17.63988298 13.27380851 -19.79764446 13.49262872 -22.8125 13.5 C-23.86179687 13.49742187 -24.91109375 13.49484375 -25.9921875 13.4921875 C-28.49426685 13.60501336 -30.55506923 13.89991238 -32.9375 14.625 C-32.9375 15.285 -32.9375 15.945 -32.9375 16.625 C-33.5975 16.625 -34.2575 16.625 -34.9375 16.625 C-37.41171603 23.74169664 -38.87837249 29.46022731 -35.9375 36.625 C-33.50357596 40.56963551 -31.45654512 42.52034453 -26.9375 43.625 C-22.17964035 44.19770533 -18.9214357 44.14481509 -14.625 41.875 C-12.25506747 39.89087044 -10.10411769 37.82395527 -7.9375 35.625 C-5.64333427 36.74512792 -3.35220906 37.87082841 -1.0625 39 C-0.08603516 39.47566406 -0.08603516 39.47566406 0.91015625 39.9609375 C3.64427041 41.31390121 5.89022518 42.45272518 8.0625 44.625 C7.78485921 48.51197104 5.61186916 51.78847662 3.0625 54.625 C-7.42530704 63.15150454 -17.77571077 64.91887081 -30.9375 63.625 C-40.5679496 61.85902514 -47.86348923 56.18133863 -53.6015625 48.35546875 C-58.61727283 39.98128571 -60.51000314 29.91011221 -58.4375 20.30859375 C-55.17112329 9.63719256 -49.95111414 2.19835574 -40.4375 -3.625 C-27.03998174 -10.32375913 -12.04853514 -8.84998265 0 0 Z " fill="#04406C" transform="translate(852.9375,511.375)"/>
<path d="M0 0 C0 6.93 0 13.86 0 21 C-3.0628125 21.3403125 -3.0628125 21.3403125 -6.1875 21.6875 C-10.47760374 22.34966819 -12.63328818 22.73395417 -16.1875 25.3125 C-19.68380834 30.49668133 -20.30847235 34.94305748 -20.37890625 41.109375 C-20.40439796 42.26049774 -20.40439796 42.26049774 -20.43040466 43.43487549 C-20.48331452 45.87316796 -20.52375839 48.31144451 -20.5625 50.75 C-20.60641061 53.20275559 -20.65302937 55.6553793 -20.70530701 58.10797119 C-20.73730441 59.63142948 -20.76418197 61.15500529 -20.78553772 62.6786499 C-20.88820356 67.88820356 -20.88820356 67.88820356 -22 69 C-23.33043625 69.0983721 -24.66593344 69.13078592 -26 69.1328125 C-26.804375 69.13410156 -27.60875 69.13539063 -28.4375 69.13671875 C-29.283125 69.13285156 -30.12875 69.12898437 -31 69.125 C-31.845625 69.12886719 -32.69125 69.13273438 -33.5625 69.13671875 C-34.366875 69.13542969 -35.17125 69.13414062 -36 69.1328125 C-36.7425 69.13168457 -37.485 69.13055664 -38.25 69.12939453 C-40 69 -40 69 -41 68 C-41.09939626 65.94987154 -41.12799553 63.89628608 -41.12939453 61.84375 C-41.13254669 60.52568359 -41.13569885 59.20761719 -41.13894653 57.84960938 C-41.13715675 56.39973925 -41.1351058 54.94986942 -41.1328125 53.5 C-41.13348557 52.02408838 -41.13445563 50.54817687 -41.13571167 49.07226562 C-41.13718848 45.97524971 -41.13503464 42.87826258 -41.13037109 39.78125 C-41.1246738 35.80291451 -41.1279529 31.82464648 -41.13394356 27.84631348 C-41.13754963 24.79752083 -41.13641037 21.74874429 -41.13381577 18.69995117 C-41.13314662 17.23266594 -41.13397447 15.76537926 -41.13629532 14.2980957 C-41.13882257 12.25081407 -41.1342906 10.20352734 -41.12939453 8.15625 C-41.12859894 6.98900391 -41.12780334 5.82175781 -41.12698364 4.61914062 C-41 2 -41 2 -40 1 C-38.65732587 0.91368126 -37.31025678 0.89293527 -35.96484375 0.90234375 C-35.15595703 0.90556641 -34.34707031 0.90878906 -33.51367188 0.91210938 C-32.66353516 0.92048828 -31.81339844 0.92886719 -30.9375 0.9375 C-30.08349609 0.94201172 -29.22949219 0.94652344 -28.34960938 0.95117188 C-26.23304337 0.96299627 -24.11651315 0.98093231 -22 1 C-21.34 2.98 -20.68 4.96 -20 7 C-19.56429687 6.59007812 -19.12859375 6.18015625 -18.6796875 5.7578125 C-12.26149964 -0.04911937 -8.95006465 -1.27858066 0 0 Z " fill="#04416C" transform="translate(794,505)"/>
<path d="M0 0 C1 1 1 1 1.11352539 3.04125977 C1.10828857 3.91580811 1.10305176 4.79035645 1.09765625 5.69140625 C1.09443359 6.63564453 1.09121094 7.57988281 1.08789062 8.55273438 C1.07532227 10.04256836 1.07532227 10.04256836 1.0625 11.5625 C1.05798828 12.55958984 1.05347656 13.55667969 1.04882812 14.58398438 C1.03700007 17.05604849 1.02051849 19.52799518 1 22 C-0.02299194 22.08761597 -0.02299194 22.08761597 -1.06665039 22.17700195 C-1.96375732 22.25909912 -2.86086426 22.34119629 -3.78515625 22.42578125 C-4.67340088 22.50481689 -5.56164551 22.58385254 -6.47680664 22.6652832 C-9.88906131 23.11793934 -12.18819321 24.01116105 -15 26 C-18.12900799 30.93809751 -18.45282748 34.9879901 -18.4765625 40.64453125 C-18.49993179 41.86011971 -18.49993179 41.86011971 -18.52377319 43.1002655 C-18.57105074 45.67100161 -18.5989935 48.24146835 -18.625 50.8125 C-18.66147742 53.40119716 -18.70201444 55.98974101 -18.74765015 58.57829285 C-18.77490963 60.18522636 -18.79624665 61.79227304 -18.81118774 63.39936829 C-18.88929166 68.88929166 -18.88929166 68.88929166 -20 70 C-21.33043625 70.0983721 -22.66593344 70.13078592 -24 70.1328125 C-24.804375 70.13410156 -25.60875 70.13539063 -26.4375 70.13671875 C-27.283125 70.13285156 -28.12875 70.12898437 -29 70.125 C-29.845625 70.12886719 -30.69125 70.13273438 -31.5625 70.13671875 C-32.366875 70.13542969 -33.17125 70.13414062 -34 70.1328125 C-34.7425 70.13168457 -35.485 70.13055664 -36.25 70.12939453 C-38 70 -38 70 -39 69 C-39.1290015 66.98658606 -39.18853305 64.96869402 -39.22119141 62.95141602 C-39.24436432 61.65659805 -39.26753723 60.36178009 -39.29141235 59.02772522 C-39.31172006 57.60312255 -39.33176371 56.17851609 -39.3515625 54.75390625 C-39.37466703 53.30280615 -39.39805726 51.85171057 -39.42172241 50.40061951 C-39.47024205 47.35492805 -39.5151628 44.30920959 -39.55761719 41.26342773 C-39.61240645 37.35458482 -39.6762391 33.44595162 -39.74279213 29.53729343 C-39.7928179 26.53913008 -39.83796427 23.54090849 -39.88163376 20.54264641 C-39.90323598 19.10128344 -39.92638878 17.65994287 -39.9510994 16.21862984 C-39.98490363 14.20515672 -40.01142882 12.19156534 -40.03759766 10.17797852 C-40.05456696 9.03071793 -40.07153625 7.88345734 -40.08901978 6.70143127 C-40 4 -40 4 -39 2 C-32.73 2 -26.46 2 -20 2 C-19.34 3.65 -18.68 5.3 -18 7 C-17.154375 6.21625 -16.30875 5.4325 -15.4375 4.625 C-10.9471444 0.88656715 -5.82805146 -0.51423983 0 0 Z " fill="#04416D" transform="translate(445,504)"/>
<path d="M0 0 C5.53593803 3.8136462 5.53593803 3.8136462 6.37890625 7.78515625 C7.13763126 17.19657504 2.21737827 24.92111547 -2 33 C-2.55816406 34.10988281 -3.11632812 35.21976563 -3.69140625 36.36328125 C-6.69205025 42.1530356 -9.49569663 47.06341129 -15.375 50.3125 C-21.61121844 51.94579531 -26.41139475 51.14994114 -32 48 C-37.14574562 43.1086508 -39.04012515 39.44486502 -39.328125 32.23046875 C-38.43441484 26.15536755 -34.57955322 22.15228691 -30.3125 18.0625 C-29.77794189 17.54034912 -29.24338379 17.01819824 -28.69262695 16.48022461 C-9.23217652 -2.4003659 -9.23217652 -2.4003659 0 0 Z " fill="#D4213A" transform="translate(148,523)"/>
<path d="M0 0 C1.93497256 1.58798381 3.58125077 3.27060005 5.265625 5.12109375 C7.01349556 7.01462019 8.84622179 8.64902864 10.8125 10.3125 C25.58239708 23.08411689 25.58239708 23.08411689 26.23828125 29.234375 C26.42182356 35.45549322 25.79743001 39.00338157 22 44 C16.52344299 48.24712584 11.90813988 49.70920067 5 49 C-4.41745506 45.67619233 -7.87852779 36.89550048 -11.93139648 28.45117188 C-12.81123755 26.62761656 -13.7162053 24.81806158 -14.62304688 23.0078125 C-17.64948284 16.75433109 -19.94933437 11.98379894 -19 5 C-18 2.5 -18 2.5 -17 1 C-16.34 1 -15.68 1 -15 1 C-15 0.34 -15 -0.32 -15 -1 C-9.3594167 -3.74797648 -5.34814306 -2.82419484 0 0 Z " fill="#C31A4F" transform="translate(177,525)"/>
<path d="M0 0 C3.82362952 2.15595613 5.8470156 4.34067307 7.75 8.375 C9.27882191 16.38700785 8.08431485 23.47416982 6.625 31.4375 C6.42390625 32.66533203 6.2228125 33.89316406 6.015625 35.15820312 C4.78746147 42.02778047 3.41038627 47.99920355 -1.25 53.375 C-4.35317276 55.41656102 -6.02318651 55.37905024 -9.75 55.3125 C-14.04317189 54.16254324 -15.41933271 52.76905253 -18.25 49.375 C-19.5078125 45.984375 -19.5078125 45.984375 -20.375 42.125 C-20.5311377 41.4326123 -20.68727539 40.74022461 -20.84814453 40.02685547 C-21.33651331 37.81354631 -21.79346505 35.59506977 -22.25 33.375 C-22.49459961 32.26463379 -22.49459961 32.26463379 -22.74414062 31.13183594 C-26.69977096 13.11086666 -26.69977096 13.11086666 -23.25 6.375 C-16.9499976 -0.96598992 -9.19824951 -4.14351053 0 0 Z " fill="#E0252C" transform="translate(164.25,450.625)"/>
<path d="M0 0 C1.15371094 0.61294922 2.30742187 1.22589844 3.49609375 1.85742188 C17.65169436 9.55565219 17.65169436 9.55565219 19.54150391 15.359375 C20.2517445 18.86241122 19.91427548 21.18239998 18.875 24.625 C16.39614699 27.95595873 13.80242551 29.26088643 9.875 30.3125 C7.0217817 30.45333463 4.32010317 30.10710656 1.5 29.6875 C0.7255957 29.5848584 -0.04880859 29.4822168 -0.84667969 29.37646484 C-3.27659705 29.04430725 -5.70026902 28.68044392 -8.125 28.3125 C-8.91487305 28.20099609 -9.70474609 28.08949219 -10.51855469 27.97460938 C-12.80764722 27.64909185 -15.0913176 27.29887724 -17.375 26.9375 C-18.06513184 26.83614746 -18.75526367 26.73479492 -19.46630859 26.63037109 C-25.0660108 25.66841684 -29.17767482 23.52842175 -32.9375 19.25 C-35.79941079 14.58056661 -35.69702939 9.61384281 -35.125 4.3125 C-33.36500588 -1.0177679 -29.99961888 -4.04708144 -25.125 -6.6875 C-16.47352161 -10.43647397 -7.29012278 -4.02227809 0 0 Z " fill="#E32626" transform="translate(127.125,490.6875)"/>
<path d="M0 0 C4.80185929 2.4462302 7.72346185 5.09668706 10 10 C10.75381535 15.5997712 10.77303575 20.33499991 8.375 25.5 C2.49185919 31.6927798 -2.86958064 32.92445213 -11.125 34.1875 C-12.15165771 34.35258057 -13.17831543 34.51766113 -14.23608398 34.68774414 C-17.15469625 35.14645922 -20.07567332 35.57944642 -23 36 C-23.70753418 36.10505859 -24.41506836 36.21011719 -25.14404297 36.31835938 C-32.48348992 37.36544593 -36.67525287 37.13171344 -42.8125 32.6875 C-44.60201337 30.14450732 -44.81847282 28.08596208 -45 25 C-43.9985274 19.54753808 -41.34862123 17.09483132 -37 14 C-33.2096525 11.6540754 -29.33341097 9.47743983 -25.4375 7.3125 C-24.40947266 6.73177734 -23.38144531 6.15105469 -22.32226562 5.55273438 C-8.67262321 -2.09920385 -8.67262321 -2.09920385 0 0 Z " fill="#C81C48" transform="translate(210,484)"/>
<path d="M0 0 C4.65414261 3.91008718 7.84089786 7.6990853 10.39453125 13.19921875 C10.97203125 14.33359375 11.54953125 15.46796875 12.14453125 16.63671875 C14.47821426 23.0289809 13.80446385 30.50628078 13.39453125 37.19921875 C11.80977073 38.78397927 10.16561124 38.36349192 7.96655273 38.40454102 C7.02565292 38.42448624 6.08475311 38.44443146 5.11534119 38.46498108 C4.09243484 38.48169357 3.0695285 38.49840607 2.015625 38.515625 C0.97382584 38.5364061 -0.06797333 38.55718719 -1.14134216 38.57859802 C-4.48348122 38.64420932 -7.8257016 38.70303206 -11.16796875 38.76171875 C-13.42774293 38.80489297 -15.68750876 38.84850689 -17.94726562 38.89257812 C-23.49991296 38.99990242 -29.05264196 39.10164687 -34.60546875 39.19921875 C-31.80293325 42.86225315 -30.13470557 44.96888875 -25.60546875 46.19921875 C-18.08113315 47.08081665 -12.80796035 46.55415966 -6.60546875 42.19921875 C-5.61546875 41.86921875 -4.62546875 41.53921875 -3.60546875 41.19921875 C-1.27566438 42.38759504 0.83292343 43.60092703 3.01953125 45.01171875 C3.61765625 45.38103516 4.21578125 45.75035156 4.83203125 46.13085938 C9.25322887 48.91661398 9.25322887 48.91661398 10.39453125 51.19921875 C4.85301172 58.59402792 -1.48067053 63.20966488 -10.60546875 65.19921875 C-23.99236741 66.00853572 -34.88159777 65.36524398 -45.8515625 56.859375 C-53.01176152 50.08190376 -56.74716542 41.59266345 -57.15356445 31.79223633 C-57.23110271 19.85265938 -54.34922764 12.14577517 -45.97265625 3.3984375 C-33.5711131 -8.12312816 -14.13328722 -9.76828397 0 0 Z M-46.40234375 7.125 C-52.01132033 14.27505678 -54.15510708 20.51732758 -54.04296875 29.51171875 C-54.03612061 30.35041504 -54.02927246 31.18911133 -54.0222168 32.05322266 C-53.81972926 39.87212341 -52.3723961 45.81741865 -47.35546875 51.94921875 C-46.44796875 52.69171875 -45.54046875 53.43421875 -44.60546875 54.19921875 C-44.04085937 54.70195313 -43.47625 55.2046875 -42.89453125 55.72265625 C-35.29928781 62.07785995 -26.48682043 63.83879429 -16.7265625 63.546875 C-7.47815638 62.5167021 -0.13074998 59.8762507 6.39453125 53.19921875 C6.06158355 50.33833484 5.64855594 49.40165988 3.35546875 47.57421875 C-1.41822847 44.77756937 -1.41822847 44.77756937 -6.68359375 44.73828125 C-8.76175242 45.95084813 -8.76175242 45.95084813 -11.60546875 48.19921875 C-18.01148044 50.26567413 -23.87748776 49.85803464 -29.98046875 47.07421875 C-34.13096843 44.82495728 -36.10366064 42.8119151 -37.60546875 38.19921875 C-36.94546875 38.19921875 -36.28546875 38.19921875 -35.60546875 38.19921875 C-35.60546875 37.53921875 -35.60546875 36.87921875 -35.60546875 36.19921875 C-12.83546875 35.70421875 -12.83546875 35.70421875 10.39453125 35.19921875 C10.49154199 17.6198196 10.49154199 17.6198196 1.39453125 4.19921875 C-12.46351677 -6.72678717 -34.18089884 -5.97320074 -46.40234375 7.125 Z " fill="#003158" transform="translate(918.60546875,509.80078125)"/>
<path d="M0 0 C4.75915534 3.86803777 9.50667677 7.97121217 10.6875 14.1875 C9.12652526 15.2938219 7.56364673 16.39745785 6 17.5 C5.12988281 18.11488281 4.25976562 18.72976563 3.36328125 19.36328125 C-3.71292827 24.1875 -3.71292827 24.1875 -7.3125 24.1875 C-8.453125 22.76171875 -8.453125 22.76171875 -9.5625 20.875 C-12.2612548 16.91896181 -14.60789668 15.49861896 -19.3125 14.1875 C-24.4995429 13.69120886 -28.71150864 13.5326751 -33.3125 16.1875 C-33.9725 15.5275 -34.6325 14.8675 -35.3125 14.1875 C-30.0544646 11.00500489 -26.56902831 9.4187798 -20.3125 10.1875 C-14.52759078 11.95564501 -10.13885783 14.49712588 -6.3125 19.1875 C-6.3125 19.8475 -6.3125 20.5075 -6.3125 21.1875 C-5.55324219 20.76597656 -4.79398438 20.34445312 -4.01171875 19.91015625 C-2.52091797 19.08837891 -2.52091797 19.08837891 -1 18.25 C-0.01386719 17.70472656 0.97226562 17.15945313 1.98828125 16.59765625 C4.6875 15.1875 4.6875 15.1875 7.6875 14.1875 C6.73487966 12.70464758 5.77521595 11.22631799 4.8125 9.75 C4.27882813 8.92628906 3.74515625 8.10257812 3.1953125 7.25390625 C1.84915694 5.07711129 1.84915694 5.07711129 -0.3125 4.1875 C-0.3125 3.5275 -0.3125 2.8675 -0.3125 2.1875 C-1.9755584 1.51188252 -3.64344605 0.84816719 -5.3125 0.1875 C-6.4675 -0.328125 -7.6225 -0.84375 -8.8125 -1.375 C-19.13962335 -5.19408713 -30.5649546 -4.50955677 -40.5625 -0.125 C-46.36921713 3.02520282 -50.32961185 7.9068588 -52.3125 14.1875 C-53.1232104 21.80817772 -53.55372394 29.14009551 -48.89453125 35.57421875 C-44.43198372 40.12491537 -40.19264533 42.23603507 -34.25 44.1875 C-33.50137695 44.44313721 -32.75275391 44.69877441 -31.98144531 44.9621582 C-28.56619655 46.12359122 -25.13879625 47.24377023 -21.70703125 48.35546875 C-20.66933594 48.69191406 -19.63164063 49.02835938 -18.5625 49.375 C-17.20898438 49.79845703 -17.20898438 49.79845703 -15.828125 50.23046875 C-11.54775982 51.85886855 -8.87517156 53.34349266 -6.3125 57.1875 C-5.52598315 64.15379213 -5.52598315 64.15379213 -8.5 68.0625 C-14.21436835 72.38002276 -19.27912206 72.99393956 -26.3125 72.1875 C-32.83091024 70.58900586 -37.18892229 68.03998229 -41.3515625 62.7734375 C-42.3125 61.1875 -42.3125 61.1875 -42.3125 59.1875 C-46.9325 61.4975 -51.5525 63.8075 -56.3125 66.1875 C-55.3225 68.4975 -54.3325 70.8075 -53.3125 73.1875 C-53.3125 74.1775 -53.3125 75.1675 -53.3125 76.1875 C-53.9725 76.1875 -54.6325 76.1875 -55.3125 76.1875 C-59.59821429 69.35714286 -59.59821429 69.35714286 -59.3125 64.1875 C-57.09295349 62.81492523 -54.86414591 61.46490849 -52.625 60.125 C-51.99916016 59.73505859 -51.37332031 59.34511719 -50.72851562 58.94335938 C-47.86304974 57.24808375 -45.83590487 56.17887245 -42.46875 56.234375 C-39.51096244 57.54180284 -38.95192149 59.63529983 -37.5078125 62.3984375 C-35.21863669 65.82472024 -32.22159737 67.15490824 -28.3125 68.1875 C-21.51888949 68.90952624 -16.04666352 69.24790768 -10.3125 65.1875 C-8.99281822 64.08221558 -8.99281822 64.08221558 -9.0625 61.3125 C-9.01416486 58.25495581 -9.01416486 58.25495581 -10.59228516 56.58154297 C-12.42870839 55.09332601 -13.83856836 54.45649079 -16.0859375 53.7578125 C-16.82223389 53.52247803 -17.55853027 53.28714355 -18.31713867 53.04467773 C-19.09935791 52.80305908 -19.88157715 52.56144043 -20.6875 52.3125 C-22.31705947 51.78717826 -23.94596313 51.25981801 -25.57421875 50.73046875 C-26.37778809 50.47056152 -27.18135742 50.2106543 -28.00927734 49.94287109 C-48.84531511 43.10942814 -48.84531511 43.10942814 -54.3125 33.1875 C-57.32452704 26.71164187 -57.44216418 18.76399254 -55.1875 12 C-50.88632338 2.39600289 -45.04150085 -1.89650941 -35.3125 -5.8125 C-23.70291644 -9.73821485 -9.76018844 -6.85602691 0 0 Z " fill="#002E57" transform="translate(584.3125,485.8125)"/>
<path d="M0 0 C0.66 0.66 1.32 1.32 2 2 C2.33 0.68 2.66 -0.64 3 -2 C9.6 -2 16.2 -2 23 -2 C23.02255338 6.71844341 23.04091645 15.43686759 23.05181217 24.15533352 C23.05704041 28.20325742 23.06413699 32.25116041 23.07543945 36.29907227 C23.08627043 40.20235971 23.09227728 44.10562699 23.09487724 48.0089283 C23.09673111 49.50133647 23.100351 50.99374348 23.10573006 52.48614311 C23.11294331 54.56948139 23.11399083 56.65273531 23.11352539 58.73608398 C23.115746 59.92411118 23.11796661 61.11213837 23.12025452 62.33616638 C23 65 23 65 22 66 C20.65732587 66.08631874 19.31025678 66.10706473 17.96484375 66.09765625 C17.15595703 66.09443359 16.34707031 66.09121094 15.51367188 66.08789062 C14.66353516 66.07951172 13.81339844 66.07113281 12.9375 66.0625 C12.08349609 66.05798828 11.22949219 66.05347656 10.34960938 66.04882812 C8.23304337 66.03700373 6.11651315 66.01906769 4 66 C3.34 64.68 2.68 63.36 2 62 C0.9275 62.639375 -0.145 63.27875 -1.25 63.9375 C-8.61479567 68.32805126 -18.17169019 68.0148335 -26.4453125 66.57421875 C-35.23931697 63.67255331 -41.3809776 57.32623368 -45.80859375 49.4296875 C-50.07519282 40.72862316 -51.71045273 30.48658455 -49 21 C-46.953125 19.3359375 -46.953125 19.3359375 -45 18 C-45.02618408 18.70495605 -45.05236816 19.40991211 -45.0793457 20.13623047 C-45.18435626 23.38225312 -45.24865286 26.62791702 -45.3125 29.875 C-45.35439453 30.98359375 -45.39628906 32.0921875 -45.43945312 33.234375 C-45.56651064 41.87428598 -44.03102627 48.70298184 -37.9909668 55.14160156 C-30.64844039 61.97938156 -23.28690967 64.33970635 -13.37109375 64.22265625 C-7.22264264 63.64528934 -2.2105757 61.15792467 3 58 C3.99 58.495 3.99 58.495 5 59 C5 60.32 5 61.64 5 63 C9.95 63 14.9 63 20 63 C20 42.21 20 21.42 20 0 C15.38 0 10.76 0 6 0 C6 1.98 6 3.96 6 6 C1.46139912 5.46604696 -1.29087883 3.5802582 -5 1 C-13.21165478 -1.73721826 -23.25516196 -0.81086336 -30.9921875 2.87890625 C-37.21764085 6.35498623 -40.30185383 11.05246595 -44 17 C-44.66 16.67 -45.32 16.34 -46 16 C-43.87346328 8.43898054 -37.6016828 2.73320571 -30.953125 -1.03515625 C-20.91198057 -5.9954816 -9.72391603 -5.30747608 0 0 Z " fill="#05365A" transform="translate(373,508)"/>
<path d="M0 0 C0 6.93 0 13.86 0 21 C-3.0628125 21.3403125 -3.0628125 21.3403125 -6.1875 21.6875 C-10.47760374 22.34966819 -12.63328818 22.73395417 -16.1875 25.3125 C-19.68380834 30.49668133 -20.30847235 34.94305748 -20.37890625 41.109375 C-20.40439796 42.26049774 -20.40439796 42.26049774 -20.43040466 43.43487549 C-20.48331452 45.87316796 -20.52375839 48.31144451 -20.5625 50.75 C-20.60641061 53.20275559 -20.65302937 55.6553793 -20.70530701 58.10797119 C-20.73730441 59.63142948 -20.76418197 61.15500529 -20.78553772 62.6786499 C-20.88820356 67.88820356 -20.88820356 67.88820356 -22 69 C-23.33043625 69.0983721 -24.66593344 69.13078592 -26 69.1328125 C-26.804375 69.13410156 -27.60875 69.13539063 -28.4375 69.13671875 C-29.283125 69.13285156 -30.12875 69.12898437 -31 69.125 C-31.845625 69.12886719 -32.69125 69.13273438 -33.5625 69.13671875 C-34.366875 69.13542969 -35.17125 69.13414062 -36 69.1328125 C-36.7425 69.13168457 -37.485 69.13055664 -38.25 69.12939453 C-40 69 -40 69 -41 68 C-41.09939626 65.94987154 -41.12799553 63.89628608 -41.12939453 61.84375 C-41.13254669 60.52568359 -41.13569885 59.20761719 -41.13894653 57.84960938 C-41.13715675 56.39973925 -41.1351058 54.94986942 -41.1328125 53.5 C-41.13348557 52.02408838 -41.13445563 50.54817687 -41.13571167 49.07226562 C-41.13718848 45.97524971 -41.13503464 42.87826258 -41.13037109 39.78125 C-41.1246738 35.80291451 -41.1279529 31.82464648 -41.13394356 27.84631348 C-41.13754963 24.79752083 -41.13641037 21.74874429 -41.13381577 18.69995117 C-41.13314662 17.23266594 -41.13397447 15.76537926 -41.13629532 14.2980957 C-41.13882257 12.25081407 -41.1342906 10.20352734 -41.12939453 8.15625 C-41.12859894 6.98900391 -41.12780334 5.82175781 -41.12698364 4.61914062 C-41 2 -41 2 -40 1 C-38.65732587 0.91368126 -37.31025678 0.89293527 -35.96484375 0.90234375 C-35.15595703 0.90556641 -34.34707031 0.90878906 -33.51367188 0.91210938 C-32.66353516 0.92048828 -31.81339844 0.92886719 -30.9375 0.9375 C-30.08349609 0.94201172 -29.22949219 0.94652344 -28.34960938 0.95117188 C-26.23304337 0.96299627 -24.11651315 0.98093231 -22 1 C-21.34 2.98 -20.68 4.96 -20 7 C-19.56429687 6.59007812 -19.12859375 6.18015625 -18.6796875 5.7578125 C-12.26149964 -0.04911937 -8.95006465 -1.27858066 0 0 Z M-18.875 8.75 C-19.57625 9.4925 -20.2775 10.235 -21 11 C-21.66 11 -22.32 11 -23 11 C-23 8.36 -23 5.72 -23 3 C-27.95 3 -32.9 3 -38 3 C-38 23.79 -38 44.58 -38 66 C-33.05 66 -28.1 66 -23 66 C-22.94392578 62.31457031 -22.94392578 62.31457031 -22.88671875 58.5546875 C-22.84043964 56.16169594 -22.78922938 53.76885685 -22.73754883 51.37597656 C-22.70439982 49.71949616 -22.67633691 48.06290554 -22.65356445 46.40625 C-22.61983268 44.01775366 -22.56751041 41.63025829 -22.51171875 39.2421875 C-22.50532883 38.50757294 -22.4989389 37.77295837 -22.49235535 37.01608276 C-22.35890285 32.29483139 -21.48028542 29.01883221 -19 25 C-13.64132563 20.05353135 -10.36124268 19.0516061 -3 18 C-3 12.72 -3 7.44 -3 2 C-9.84884198 2 -13.94606762 4.03536903 -18.875 8.75 Z " fill="#01365E" transform="translate(794,505)"/>
<path d="M0 0 C2.47227118 0.96030368 3.74102251 1.53229439 5.046875 3.890625 C7.21653735 11.17104755 7.78371229 18.42750718 7 26 C5 28 5 28 2.97518921 28.24050903 C2.14468048 28.23606781 1.31417175 28.23162659 0.45849609 28.22705078 C-0.48232819 28.22689972 -1.42315247 28.22674866 -2.39248657 28.22659302 C-3.41023163 28.21627045 -4.42797668 28.20594788 -5.4765625 28.1953125 C-6.51694672 28.1924826 -7.55733093 28.18965271 -8.62924194 28.18673706 C-11.96127694 28.17551704 -15.29304586 28.15040915 -18.625 28.125 C-20.88020446 28.11497256 -23.13541312 28.1058463 -25.390625 28.09765625 C-30.92717454 28.07557178 -36.46356827 28.04207639 -42 28 C-41.2260791 28.96204346 -40.4521582 29.92408691 -39.65478516 30.9152832 C-39.21945465 31.45643265 -38.78412415 31.99758209 -38.33560181 32.55513 C-35.77074187 35.32982613 -32.99099825 35.887453 -29.3515625 36.30078125 C-22.68332191 36.32944131 -17.70220131 35.78888293 -12.2265625 31.6640625 C-10 31 -10 31 -6.80078125 32.484375 C-5.62751102 33.22314991 -4.46494905 33.97914814 -3.3125 34.75 C-2.71888672 35.12382813 -2.12527344 35.49765625 -1.51367188 35.8828125 C2.84196429 38.68392857 2.84196429 38.68392857 4 41 C-1.73346237 48.53602819 -7.6916653 52.83794076 -17 55 C-19.96434825 55.28855879 -22.89802207 55.33446569 -25.875 55.3125 C-26.67220459 55.30686035 -27.46940918 55.3012207 -28.29077148 55.29541016 C-39.0048398 55.07386836 -47.54298955 51.6077566 -55.12109375 43.8203125 C-58.0662699 40.3003233 -59.87008535 38.0578764 -60.4375 33.4375 C-60.293125 32.633125 -60.14875 31.82875 -60 31 C-58.29381077 33.218046 -56.75470094 35.40883176 -55.3125 37.8125 C-50.05158315 45.06403404 -43.89321023 49.5594375 -35.1875 51.6875 C-23.72453394 52.8113202 -12.55095428 52.07044059 -3 45 C-1.27396685 42.93277224 -1.27396685 42.93277224 0 41 C-1.57046743 39.93903537 -3.15694517 38.90173765 -4.75 37.875 C-5.63171875 37.29492188 -6.5134375 36.71484375 -7.421875 36.1171875 C-9.8956049 34.70125515 -9.8956049 34.70125515 -12.09375 35.71875 C-12.7228125 36.1415625 -13.351875 36.564375 -14 37 C-21.4503437 40.4121322 -27.47865598 41.11565342 -35.25 38.3125 C-39.28475319 36.55233117 -41.79017806 34.93924781 -44 31 C-44.8125 28.25 -44.8125 28.25 -45 26 C-44 25 -44 25 -42.05747986 24.87974548 C-41.20698563 24.88196609 -40.35649139 24.88418671 -39.48022461 24.88647461 C-38.03884377 24.88658791 -38.03884377 24.88658791 -36.56834412 24.88670349 C-35.00117393 24.89444542 -35.00117393 24.89444542 -33.40234375 24.90234375 C-32.33834854 24.9037587 -31.27435333 24.90517365 -30.17811584 24.90663147 C-26.76454917 24.91224936 -23.351047 24.92480489 -19.9375 24.9375 C-17.62955824 24.94251269 -15.32161545 24.947076 -13.01367188 24.95117188 C-7.34242574 24.9622246 -1.67121747 24.97898013 4 25 C3.87326973 22.62309917 3.73790169 20.24720447 3.59765625 17.87109375 C3.56305298 17.20541382 3.52844971 16.53973389 3.49279785 15.85388184 C3.15084639 10.24347217 1.9621847 5.24483332 0 0 Z " fill="#003358" transform="translate(510,520)"/>
<path d="M0 0 C1.18613892 0.00785522 1.18613892 0.00785522 2.39624023 0.01586914 C3.67724609 0.02070313 3.67724609 0.02070313 4.98413086 0.02563477 C5.88196289 0.03401367 6.77979492 0.04239258 7.70483398 0.05102539 C8.6065332 0.05553711 9.50823242 0.06004883 10.43725586 0.06469727 C12.67234712 0.07652315 14.90730835 0.09300319 17.14233398 0.11352539 C17.1654601 8.83196542 17.18325044 17.55039495 17.19414616 26.26885891 C17.1993744 30.31678281 17.20647097 34.3646858 17.21777344 38.41259766 C17.22860442 42.3158851 17.23461126 46.21915238 17.23721123 50.12245369 C17.2390651 51.61486186 17.24268499 53.10726887 17.24806404 54.5996685 C17.25527729 56.68300679 17.25632481 58.7662607 17.25585938 60.84960938 C17.25807999 62.03763657 17.2603006 63.22566376 17.2625885 64.44969177 C17.14233398 67.11352539 17.14233398 67.11352539 16.14233398 68.11352539 C14.79965985 68.19984413 13.45259077 68.22059012 12.10717773 68.21118164 C11.29829102 68.20795898 10.4894043 68.20473633 9.65600586 68.20141602 C8.80586914 68.19303711 7.95573242 68.1846582 7.07983398 68.17602539 C6.22583008 68.17151367 5.37182617 68.16700195 4.49194336 68.16235352 C2.37537735 68.15052912 0.25884713 68.13259308 -1.85766602 68.11352539 C-2.18766602 66.79352539 -2.51766602 65.47352539 -2.85766602 64.11352539 C-3.40551758 64.47446289 -3.95336914 64.83540039 -4.51782227 65.20727539 C-12.15663679 69.67877657 -19.14123107 70.14961199 -27.85766602 69.11352539 C-31.16947526 68.24246208 -34.19030797 67.30698733 -36.85766602 65.11352539 C-37.58422852 62.97290039 -37.58422852 62.97290039 -37.85766602 61.11352539 C-37.28532227 61.41000977 -36.71297852 61.70649414 -36.12329102 62.01196289 C-27.68043062 66.11693984 -19.99820327 67.38011669 -10.82250977 64.89086914 C-7.38624189 63.53139139 -4.74424067 61.39873033 -1.85766602 59.11352539 C-0.86766602 59.60852539 -0.86766602 59.60852539 0.14233398 60.11352539 C0.14233398 61.76352539 0.14233398 63.41352539 0.14233398 65.11352539 C5.09233398 65.11352539 10.04233398 65.11352539 15.14233398 65.11352539 C15.14233398 44.32352539 15.14233398 23.53352539 15.14233398 2.11352539 C10.19233398 2.11352539 5.24233398 2.11352539 0.14233398 2.11352539 C0.16328125 3.25305664 0.18422852 4.39258789 0.20581055 5.56665039 C0.27860012 9.82319408 0.32427441 14.07968353 0.36206055 18.33666992 C0.38208772 20.17367832 0.40931781 22.01062368 0.4440918 23.84741211 C0.49300463 26.49877541 0.51539162 29.1492908 0.53295898 31.80102539 C0.55360413 32.6128125 0.57424927 33.42459961 0.59552002 34.26098633 C0.59774294 40.00145672 -0.64177355 44.31752346 -3.85766602 49.11352539 C-8.1793287 53.22939461 -11.78362402 53.53835471 -17.49047852 53.44946289 C-19.98399497 53.09559752 -21.68740248 52.36367719 -23.85766602 51.11352539 C-23.19766602 50.45352539 -22.53766602 49.79352539 -21.85766602 49.11352539 C-19.90454102 49.24243164 -19.90454102 49.24243164 -17.60766602 49.67602539 C-13.12873201 50.27369665 -10.63758403 49.81346683 -6.85766602 47.11352539 C-3.20434157 42.57934262 -3.40195454 38.25480687 -3.38110352 32.69165039 C-3.35773422 31.34076324 -3.35773422 31.34076324 -3.33389282 29.96258545 C-3.28648619 27.09624032 -3.25863432 24.23013809 -3.23266602 21.36352539 C-3.19620721 18.4827999 -3.15566163 15.60221314 -3.11001587 12.72161865 C-3.08272886 10.9310519 -3.06140396 9.14038287 -3.04647827 7.34967041 C-2.95504551 0.18058827 -2.95504551 0.18058827 0 0 Z " fill="#003560" transform="translate(725.857666015625,505.886474609375)"/>
<path d="M0 0 C2.5439636 2.11044172 4.88075088 4.26584841 7.0859375 6.73046875 C8.2615625 8.02984375 8.2615625 8.02984375 9.4609375 9.35546875 C9.9971875 10.13921875 10.5334375 10.92296875 11.0859375 11.73046875 C9.65528422 16.02242858 6.47561423 17.323048 2.7734375 19.54296875 C1.75733398 20.19168945 1.75733398 20.19168945 0.72070312 20.85351562 C-1.1366031 21.97734021 -2.88010198 22.97113895 -4.9140625 23.73046875 C-8.06866566 22.94571574 -8.72858088 21.98219381 -10.6640625 19.35546875 C-15.09876709 14.18164672 -21.23520146 12.0981592 -27.90234375 11.57421875 C-34.94262064 11.2823938 -41.03274277 12.80958893 -46.9140625 16.73046875 C-47.9040625 16.40046875 -48.8940625 16.07046875 -49.9140625 15.73046875 C-42.40674321 9.13312755 -35.64773206 7.98893742 -25.87109375 8.31640625 C-17.21628219 9.222043 -11.54792099 13.35531309 -5.9140625 19.73046875 C-1.13796752 18.0886861 2.87976654 15.46500173 7.0859375 12.73046875 C1.84441853 3.92471688 -5.24380227 -0.93755039 -14.9140625 -4.26953125 C-28.69419498 -7.73170384 -42.43922361 -6.82861694 -54.796875 0.421875 C-63.85400806 6.52988708 -70.01632897 14.32309848 -73.26953125 24.81640625 C-74.78069717 33.99330477 -74.2063681 43.46213275 -73.9140625 52.73046875 C-74.9040625 52.40046875 -75.8940625 52.07046875 -76.9140625 51.73046875 C-79.78805836 36.38703925 -77.76893117 21.73850592 -68.9140625 8.73046875 C-62.26470031 -0.02168319 -52.00033447 -5.96468621 -41.4609375 -8.96875 C-26.34260377 -10.75419739 -12.44495596 -9.44447305 0 0 Z " fill="#003158" transform="translate(310.9140625,488.26953125)"/>
<path d="M0 0 C0.82514784 2.83384108 1.07936233 5.16935251 0.87890625 8.109375 C0.83056641 8.86347656 0.78222656 9.61757813 0.73242188 10.39453125 C0.67634766 11.17183594 0.62027344 11.94914063 0.5625 12.75 C0.51029297 13.54277344 0.45808594 14.33554687 0.40429688 15.15234375 C0.27510676 17.10193997 0.13830035 19.05102886 0 21 C-0.33 21 -0.66 21 -1 21 C-1 15.06 -1 9.12 -1 3 C-10.17890538 5.0730203 -10.17890538 5.0730203 -17 11 C-17.99 11 -18.98 11 -20 11 C-20.66 11.66 -21.32 12.32 -22 13 C-22 10.03 -22 7.06 -22 4 C-26.95 4 -31.9 4 -37 4 C-37 24.79 -37 45.58 -37 67 C-32.05 67 -27.1 67 -22 67 C-22.05220703 63.5659375 -22.05220703 63.5659375 -22.10546875 60.0625 C-22.12892863 57.82179 -22.14710842 55.58109418 -22.16479492 53.34033203 C-22.1797933 51.79437032 -22.20019887 50.24845052 -22.22631836 48.70263672 C-22.53012883 30.24764018 -22.53012883 30.24764018 -17.72436523 24.46508789 C-14.13844934 21.05374713 -10.83127668 20.2898766 -6 20 C-6 20.66 -6 21.32 -6 22 C-6.61488281 22.21914063 -7.22976563 22.43828125 -7.86328125 22.6640625 C-8.67152344 22.98117187 -9.47976563 23.29828125 -10.3125 23.625 C-11.11300781 23.92664063 -11.91351563 24.22828125 -12.73828125 24.5390625 C-15.89659258 26.57914616 -16.59754937 28.5161913 -18 32 C-18.42860799 34.88415075 -18.46434148 37.73201276 -18.4765625 40.64453125 C-18.49993179 41.86011971 -18.49993179 41.86011971 -18.52377319 43.1002655 C-18.57105074 45.67100161 -18.5989935 48.24146835 -18.625 50.8125 C-18.66147742 53.40119716 -18.70201444 55.98974101 -18.74765015 58.57829285 C-18.77490963 60.18522636 -18.79624665 61.79227304 -18.81118774 63.39936829 C-18.88929166 68.88929166 -18.88929166 68.88929166 -20 70 C-21.33043625 70.0983721 -22.66593344 70.13078592 -24 70.1328125 C-24.804375 70.13410156 -25.60875 70.13539063 -26.4375 70.13671875 C-27.283125 70.13285156 -28.12875 70.12898437 -29 70.125 C-29.845625 70.12886719 -30.69125 70.13273438 -31.5625 70.13671875 C-32.366875 70.13542969 -33.17125 70.13414062 -34 70.1328125 C-34.7425 70.13168457 -35.485 70.13055664 -36.25 70.12939453 C-38 70 -38 70 -39 69 C-39.1290015 66.98658606 -39.18853305 64.96869402 -39.22119141 62.95141602 C-39.24436432 61.65659805 -39.26753723 60.36178009 -39.29141235 59.02772522 C-39.31172006 57.60312255 -39.33176371 56.17851609 -39.3515625 54.75390625 C-39.37466703 53.30280615 -39.39805726 51.85171057 -39.42172241 50.40061951 C-39.47024205 47.35492805 -39.5151628 44.30920959 -39.55761719 41.26342773 C-39.61240645 37.35458482 -39.6762391 33.44595162 -39.74279213 29.53729343 C-39.7928179 26.53913008 -39.83796427 23.54090849 -39.88163376 20.54264641 C-39.90323598 19.10128344 -39.92638878 17.65994287 -39.9510994 16.21862984 C-39.98490363 14.20515672 -40.01142882 12.19156534 -40.03759766 10.17797852 C-40.05456696 9.03071793 -40.07153625 7.88345734 -40.08901978 6.70143127 C-40 4 -40 4 -39 2 C-32.73 2 -26.46 2 -20 2 C-19.34 3.65 -18.68 5.3 -18 7 C-17.154375 6.21625 -16.30875 5.4325 -15.4375 4.625 C-10.8785721 0.82947748 -5.88808633 -0.35685372 0 0 Z " fill="#003159" transform="translate(445,504)"/>
<path d="M0 0 C7.64428079 5.48754714 13.00650289 12.9525718 15.15234375 22.1796875 C16.54486609 34.48030153 14.77180295 44.54324581 6.99609375 54.44140625 C1.93864639 59.94018746 -5.02458513 64.22641513 -12.47265625 65.4921875 C-15.06639539 65.56116992 -17.63075822 65.58653502 -20.22265625 65.5546875 C-20.92003906 65.55017578 -21.61742187 65.54566406 -22.3359375 65.54101562 C-24.04821428 65.5292877 -25.76044658 65.51135403 -27.47265625 65.4921875 C-27.47265625 64.8321875 -27.47265625 64.1721875 -27.47265625 63.4921875 C-28.95765625 62.9971875 -28.95765625 62.9971875 -30.47265625 62.4921875 C-29.44527344 62.53859375 -28.41789063 62.585 -27.359375 62.6328125 C-16.00640395 62.99274454 -6.4069507 61.74216078 2.73828125 54.328125 C10.91528718 45.93687438 12.03665803 36.68506287 11.92578125 25.38671875 C11.0718506 17.03996525 7.1854944 10.69084164 1.21484375 4.9296875 C-7.54754032 -2.05987591 -16.5009422 -2.36740272 -27.47265625 -1.5078125 C-35.3485211 -0.13211558 -41.22783672 4.15723409 -46.72265625 9.8046875 C-52.97858595 19.4120081 -53.23062445 28.27401367 -53.47265625 39.4921875 C-54.13265625 39.4921875 -54.79265625 39.4921875 -55.47265625 39.4921875 C-58.16791223 31.40641955 -56.81659125 22.19337113 -53.47265625 14.4921875 C-49.2417487 6.24734201 -42.87264923 -0.0081411 -34.16015625 -3.3828125 C-22.16659562 -7.0418649 -10.89563208 -6.64409792 0 0 Z " fill="#01325A" transform="translate(657.47265625,509.5078125)"/>
<path d="M0 0 C8.1093197 0.20920849 14.13413226 3.83033394 21.125 7.6875 C22.27871094 8.30044922 23.43242187 8.91339844 24.62109375 9.54492188 C38.77669436 17.24315219 38.77669436 17.24315219 40.66650391 23.046875 C41.3767445 26.54991122 41.03927548 28.86989998 40 32.3125 C37.52114699 35.64345873 34.92742551 36.94838643 31 38 C28.1467817 38.14083463 25.44510317 37.79460656 22.625 37.375 C21.8505957 37.2723584 21.07619141 37.1697168 20.27832031 37.06396484 C17.84840295 36.73180725 15.42473098 36.36794392 13 36 C12.21012695 35.88849609 11.42025391 35.77699219 10.60644531 35.66210938 C8.31735278 35.33659185 6.0336824 34.98637724 3.75 34.625 C3.05986816 34.52364746 2.36973633 34.42229492 1.65869141 34.31787109 C-3.9410108 33.35591684 -8.05267482 31.21592175 -11.8125 26.9375 C-14.6770967 22.26368434 -14.56440283 17.30538663 -14 12 C-12.62388393 7.60637641 -10.19853643 4.86114089 -6.25 2.5625 C-5.1775 2.046875 -4.105 1.53125 -3 1 C-3.1875 2.75 -3.1875 2.75 -4 5 C-5.66666667 6.33333333 -7.33333333 7.66666667 -9 9 C-10.05131839 11.96280638 -10.16341265 14.81096154 -10.1875 17.9375 C-10.20167969 18.77152344 -10.21585937 19.60554688 -10.23046875 20.46484375 C-9.96431319 23.39255488 -9.42361438 25.4216272 -8 28 C1.93821405 33.43943403 22.85388736 35.76594789 34 34 C36.5232565 31.4767435 36.47151535 30.26335038 36.6875 26.75 C36.77386719 25.81671875 36.86023438 24.8834375 36.94921875 23.921875 C35.3748137 19.07555822 31.26012262 17.45249537 27 15 C26.18490967 14.50902832 25.36981934 14.01805664 24.5300293 13.51220703 C22.0410974 12.03022502 19.52652353 10.60429666 17 9.1875 C15.74316406 8.45370117 15.74316406 8.45370117 14.4609375 7.70507812 C8.84027319 4.5597683 4.44401673 3.29231931 -2 3 C-1.34 2.67 -0.68 2.34 0 2 C0 1.34 0 0.68 0 0 Z " fill="#CF1819" transform="translate(106,483)"/>
<path d="M0 0 C5.53593803 3.8136462 5.53593803 3.8136462 6.37890625 7.78515625 C7.13763126 17.19657504 2.21737827 24.92111547 -2 33 C-2.55816406 34.10988281 -3.11632812 35.21976563 -3.69140625 36.36328125 C-6.69205025 42.1530356 -9.49569663 47.06341129 -15.375 50.3125 C-21.61121844 51.94579531 -26.41139475 51.14994114 -32 48 C-37.14574562 43.1086508 -39.04012515 39.44486502 -39.328125 32.23046875 C-38.43441484 26.15536755 -34.57955322 22.15228691 -30.3125 18.0625 C-29.77794189 17.54034912 -29.24338379 17.01819824 -28.69262695 16.48022461 C-9.23217652 -2.4003659 -9.23217652 -2.4003659 0 0 Z M-16 9 C-17.68115607 10.5278431 -19.36886936 12.04849685 -21.0625 13.5625 C-22.31933594 14.69945312 -22.31933594 14.69945312 -23.6015625 15.859375 C-26.1940482 18.1731896 -28.83813007 20.41301551 -31.52734375 22.61328125 C-34.26727085 25.19331871 -35.83561254 27.01641504 -36.46875 30.8046875 C-36.69016519 37.66678793 -36.69016519 37.66678793 -33.75 43.625 C-28.96756787 47.75528229 -25.62102609 48.41163782 -19.3984375 48.23828125 C-16.08267996 47.9088656 -14.47408331 47.26201903 -12 45 C-7.6444189 38.92358838 -4.43136615 32.1461097 -1.1875 25.4375 C-0.68541016 24.43525391 -0.18332031 23.43300781 0.33398438 22.40039062 C3.913405 15.01195644 3.913405 15.01195644 4 7 C1.48896353 3.42367533 -0.04272488 2.21674154 -4.3125 1.25 C-9.64249517 2.33406681 -12.19818784 5.26656576 -16 9 Z " fill="#BC0F2B" transform="translate(148,523)"/>
<path d="M0 0 C4.43466644 3.25738528 7.98572011 6.43628397 10.4609375 11.38671875 C9.12586064 15.39194933 6.58755973 16.54561294 3.1484375 18.63671875 C2.56642578 19.013125 1.98441406 19.38953125 1.38476562 19.77734375 C-2.90093543 22.41768506 -2.90093543 22.41768506 -5.79296875 22.27734375 C-8.55919037 20.86638507 -10.41808813 18.61932335 -12.5390625 16.38671875 C-15.24144548 15.03552726 -17.39920696 15.25434747 -20.4140625 15.26171875 C-21.46335937 15.25914062 -22.51265625 15.2565625 -23.59375 15.25390625 C-26.09582935 15.36673211 -28.15663173 15.66163113 -30.5390625 16.38671875 C-30.5390625 17.04671875 -30.5390625 17.70671875 -30.5390625 18.38671875 C-31.1990625 18.38671875 -31.8590625 18.38671875 -32.5390625 18.38671875 C-32.72082031 19.134375 -32.90257812 19.88203125 -33.08984375 20.65234375 C-33.34121094 21.6371875 -33.59257813 22.62203125 -33.8515625 23.63671875 C-34.21701172 25.09851563 -34.21701172 25.09851563 -34.58984375 26.58984375 C-35.53558606 29.3764754 -36.64614963 31.15976243 -38.5390625 33.38671875 C-38.99167043 27.05020772 -38.33492392 22.59798612 -34.5390625 17.38671875 C-31.47850512 14.07229025 -28.53923153 11.7654675 -24.04296875 10.9140625 C-17.36275449 10.68020416 -12.15483591 12.03922979 -7.1015625 16.57421875 C-6.5859375 17.17234375 -6.0703125 17.77046875 -5.5390625 18.38671875 C-1.23141435 16.82030124 2.52265214 14.70335719 6.4609375 12.38671875 C3.64468531 5.47409974 -1.98737807 2.18283512 -8.5390625 -0.61328125 C-17.79836197 -3.69971441 -29.50171674 -2.08776689 -38.1015625 2.13671875 C-41.92773515 4.46416018 -45.23805386 7.37668048 -48.5390625 10.38671875 C-48.8690625 9.72671875 -49.1990625 9.06671875 -49.5390625 8.38671875 C-44.81019851 1.76630916 -38.72443684 -1.84254595 -31.2890625 -4.98828125 C-20.0158763 -6.86714562 -9.77918633 -6.21354454 0 0 Z " fill="#002F56" transform="translate(850.5390625,509.61328125)"/>
<path d="M0 0 C4.80185929 2.4462302 7.72346185 5.09668706 10 10 C10.75381535 15.5997712 10.77303575 20.33499991 8.375 25.5 C2.49185919 31.6927798 -2.86958064 32.92445213 -11.125 34.1875 C-12.15165771 34.35258057 -13.17831543 34.51766113 -14.23608398 34.68774414 C-17.15469625 35.14645922 -20.07567332 35.57944642 -23 36 C-23.70753418 36.10505859 -24.41506836 36.21011719 -25.14404297 36.31835938 C-32.48348992 37.36544593 -36.67525287 37.13171344 -42.8125 32.6875 C-44.60201337 30.14450732 -44.81847282 28.08596208 -45 25 C-43.9985274 19.54753808 -41.34862123 17.09483132 -37 14 C-33.2096525 11.6540754 -29.33341097 9.47743983 -25.4375 7.3125 C-24.40947266 6.73177734 -23.38144531 6.15105469 -22.32226562 5.55273438 C-8.67262321 -2.09920385 -8.67262321 -2.09920385 0 0 Z M-23.8125 8.75 C-25.47055664 9.70132812 -25.47055664 9.70132812 -27.16210938 10.671875 C-35.75088508 15.08884091 -35.75088508 15.08884091 -42 22 C-42.47266285 26.17518846 -42.41607253 28.32567556 -40.1875 31.9375 C-32.73331682 36.760795 -21.51669461 33.59067517 -13.1875 32.25 C-11.5487793 32.01410156 -11.5487793 32.01410156 -9.87695312 31.7734375 C-3.95339964 30.83605229 0.41485404 29.96162694 5 26 C7.9224897 21.61626546 8.559524 18.22222401 8 13 C6.26909375 8.19192709 3.64573915 4.32348785 -1 2 C-9.85231259 0.10024576 -16.44713002 4.34389143 -23.8125 8.75 Z " fill="#BA0D2D" transform="translate(210,484)"/>
<path d="M0 0 C1.93497256 1.58798381 3.58125077 3.27060005 5.265625 5.12109375 C7.01349556 7.01462019 8.84622179 8.64902864 10.8125 10.3125 C14.11694069 13.1763486 17.30092736 16.1402884 20.4375 19.1875 C21.70400391 20.41533203 21.70400391 20.41533203 22.99609375 21.66796875 C24.99099155 23.98951648 25.76874798 24.99950508 26 28 C25.66015625 30.578125 25.66015625 30.578125 25.0625 33.25 C24.86785156 34.14203125 24.67320312 35.0340625 24.47265625 35.953125 C24.23869141 36.96632813 24.23869141 36.96632813 24 38 C23.08811303 35.26433909 22.9446124 33.62185776 22.875 30.8125 C22.30135969 25.04788504 19.15147925 21.79907625 15 18 C14.26394531 17.47148438 13.52789062 16.94296875 12.76953125 16.3984375 C12.18558594 15.93695312 11.60164063 15.47546875 11 15 C11 14.34 11 13.68 11 13 C10.41734375 12.731875 9.8346875 12.46375 9.234375 12.1875 C6.97213399 10.98519009 5.19423682 9.66174087 3.25 8 C2.63640625 7.484375 2.0228125 6.96875 1.390625 6.4375 C0 5 0 5 0 3 C-3.8216052 1.20159755 -6.7822539 0.38491203 -11 1 C-14.10350449 2.85341334 -14.10350449 2.85341334 -16 6 C-15.9734406 13.69337228 -12.58547722 19.89345057 -9.25 26.6875 C-8.7240625 27.80189453 -8.198125 28.91628906 -7.65625 30.06445312 C-3.49372983 38.98757721 -3.49372983 38.98757721 4 45 C9.71289529 45.52578859 14.32478892 45.68349964 19 42 C19.99 41.34 20.98 40.68 22 40 C22 42.25 22 42.25 21 45 C16.0514574 48.86257814 11.09866487 49.68855894 5 49 C-4.41745506 45.67619233 -7.87852779 36.89550048 -11.93139648 28.45117188 C-12.81123755 26.62761656 -13.7162053 24.81806158 -14.62304688 23.0078125 C-17.64948284 16.75433109 -19.94933437 11.98379894 -19 5 C-18 2.5 -18 2.5 -17 1 C-16.34 1 -15.68 1 -15 1 C-15 0.34 -15 -0.32 -15 -1 C-9.3594167 -3.74797648 -5.34814306 -2.82419484 0 0 Z " fill="#B60B2D" transform="translate(177,525)"/>
<path d="M0 0 C4.56691098 3.80036091 6.70327662 7.9814578 7.5390625 13.83984375 C7.87390929 20.82756759 6.80253537 25.65042745 2.125 30.9375 C-0.1875 32.9375 -0.1875 32.9375 -1.875 33.9375 C-2.535 33.6075 -3.195 33.2775 -3.875 32.9375 C-3.875 32.2775 -3.875 31.6175 -3.875 30.9375 C-2.699375 30.5971875 -2.699375 30.5971875 -1.5 30.25 C1.31015193 29.1685679 1.31015193 29.1685679 2.375 26.5 C2.6225 25.654375 2.87 24.80875 3.125 23.9375 C3.62 22.4525 3.62 22.4525 4.125 20.9375 C4.68930864 15.24015311 4.41086378 10.80964284 1.125 5.9375 C-3.00170404 2.02242181 -5.65584092 1.1049837 -11.1875 0.6875 C-16.69636677 1.06098249 -20.33766352 2.4395824 -24.3125 6.3125 C-26.68657032 11.82034315 -26.61891119 17.03129599 -25.875 22.9375 C-23.71711396 27.57295891 -21.40297714 29.69280679 -16.875 31.9375 C-13.75146211 32.29762333 -13.75146211 32.29762333 -10.5625 32.125 C-9.49386719 32.09792969 -8.42523438 32.07085938 -7.32421875 32.04296875 C-6.11185547 31.99076172 -6.11185547 31.99076172 -4.875 31.9375 C-4.875 32.9275 -4.875 33.9175 -4.875 34.9375 C-9.08137052 37.04068526 -13.91643939 36.58613477 -18.29296875 35.13671875 C-23.47962636 32.60854896 -26.56784382 29.61296187 -29.0625 24.3984375 C-30.97941845 18.59238643 -30.73731537 13.20834084 -28.25 7.625 C-25.49985238 2.8316089 -22.09079502 0.04539751 -17.125 -2.4375 C-11.13166605 -3.59006422 -5.25643319 -3.34603059 0 0 Z " fill="#003058" transform="translate(370.875,523.0625)"/>
<path d="M0 0 C2.05961673 1.48586635 3.85529989 2.82874321 5.5 4.765625 C5.5 5.755625 5.5 6.745625 5.5 7.765625 C4.51 7.435625 3.52 7.105625 2.5 6.765625 C2.5 6.105625 2.5 5.445625 2.5 4.765625 C-3.13706709 2.17981441 -8.39248834 2.12011564 -14.5 2.765625 C-18.70399746 4.5357292 -20.60114902 6.38227614 -22.4375 10.453125 C-24.31537317 16.45561244 -23.6178702 21.60973247 -20.75 27.140625 C-17.7891301 30.59497321 -15.77834922 32.45650224 -11.16796875 33.08203125 C-5.45048191 33.34776152 -1.89749547 32.73409652 2.5 28.765625 C5.58005327 25.04831932 5.93556911 21.58132101 6.31640625 16.92578125 C6.52340097 14.49029016 6.96191989 12.14855119 7.5 9.765625 C10.36121285 14.05744427 10.09020596 17.73019695 9.5 22.765625 C7.8917524 28.33189512 5.04205344 31.66356644 0.28125 34.85546875 C-3.86909886 36.97615139 -7.89088569 37.07810733 -12.5 36.765625 C-14.96556493 35.94057214 -17.15565505 34.91387559 -19.5 33.765625 C-19.5 33.105625 -19.5 32.445625 -19.5 31.765625 C-20.49 31.435625 -21.48 31.105625 -22.5 30.765625 C-26.39361454 25.8953513 -27.13475851 20.45080517 -26.8828125 14.37890625 C-26.09364423 8.99162487 -23.50302178 5.45936232 -19.4375 1.890625 C-13.87531051 -2.13308655 -6.27729751 -3.09941565 0 0 Z " fill="#013259" transform="translate(645.5,522.234375)"/>
<path d="M0 0 C4.46182436 1.31074365 7.99618757 3.07066011 11.875 5.625 C12.84179688 6.25664063 13.80859375 6.88828125 14.8046875 7.5390625 C15.52914062 8.02117188 16.25359375 8.50328125 17 9 C16.2250645 15.68828948 11.72905795 19.55582506 7 24 C-2.33050008 31.08645576 -11.43298002 33.23925981 -22.9375 33.375 C-23.77917725 33.38901855 -24.62085449 33.40303711 -25.48803711 33.41748047 C-26.2847583 33.41119629 -27.08147949 33.40491211 -27.90234375 33.3984375 C-28.61898193 33.39505371 -29.33562012 33.39166992 -30.07397461 33.38818359 C-32.51267275 32.89667262 -33.42252303 31.87068025 -35 30 C-33.15148437 30.05220703 -33.15148437 30.05220703 -31.265625 30.10546875 C-15.8118208 30.41673464 -2.79480815 29.24538951 9.01953125 18.09375 C12.25914061 14.57552622 12.25914061 14.57552622 13 10 C10.87757937 8.32941171 10.87757937 8.32941171 8.1875 6.875 C7.29417969 6.35679687 6.40085937 5.83859375 5.48046875 5.3046875 C2.97668377 3.90236464 2.97668377 3.90236464 0 3 C-0.20625 3.556875 -0.4125 4.11375 -0.625 4.6875 C-3.27126195 9.13803147 -7.86167859 12.56819043 -12.65625 14.5078125 C-18.28514133 15.68987968 -24.27561719 15.19891678 -30 15 C-29.34 14.01 -28.68 13.02 -28 12 C-25.6796875 11.8125 -25.6796875 11.8125 -22.875 12 C-16.02893282 12.17003304 -11.07536886 10.84110174 -5.6875 6.5625 C-3.48788883 4.46519632 -1.67927366 2.51891048 0 0 Z " fill="#002F54" transform="translate(304,542)"/>
<path d="M0 0 C0.33 0 0.66 0 1 0 C1.02578125 1.03898438 1.0515625 2.07796875 1.078125 3.1484375 C1.47567508 14.18707807 2.57954177 23.94564865 11 32 C20.25292681 38.64804413 28.65296743 40.9970196 40 40 C47.66878054 38.65201642 54.75795592 35.56084167 59.3828125 29.0546875 C60.33345518 27.41266833 61.1789564 25.71050749 62 24 C62.99 24 63.98 24 65 24 C64.24427022 28.91224358 61.79857507 32.53777263 58.015625 35.61328125 C47.70050986 42.78050781 38.32550845 44.21166015 26 43 C16.3695504 41.23402514 9.07401077 35.55633863 3.3359375 27.73046875 C-1.56882349 19.5415257 -2.35247335 11.37970759 -2 2 C-1.34 2 -0.68 2 0 2 C0 1.34 0 0.68 0 0 Z " fill="#002F57" transform="translate(796,532)"/>
<path d="M0 0 C5.61 0 11.22 0 17 0 C17 22.11 17 44.22 17 67 C11.06 67 5.12 67 -1 67 C-1.33 65.68 -1.66 64.36 -2 63 C-2.82177734 63.54140625 -2.82177734 63.54140625 -3.66015625 64.09375 C-11.29897077 68.56525118 -18.28356506 69.0360866 -27 68 C-30.31180924 67.12893669 -33.33264196 66.19346194 -36 64 C-36.7265625 61.859375 -36.7265625 61.859375 -37 60 C-36.42765625 60.29648437 -35.8553125 60.59296875 -35.265625 60.8984375 C-26.82276461 65.00341445 -19.14053725 66.26659129 -9.96484375 63.77734375 C-6.52857587 62.417866 -3.88657466 60.28520494 -1 58 C-0.01 58.495 -0.01 58.495 1 59 C1 60.65 1 62.3 1 64 C5.95 64 10.9 64 16 64 C16 43.21 16 22.42 16 1 C10.72 1 5.44 1 0 1 C0 0.67 0 0.34 0 0 Z " fill="#002C53" transform="translate(725,507)"/>
<path d="M0 0 C3.82362952 2.15595613 5.8470156 4.34067307 7.75 8.375 C9.81189189 16.89748647 7.57445534 24.97425932 5.75 33.375 C5.09 33.045 4.43 32.715 3.75 32.375 C3.7814209 31.64385986 3.8128418 30.91271973 3.84521484 30.15942383 C3.97019809 26.83576598 4.04805548 23.51260238 4.125 20.1875 C4.17527344 19.03701172 4.22554687 17.88652344 4.27734375 16.70117188 C4.53795443 10.83750358 4.53795443 10.83750358 2.58105469 5.47827148 C-1.52780768 1.75519597 -5.39714789 1.70671782 -10.6171875 1.94140625 C-14.45849581 2.57402528 -16.36197433 3.79097703 -19.25 6.375 C-20.50248502 8.87997004 -20.36374406 10.58353274 -20.34765625 13.3828125 C-20.34443359 14.36894531 -20.34121094 15.35507812 -20.33789062 16.37109375 C-20.32951172 17.40363281 -20.32113281 18.43617188 -20.3125 19.5 C-20.30798828 20.54027344 -20.30347656 21.58054687 -20.29882812 22.65234375 C-20.28701952 25.22661962 -20.27055075 27.80078146 -20.25 30.375 C-20.58 29.385 -20.91 28.395 -21.25 27.375 C-21.91 27.375 -22.57 27.375 -23.25 27.375 C-26.07608696 11.70108696 -26.07608696 11.70108696 -23.25 6.375 C-16.60258464 -0.70128087 -9.41419392 -4.24078642 0 0 Z " fill="#D21E24" transform="translate(164.25,450.625)"/>
<path d="M0 0 C0.66 0.66 1.32 1.32 2 2 C2.33 0.68 2.66 -0.64 3 -2 C9.6 -2 16.2 -2 23 -2 C22.67 -1.34 22.34 -0.68 22 0 C16.72 0 11.44 0 6 0 C6 1.98 6 3.96 6 6 C1.46139912 5.46604696 -1.29087883 3.5802582 -5 1 C-13.21165478 -1.73721826 -23.25516196 -0.81086336 -30.9921875 2.87890625 C-37.21764085 6.35498623 -40.30185383 11.05246595 -44 17 C-44.66 16.67 -45.32 16.34 -46 16 C-43.87346328 8.43898054 -37.6016828 2.73320571 -30.953125 -1.03515625 C-20.91198057 -5.9954816 -9.72391603 -5.30747608 0 0 Z " fill="#002E59" transform="translate(373,508)"/>
<path d="M0 0 C5.94 0.33 11.88 0.66 18 1 C18 13.87 18 26.74 18 40 C17.67 40 17.34 40 17 40 C17 27.46 17 14.92 17 2 C12.05 2 7.1 2 2 2 C2.33 18.17 2.66 34.34 3 51 C2.01 50.67 1.02 50.34 0 50 C-0.96284756 44.35008321 -1.14598991 38.88902502 -1.1328125 33.1640625 C-1.13376923 32.24410492 -1.13472595 31.32414734 -1.13571167 30.37631226 C-1.13638878 28.44504731 -1.13456738 26.51378003 -1.13037109 24.58251953 C-1.12497922 21.61355571 -1.13035075 18.64474064 -1.13671875 15.67578125 C-1.13605861 13.79687466 -1.13477877 11.91796817 -1.1328125 10.0390625 C-1.13483673 9.14748444 -1.13686096 8.25590637 -1.13894653 7.33731079 C-1.1149747 1.1149747 -1.1149747 1.1149747 0 0 Z " fill="#00274D" transform="translate(679,506)"/>
<path d="M0 0 C5.99263689 4.52043003 5.99263689 4.52043003 7.35546875 7.24609375 C6.69546875 7.90609375 6.03546875 8.56609375 5.35546875 9.24609375 C4.77152344 8.55773437 4.77152344 8.55773437 4.17578125 7.85546875 C-1.53813288 1.58859519 -7.19714611 -1.50703048 -15.71484375 -2.1328125 C-26.2762663 -2.57507722 -34.56129732 -1.26121563 -43.01953125 5.49609375 C-48.29957296 10.46742334 -50.58836701 16.39221295 -52.64453125 23.24609375 C-53.76953125 21.62109375 -53.76953125 21.62109375 -54.64453125 19.24609375 C-53.56760431 14.39992254 -51.17284725 10.45995375 -48.64453125 6.24609375 C-47.98453125 6.24609375 -47.32453125 6.24609375 -46.64453125 6.24609375 C-46.64453125 5.58609375 -46.64453125 4.92609375 -46.64453125 4.24609375 C-45.98453125 4.24609375 -45.32453125 4.24609375 -44.64453125 4.24609375 C-44.64453125 3.58609375 -44.64453125 2.92609375 -44.64453125 2.24609375 C-31.31085806 -7.62672664 -14.14142415 -9.37887658 0 0 Z " fill="#002D57" transform="translate(502.64453125,509.75390625)"/>
<path d="M0 0 C4.19209213 2.2010767 6.66562497 5.15035801 8.79296875 9.31640625 C7.79296875 12.31640625 7.79296875 12.31640625 6.79296875 14.31640625 C-3.43703125 14.31640625 -13.66703125 14.31640625 -24.20703125 14.31640625 C-25.20703125 10.31640625 -25.20703125 10.31640625 -23.58203125 7.31640625 C-17.36906842 -0.53154679 -9.78702209 -3.03137852 0 0 Z M-20.58203125 6.87890625 C-22.39193132 9.10550461 -22.39193132 9.10550461 -22.20703125 11.31640625 C-12.96703125 11.31640625 -3.72703125 11.31640625 5.79296875 11.31640625 C4.72856754 7.05880142 4.00944561 6.07338642 0.79296875 3.31640625 C-6.57639383 -1.02487443 -14.87354496 0.71974999 -20.58203125 6.87890625 Z " fill="#03345C" transform="translate(490.20703125,520.68359375)"/>
<path d="M0 0 C2.69391336 2.89102897 3.67551192 4.93595126 4.5625 8.75 C1.5625 7.75 1.5625 7.75 -0.3125 4.8125 C-2.67035282 1.41441799 -3.47178924 0.63126906 -7.4375 -0.25 C-13.13394026 -0.83019299 -17.5985464 -0.62601414 -22.4375 2.75 C-23.80995083 4.72336173 -25.14825726 6.72129821 -26.4375 8.75 C-25.67083008 8.73952637 -24.90416016 8.72905273 -24.11425781 8.71826172 C-20.63870526 8.67667301 -17.16320509 8.65066449 -13.6875 8.625 C-12.4809375 8.60824219 -11.274375 8.59148438 -10.03125 8.57421875 C-8.87109375 8.56777344 -7.7109375 8.56132813 -6.515625 8.5546875 C-5.44731445 8.54421387 -4.37900391 8.53374023 -3.27832031 8.52294922 C-0.45770895 8.74838481 1.17037463 9.29151006 3.5625 10.75 C3.5625 11.08 3.5625 11.41 3.5625 11.75 C-6.9975 11.75 -17.5575 11.75 -28.4375 11.75 C-29.4375 7.75 -29.4375 7.75 -27.8125 4.75 C-24.0284223 -0.02988762 -20.73090315 -2.77817406 -14.6171875 -4.05859375 C-9.24285677 -4.53053319 -4.318595 -3.2468269 0 0 Z " fill="#003159" transform="translate(909.4375,523.25)"/>
<path d="M0 0 C0.66 0.99 1.32 1.98 2 3 C-3.23239249 10.72400796 -8.53348193 16.02378546 -17.73046875 18.49609375 C-28.42634953 20.14456283 -41.01328255 20.61983977 -51 16 C-51.69609375 15.68675781 -52.3921875 15.37351562 -53.109375 15.05078125 C-55.89631449 13.64058987 -57.70977758 12.69653381 -58.9375 9.75 C-58.958125 9.1725 -58.97875 8.595 -59 8 C-57.05406895 8.95799683 -55.13066315 9.92550163 -53.24609375 11 C-42.47085249 16.95780078 -29.6051909 17.23214942 -17.7421875 14.8125 C-9.9964629 12.51747049 -4.5994587 8.64176189 -0.7421875 1.5390625 C-0.49726562 1.03117188 -0.25234375 0.52328125 0 0 Z " fill="#003057" transform="translate(593,556)"/>
<path d="M0 0 C2 3 2 3 2.125 5.9375 C2.72925571 9.28268239 2.72925571 9.28268239 6 11.0625 C10.28323318 12.9344886 14.76054571 14.11095008 19.25 15.375 C30.10382397 18.45044697 40.71494126 21.95204201 47 32 C47.95609932 34.73607145 48.19604875 35.529483 47.0625 38.25 C46.5365625 39.11625 46.5365625 39.11625 46 40 C45.54625 38.7625 45.0925 37.525 44.625 36.25 C42.36706211 29.78277346 42.36706211 29.78277346 37 26 C36.32066406 25.65582031 35.64132812 25.31164062 34.94140625 24.95703125 C27.63499203 21.44179419 20.08836823 18.95834205 12.34985352 16.5871582 C7.50284557 15.05143279 3.69921535 13.6617739 0 10 C-1.49106457 7.01787087 -1.11941467 4.28390342 -1 1 C-0.67 0.67 -0.34 0.34 0 0 Z " fill="#002E58" transform="translate(548,502)"/>
<path d="M0 0 C1.0625 1.8125 1.0625 1.8125 2 4 C1.67 4.99 1.34 5.98 1 7 C0.32483646 15.51148786 0.26678838 23.62407856 5 31 C8.52598776 34.88003161 12.24351599 37.79163242 17 40 C17 40.66 17 41.32 17 42 C17.66 42.33 18.32 42.66 19 43 C12.42943874 41.97226722 7.29076403 38.90713486 3.15625 33.66015625 C-2.19177914 25.15311969 -4.02696722 17.03153485 -3 7 C-2.22958558 4.42601425 -1.27196396 2.38493242 0 0 Z " fill="#01385F" transform="translate(254,513)"/>
<path d="M0 0 C2.36288777 0.67886976 3.6997056 1.51427711 4.99951172 3.61669922 C6.37565563 6.42954572 7.64820909 9.2818126 8.91210938 12.14648438 C10.92146908 16.47037282 12.35266914 19.14816282 17 21 C21.58830992 21.73126189 25.71620327 21.60092613 29.9375 19.625 C30.618125 19.08875 31.29875 18.5525 32 18 C32.99 17.34 33.98 16.68 35 16 C35 18.25 35 18.25 34 21 C29.0514574 24.86257814 24.09866487 25.68855894 18 25 C10.21447202 22.2521666 6.5793918 15.81831316 3.1875 8.75 C2.87619141 8.12609375 2.56488281 7.5021875 2.24414062 6.859375 C0 2.28231456 0 2.28231456 0 0 Z " fill="#AC0940" transform="translate(164,549)"/>
<path d="M0 0 C1.32 0 2.64 0 4 0 C7.74137529 3.74137529 8.31704116 6.74646758 8.5 12 C8.31000458 17.11720994 7.62833663 20.18069828 4 24 C-2.67052853 29.71759588 -11.4848855 30.60822246 -20 30 C-20.66 29.34 -21.32 28.68 -22 28 C-20.69804687 27.82984375 -19.39609375 27.6596875 -18.0546875 27.484375 C-16.32801109 27.24038812 -14.60145461 26.99555146 -12.875 26.75 C-12.0190625 26.64042969 -11.163125 26.53085937 -10.28125 26.41796875 C-4.83523453 25.62201264 -1.27208959 24.52177006 3 21 C5.32664593 17.08700456 5.39335225 13.48421565 5 9 C3.60393771 5.70021641 1.98626466 2.979397 0 0 Z " fill="#A30A3C" transform="translate(212,488)"/>
<path d="M0 0 C0.66 0.99 1.32 1.98 2 3 C0.77023438 4.12148438 0.77023438 4.12148438 -0.484375 5.265625 C-1.57296139 6.26036773 -2.66150055 7.25516213 -3.75 8.25 C-4.28882812 8.74113281 -4.82765625 9.23226562 -5.3828125 9.73828125 C-7.74352546 11.89746993 -10.04829709 14.05029559 -12.265625 16.359375 C-14 18 -14 18 -16 18 C-18.35108558 21.70821628 -18.43155058 25.48605238 -18.625 29.75 C-18.66367188 30.44738281 -18.70234375 31.14476562 -18.7421875 31.86328125 C-18.83598624 33.57510818 -18.91906174 35.28751682 -19 37 C-22.24316608 33.75683392 -22.15117225 30.66313525 -22.328125 26.23046875 C-21.42182639 20.06979608 -17.5408844 16.11509398 -13.25 12 C-12.71793945 11.47889648 -12.18587891 10.95779297 -11.63769531 10.42089844 C-7.89234904 6.78028525 -4.04366379 3.30845219 0 0 Z " fill="#C91725" transform="translate(131,529)"/>
<path d="M0 0 C2.18152085 3.27228127 2.40566799 5.03414008 2.875 8.875 C3.8053194 15.30149072 3.8053194 15.30149072 8 20 C10.83445052 20.68819992 13.16696736 20.69951423 16 20 C20.75568001 16.24551578 21.16094247 10.6857188 22 5 C22.33 5 22.66 5 23 5 C24.18741115 10.0788279 24.59326474 13.82237762 21.875 18.4375 C19.60887317 21.56276282 17.93692461 23.3438459 14 24 C9.94353585 23.92756314 7.64572438 23.42559107 4.25 21.1875 C0.42819718 15.77327934 -1.41114478 9.23309304 -0.5703125 2.62109375 C-0.38210937 1.75613281 -0.19390625 0.89117187 0 0 Z " fill="#D0111E" transform="translate(144,482)"/>
<path d="M0 0 C2.97922593 -0.02683987 5.95821295 -0.04676037 8.9375 -0.0625 C9.78763672 -0.07087891 10.63777344 -0.07925781 11.51367188 -0.08789062 C12.32255859 -0.09111328 13.13144531 -0.09433594 13.96484375 -0.09765625 C14.7137085 -0.10289307 15.46257324 -0.10812988 16.23413086 -0.11352539 C18 0 18 0 19 1 C19.13229376 2.36951266 19.19869041 3.74549718 19.23706055 5.12084961 C19.27666145 6.43242287 19.27666145 6.43242287 19.31706238 7.77049255 C19.35154228 9.1970089 19.35154228 9.1970089 19.38671875 10.65234375 C19.41224319 11.62281143 19.43776764 12.59327911 19.46406555 13.59315491 C19.51617323 15.6501735 19.56558796 17.70726177 19.61254883 19.7644043 C19.68710554 22.92080041 19.77773174 26.07647463 19.86914062 29.23242188 C19.91765551 31.22653869 19.9652135 33.22067906 20.01171875 35.21484375 C20.04077805 36.16383041 20.06983734 37.11281708 20.09977722 38.09056091 C20.12519341 39.40686241 20.12519341 39.40686241 20.15112305 40.74975586 C20.17031296 41.5239537 20.18950287 42.29815155 20.20927429 43.09580994 C20 45 20 45 18 47 C16.08330862 41.40365366 15.79160256 36.66772299 16.0234375 30.78515625 C16.04846344 29.92941513 16.07348938 29.07367401 16.09927368 28.19200134 C16.18088461 25.48172861 16.27769851 22.77225019 16.375 20.0625 C16.43329991 18.21552634 16.49060181 16.36852089 16.546875 14.52148438 C16.68451723 10.01370135 16.8427435 5.50731134 17 1 C11.39 1 5.78 1 0 1 C0 0.67 0 0.34 0 0 Z " fill="#003F5F" transform="translate(680,506)"/>
<path d="M0 0 C0.33 0.66 0.66 1.32 1 2 C3.97 2 6.94 2 10 2 C10 2.33 10 2.66 10 3 C9.27554688 3.02578125 8.55109375 3.0515625 7.8046875 3.078125 C1.65850466 3.43870106 -2.29969803 3.91815882 -7 8 C-8.25248502 10.50497004 -8.11374406 12.20853274 -8.09765625 15.0078125 C-8.09443359 15.99394531 -8.09121094 16.98007812 -8.08789062 17.99609375 C-8.07951172 19.02863281 -8.07113281 20.06117188 -8.0625 21.125 C-8.05798828 22.16527344 -8.05347656 23.20554687 -8.04882812 24.27734375 C-8.03701952 26.85161962 -8.02055075 29.42578146 -8 32 C-8.33 31.01 -8.66 30.02 -9 29 C-9.66 29 -10.32 29 -11 29 C-13.82608696 13.32608696 -13.82608696 13.32608696 -11 8 C-7.70826247 4.49589231 -4.60008445 1.53336148 0 0 Z " fill="#C81719" transform="translate(152,449)"/>
<path d="M0 0 C3 1 3 1 4.8125 4.375 C6.90115496 8.19896603 8.74911569 9.63650881 13 11 C17.76668888 11.68462318 21.00994407 11.52304841 25.3125 9.25 C27.68301707 7.26538106 29.89694446 5.26482905 32 3 C32.495 4.485 32.495 4.485 33 6 C30.14307089 10.84435806 26.17643502 13.17703701 21 15 C15.10324454 15.84239364 10.82210009 14.28549796 6 11 C2.52107321 7.86467091 0.42014847 4.76168266 0 0 Z " fill="#003057" transform="translate(813,544)"/>
<path d="M0 0 C2 3 2 3 3.41015625 5.63671875 C10.16524276 18.10887611 17.96863016 23.68271772 31 29 C29.2890625 30.11328125 29.2890625 30.11328125 27 31 C16.47162903 28.24784689 7.80541583 19.00850159 2.15625 10.140625 C0.88590031 7.78876139 -0.17848579 5.54669404 -1 3 C-0.67 2.01 -0.34 1.02 0 0 Z " fill="#002F57" transform="translate(237,542)"/>
<path d="M0 0 C0.66 0 1.32 0 2 0 C2 14.52 2 29.04 2 44 C2.66 44 3.32 44 4 44 C4 45.65 4 47.3 4 49 C3.01 48.67 2.02 48.34 1 48 C0.04604227 42.40498837 -0.13165114 37.01664336 -0.09765625 31.34765625 C-0.0962413 30.44752304 -0.09482635 29.54738983 -0.09336853 28.61997986 C-0.0878066 25.76745163 -0.07526127 22.91500419 -0.0625 20.0625 C-0.05748008 18.11914176 -0.05291803 16.17578229 -0.04882812 14.23242188 C-0.03784966 9.4882505 -0.02061153 4.74413891 0 0 Z " fill="#001B68" transform="translate(678,508)"/>
<path d="M0 0 C4.58328022 -0.05802751 9.16646604 -0.09360593 13.75 -0.125 C15.05195312 -0.14175781 16.35390625 -0.15851562 17.6953125 -0.17578125 C18.94570313 -0.18222656 20.19609375 -0.18867187 21.484375 -0.1953125 C22.63647461 -0.20578613 23.78857422 -0.21625977 24.97558594 -0.22705078 C27.89892966 -0.00758762 29.53732509 0.47271878 32 2 C32 2.33 32 2.66 32 3 C21.44 3 10.88 3 0 3 C0 2.01 0 1.02 0 0 Z " fill="#05395E" transform="translate(881,532)"/>
<path d="M0 0 C2.08450753 2.70191298 3.90686411 5.46679811 5.6875 8.375 C9.69764253 14.43011572 14.99477937 18.81086855 22 21 C21.67 21.99 21.34 22.98 21 24 C11.17783904 19.81350516 3.40546686 13.96018595 -1 4 C-0.75 1.5625 -0.75 1.5625 0 0 Z " fill="#012E57" transform="translate(604,550)"/>
<path d="M0 0 C5.66244885 0.2053178 8.5491379 3.99262678 12.25 7.8125 C12.88679687 8.44220703 13.52359375 9.07191406 14.1796875 9.72070312 C19.40207203 15.01531213 19.40207203 15.01531213 20 19 C19.66015625 21.578125 19.66015625 21.578125 19.0625 24.25 C18.86785156 25.14203125 18.67320312 26.0340625 18.47265625 26.953125 C18.31667969 27.62859375 18.16070312 28.3040625 18 29 C17.08811303 26.26433909 16.9446124 24.62185776 16.875 21.8125 C16.30135969 16.04788504 13.15147925 12.79907625 9 9 C8.26394531 8.47148438 7.52789062 7.94296875 6.76953125 7.3984375 C6.18558594 6.93695312 5.60164062 6.47546875 5 6 C5 5.34 5 4.68 5 4 C4.360625 3.71125 3.72125 3.4225 3.0625 3.125 C1 2 1 2 0 0 Z " fill="#A90D42" transform="translate(183,534)"/>
<path d="M0 0 C0.99290126 2.97870377 1.05524548 4.59182885 0.87890625 7.66796875 C0.83056641 8.56064453 0.78222656 9.45332031 0.73242188 10.37304688 C0.67634766 11.30181641 0.62027344 12.23058594 0.5625 13.1875 C0.51029297 14.12787109 0.45808594 15.06824219 0.40429688 16.03710938 C0.27468082 18.35841501 0.13971819 20.67928409 0 23 C-0.99 23 -1.98 23 -3 23 C-4.6445423 16.62739858 -4.66690794 9.36455758 -3 3 C-1.4375 1.125 -1.4375 1.125 0 0 Z " fill="#03375C" transform="translate(327,526)"/>
<path d="M0 0 C0.33 0 0.66 0 1 0 C1.495 5.94 1.495 5.94 2 12 C0.68 12.33 -0.64 12.66 -2 13 C-2 12.34 -2 11.68 -2 11 C-17.51 11 -33.02 11 -49 11 C-49 10.67 -49 10.34 -49 10 C-32.83 10 -16.66 10 0 10 C0 6.7 0 3.4 0 0 Z " fill="#002A50" transform="translate(930,535)"/>
<path d="M0 0 C0.66 0 1.32 0 2 0 C2 5.94 2 11.88 2 18 C-1.63 18 -5.26 18 -9 18 C-8.505 16.515 -8.505 16.515 -8 15 C-5.69 15 -3.38 15 -1 15 C-0.67 10.05 -0.34 5.1 0 0 Z " fill="#073B61" transform="translate(792,508)"/>
<path d="M0 0 C0.495 1.98 0.495 1.98 1 4 C-4.76173683 7.06475363 -8.62740199 7.19937786 -15 6 C-15 5.34 -15 4.68 -15 4 C-15.86882812 3.93941406 -16.73765625 3.87882813 -17.6328125 3.81640625 C-18.78523438 3.73261719 -19.93765625 3.64882813 -21.125 3.5625 C-22.26195313 3.48128906 -23.39890625 3.40007813 -24.5703125 3.31640625 C-27.7540478 3.02269035 -30.85510907 2.56875687 -34 2 C-34 1.67 -34 1.34 -34 1 C-31.79142945 1.14219564 -29.58315013 1.28891847 -27.375 1.4375 C-26.14523438 1.51871094 -24.91546875 1.59992187 -23.6484375 1.68359375 C-20 2 -20 2 -16.89453125 2.51953125 C-13.99776834 3.00037044 -11.24686745 3.20088925 -8.3125 3.25 C-7.38050781 3.27578125 -6.44851562 3.3015625 -5.48828125 3.328125 C-2.60489106 2.94789772 -1.76675948 2.24537994 0 0 Z " fill="#C61317" transform="translate(143,514)"/>
<path d="M0 0 C-3 2 -3 2 -5.625 3.125 C-10.3543153 5.75239739 -14.06459744 9.31821227 -18 13 C-18.66 12.34 -19.32 11.68 -20 11 C-15.41971583 4.58760217 -8.35447342 -2.52126073 0 0 Z " fill="#002B4D" transform="translate(821,507)"/>
<path d="M0 0 C1.485 0.99 1.485 0.99 3 2 C3.4765625 4.9765625 3.4765625 4.9765625 3.625 8.625 C3.88614673 13.80529831 4.28117286 18.86552044 5 24 C1.85884993 21.42996812 1.04023727 18.87398707 0 15 C-0.13474123 12.33212358 -0.19197861 9.78353559 -0.125 7.125 C-0.11146484 6.09246094 -0.11146484 6.09246094 -0.09765625 5.0390625 C-0.07432513 3.35922162 -0.03846326 1.67956254 0 0 Z " fill="#013860" transform="translate(862,533)"/>
<path d="M0 0 C0.33 0 0.66 0 1 0 C2.19254128 5.10077063 2.57750692 8.85269838 -0.125 13.5 C-1.8607739 15.90521838 -2.68571401 16.86300354 -5.4375 18.0625 C-8.37573907 17.99083563 -11.12470667 17.60180558 -14 17 C-14 16.67 -14 16.34 -14 16 C-12.7625 15.938125 -11.525 15.87625 -10.25 15.8125 C-7.14008596 15.39491437 -6.13594246 15.11090042 -3.625 13.0625 C-1.39835826 8.86613671 -0.68906518 4.66932323 0 0 Z " fill="#C01223" transform="translate(166,487)"/>
<path d="M0 0 C6.93 0 13.86 0 21 0 C21.33 0.66 21.66 1.32 22 2 C19.06328811 2.3622244 16.12596806 2.71508387 13.1875 3.0625 C12.35412109 3.16626953 11.52074219 3.27003906 10.66210938 3.37695312 C9.85966797 3.47041016 9.05722656 3.56386719 8.23046875 3.66015625 C7.49207764 3.74918213 6.75368652 3.83820801 5.99291992 3.92993164 C4 4 4 4 1 3 C0.67 2.01 0.34 1.02 0 0 Z " fill="#B50831" transform="translate(171,517)"/>
<path d="M0 0 C7.48116133 0.28230797 12.65074114 3.18344183 19 7 C19 7.33 19 7.66 19 8 C12.58800774 7.37137331 12.58800774 7.37137331 9.625 5.5 C5.89939969 3.37108554 2.22695607 3.26706258 -2 3 C-1.34 2.67 -0.68 2.34 0 2 C0 1.34 0 0.68 0 0 Z " fill="#D11B15" transform="translate(106,483)"/>
<path d="M0 0 C3.35898172 3.35898172 3.94588921 6.98921038 4.1953125 11.6484375 C4.17210937 12.87820313 4.14890625 14.10796875 4.125 15.375 C4.10695313 16.62023437 4.08890625 17.86546875 4.0703125 19.1484375 C4.04710937 20.08945312 4.02390625 21.03046875 4 22 C3.01 22 2.02 22 1 22 C0.67 14.74 0.34 7.48 0 0 Z " fill="#04365E" transform="translate(928,523)"/>
<path d="M0 0 C4.00600917 2.25338016 7.59476643 4.90075737 11.23046875 7.6953125 C12.97222535 9.05729524 12.97222535 9.05729524 15 10 C15 10.66 15 11.32 15 12 C15.66 12.33 16.32 12.66 17 13 C13.15259032 12.43580388 10.58601559 11.36679752 7.375 9.1875 C6.61960937 8.68605469 5.86421875 8.18460938 5.0859375 7.66796875 C2.93416342 5.94735539 1.47740158 4.31961458 0 2 C0 1.34 0 0.68 0 0 Z " fill="#002B53" transform="translate(256,543)"/>
<path d="M0 0 C1.32 0 2.64 0 4 0 C7.02154523 3.02154523 7.90103059 4.78453188 8.25 9.0703125 C8.25 12.05726823 8.17368354 15.01843257 8 18 C7.34 18.33 6.68 18.66 6 19 C5.85304687 17.69675781 5.85304687 17.69675781 5.703125 16.3671875 C4.57863906 7.46057877 4.57863906 7.46057877 0 0 Z " fill="#AE1243" transform="translate(212,488)"/>
<path d="M0 0 C3 2 3 2 3.8125 5.875 C4.1221501 9.15014529 3.96077495 11.23184713 2 14 C0 12 0 12 -0.1953125 9.1796875 C-0.17210937 8.08914063 -0.14890625 6.99859375 -0.125 5.875 C-0.10695312 4.77929688 -0.08890625 3.68359375 -0.0703125 2.5546875 C-0.04710937 1.71164062 -0.02390625 0.86859375 0 0 Z " fill="#CB1D2A" transform="translate(143,502)"/>
<path d="M0 0 C-1.8789173 2.19207019 -3.3481593 3.16682633 -6 4.4375 C-9.0435422 6.02267823 -10.10103149 7.24649566 -12 10 C-12.66 10 -13.32 10 -14 10 C-14.33 10.66 -14.66 11.32 -15 12 C-14.9158797 9.13990965 -14.43181261 7.45351173 -12.4453125 5.3671875 C-8.16298579 1.68900647 -5.77235069 -0.15190397 0 0 Z " fill="#002F53" transform="translate(787,524)"/>
<path d="M0 0 C2.06363681 4.12727362 2.42167583 7.26839651 2.625 11.75 C2.66367187 12.44738281 2.70234375 13.14476562 2.7421875 13.86328125 C2.83598624 15.57510818 2.91906174 17.28751682 3 19 C2.67 18.34 2.34 17.68 2 17 C1.34 17 0.68 17 0 17 C0 11.39 0 5.78 0 0 Z " fill="#002E56" transform="translate(447,531)"/>
<path d="M0 0 C1.890625 0.6796875 1.890625 0.6796875 4 2 C5.046875 4.3828125 5.046875 4.3828125 5.75 7.125 C5.99234375 8.03507813 6.2346875 8.94515625 6.484375 9.8828125 C6.73960937 10.93082031 6.73960937 10.93082031 7 12 C6.01 12.33 5.02 12.66 4 13 C3.32942113 11.2097939 2.6636531 9.41778511 2 7.625 C1.62875 6.62726562 1.2575 5.62953125 0.875 4.6015625 C0 2 0 2 0 0 Z " fill="#002E50" transform="translate(510,520)"/>
<path d="M0 0 C0.33 0 0.66 0 1 0 C1.0270491 3.06255961 1.04686298 6.1248786 1.0625 9.1875 C1.07087891 10.05181641 1.07925781 10.91613281 1.08789062 11.80664062 C1.10396812 16.00286769 1.07559038 19.90936886 0 24 C-0.66 23.67 -1.32 23.34 -2 23 C-1.93941406 22.34515625 -1.87882813 21.6903125 -1.81640625 21.015625 C-1.17354344 14.01336547 -0.57484003 7.00815611 0 0 Z " fill="#BD1521" transform="translate(170,460)"/>
<path d="M0 0 C0.33 1.32 0.66 2.64 1 4 C-2.5486135 6.36574234 -3.5764525 6.10865265 -7.6875 5.625 C-9.17830078 5.45871094 -9.17830078 5.45871094 -10.69921875 5.2890625 C-11.45847656 5.19367187 -12.21773437 5.09828125 -13 5 C-13 4.67 -13 4.34 -13 4 C-12.31292969 3.96261719 -11.62585938 3.92523437 -10.91796875 3.88671875 C-10.01691406 3.82097656 -9.11585938 3.75523437 -8.1875 3.6875 C-7.29417969 3.62949219 -6.40085938 3.57148437 -5.48046875 3.51171875 C-2.69396 2.93686419 -1.75864246 2.1793144 0 0 Z " fill="#BE0F1C" transform="translate(143,514)"/>
<path d="M0 0 C4.56454251 0.54339792 7.9728176 1.79463821 12 4 C10.265625 5.14453125 10.265625 5.14453125 8 6 C5.859375 5.13671875 5.859375 5.13671875 3.75 3.6875 C3.04359375 3.21699219 2.3371875 2.74648438 1.609375 2.26171875 C1.07828125 1.84535156 0.5471875 1.42898438 0 1 C0 0.67 0 0.34 0 0 Z " fill="#003152" transform="translate(847,550)"/>
<path d="M0 0 C0.9827968 2.94839041 1 4.94130972 1 8 C1.33 8.66 1.66 9.32 2 10 C1.66015625 11.9453125 1.66015625 11.9453125 1.0625 14.125 C0.86785156 14.84945313 0.67320312 15.57390625 0.47265625 16.3203125 C0.31667969 16.87460937 0.16070312 17.42890625 0 18 C-0.33 18 -0.66 18 -1 18 C-1.02690844 15.37493198 -1.04679404 12.75013827 -1.0625 10.125 C-1.07087891 9.37863281 -1.07925781 8.63226563 -1.08789062 7.86328125 C-1.11328125 2.2265625 -1.11328125 2.2265625 0 0 Z " fill="#CE1D2C" transform="translate(168,475)"/>
<path d="M0 0 C2.04136395 -0.05451714 4.08315856 -0.09302485 6.125 -0.125 C7.83042969 -0.15980469 7.83042969 -0.15980469 9.5703125 -0.1953125 C13.05757767 0.00327891 15.7553862 0.7475199 19 2 C16.24921116 2.91692961 14.64051087 3.10886083 11.8125 3.0625 C9.9253125 3.0315625 9.9253125 3.0315625 8 3 C8 2.67 8 2.34 8 2 C5.36 1.67 2.72 1.34 0 1 C0 0.67 0 0.34 0 0 Z " fill="#003664" transform="translate(556,479)"/>
<path d="M0 0 C2.26954631 3.40431947 2.36549949 5.16524202 2.625 9.1875 C2.69976562 10.27417969 2.77453125 11.36085938 2.8515625 12.48046875 C2.92503906 13.72763672 2.92503906 13.72763672 3 15 C2.67 13.68 2.34 12.36 2 11 C1.34 11 0.68 11 0 11 C-1.05404945 7.01803543 -0.84098656 4.01804691 0 0 Z " fill="#C5151B" transform="translate(144,482)"/>
<path d="M0 0 C5.37992836 0.33990833 9.53273547 0.68557793 14 4 C10.25 5.125 10.25 5.125 8 4 C8 3.34 8 2.68 8 2 C5.69 2 3.38 2 1 2 C0.67 1.34 0.34 0.68 0 0 Z " fill="#C40B34" transform="translate(201,483)"/>
<path d="M0 0 C2.64 1.32 5.28 2.64 8 4 C8 4.99 8 5.98 8 7 C4.40608886 5.66511872 1.24509304 4.03977277 -2 2 C-1.34 1.34 -0.68 0.68 0 0 Z " fill="#002849" transform="translate(309,544)"/>
<path d="M0 0 C4.29 0.33 8.58 0.66 13 1 C13 1.33 13 1.66 13 2 C11.35 2 9.7 2 8 2 C8 2.66 8 3.32 8 4 C5.69 3.67 3.38 3.34 1 3 C0.67 2.01 0.34 1.02 0 0 Z " fill="#A50329" transform="translate(171,517)"/>
<path d="M0 0 C4.55737263 0.43820891 7.57653445 0.85041169 11 4 C9.4375 4.75 9.4375 4.75 7 5 C4.49713591 3.86915563 2.32992278 2.47860484 0 1 C0 0.67 0 0.34 0 0 Z " fill="#002B4E" transform="translate(808,568)"/>
<path d="M0 0 C3.94139078 1.66751148 6.7892812 4.22710649 10 7 C8.3125 7.75 8.3125 7.75 6 8 C3.12615149 6.19549047 1.35637 4.98687077 0.1875 1.75 C0.125625 1.1725 0.06375 0.595 0 0 Z " fill="#B50C36" transform="translate(176,526)"/>
<path d="M0 0 C0.66 0.33 1.32 0.66 2 1 C0.13022903 3.44710376 -0.82502483 3.96931493 -3.91796875 4.51171875 C-5.53638672 4.59873047 -5.53638672 4.59873047 -7.1875 4.6875 C-8.27417969 4.75324219 -9.36085938 4.81898438 -10.48046875 4.88671875 C-11.72763672 4.94279297 -11.72763672 4.94279297 -13 5 C-13 4.67 -13 4.34 -13 4 C-12.22914063 3.79503906 -11.45828125 3.59007812 -10.6640625 3.37890625 C-9.66117187 3.10949219 -8.65828125 2.84007812 -7.625 2.5625 C-6.62726563 2.29566406 -5.62953125 2.02882813 -4.6015625 1.75390625 C-2.04582299 1.09815644 -2.04582299 1.09815644 0 0 Z " fill="#003760" transform="translate(295,551)"/>
<path d="M0 0 C0.2475 0.61875 0.495 1.2375 0.75 1.875 C1.82396211 4.15001528 1.82396211 4.15001528 4.0625 5 C6 6 6 6 6.75 8.125 C6.8325 8.74375 6.915 9.3625 7 10 C3.17398693 8.54875366 1.77670876 6.64225296 0 3 C0 2.01 0 1.02 0 0 Z " fill="#002D4E" transform="translate(465,546)"/>
<path d="M0 0 C0.66 0.99 1.32 1.98 2 3 C1.690625 3.495 1.38125 3.99 1.0625 4.5 C-0.41644382 7.97986781 -0.62402851 11.24028509 -1 15 C-1.33 15 -1.66 15 -2 15 C-2.05429959 13.25034642 -2.09292823 11.50020213 -2.125 9.75 C-2.15980469 8.28820312 -2.15980469 8.28820312 -2.1953125 6.796875 C-1.99862781 3.9803502 -1.44568916 2.39050964 0 0 Z " fill="#002D51" transform="translate(621,530)"/>
<path d="M0 0 C0.33 0 0.66 0 1 0 C1.27429625 5.39449293 1.36055646 8.51925805 -2 13 C-2.93423645 9.98968256 -3.04449911 9.13349732 -2 6 C-1.34 6 -0.68 6 0 6 C0 4.02 0 2.04 0 0 Z " fill="#C61530" transform="translate(153,531)"/>
<path d="M0 0 C0.66 0.66 1.32 1.32 2 2 C1.9765625 5.0390625 1.9765625 5.0390625 1.625 8.625 C1.51414062 9.81351563 1.40328125 11.00203125 1.2890625 12.2265625 C1.19367187 13.14179687 1.09828125 14.05703125 1 15 C0.67 15 0.34 15 0 15 C-0.19517554 13.06325815 -0.38087873 11.12555991 -0.5625 9.1875 C-0.66691406 8.10855469 -0.77132812 7.02960937 -0.87890625 5.91796875 C-1 3 -1 3 0 0 Z " fill="#002B4F" transform="translate(863,528)"/>
<path d="M0 0 C0.33 0 0.66 0 1 0 C1.35050464 5.841744 1.16727335 9.8531808 -2 15 C-2.33 15 -2.66 15 -3 15 C-3 13.35 -3 11.7 -3 10 C-2.34 10 -1.68 10 -1 10 C-0.67 6.7 -0.34 3.4 0 0 Z " fill="#BE1145" transform="translate(202,553)"/>
<path d="M0 0 C0.33 0 0.66 0 1 0 C1.18175781 0.90492188 1.18175781 0.90492188 1.3671875 1.828125 C1.53476563 2.62734375 1.70234375 3.4265625 1.875 4.25 C2.03742188 5.03890625 2.19984375 5.8278125 2.3671875 6.640625 C2.99150075 8.96831144 3.84838542 10.89031952 5 13 C1.125 11.125 1.125 11.125 0 10 C-0.07205511 8.31391034 -0.08386068 6.62499341 -0.0625 4.9375 C-0.05347656 4.01839844 -0.04445312 3.09929687 -0.03515625 2.15234375 C-0.02355469 1.44207031 -0.01195312 0.73179687 0 0 Z " fill="#B10A2C" transform="translate(167,506)"/>
<path d="M0 0 C0.66 0 1.32 0 2 0 C2.17942163 3.94727588 2.09350689 6.5980513 0 10 C-0.66 10 -1.32 10 -2 10 C-1.34 6.7 -0.68 3.4 0 0 Z " fill="#DD1415" transform="translate(141,457)"/>
<path d="M0 0 C-2.31 2.31 -4.62 4.62 -7 7 C-7.66 6.67 -8.32 6.34 -9 6 C-4.625 -2.3125 -4.625 -2.3125 0 0 Z " fill="#BC1228" transform="translate(127,537)"/>
<path d="M0 0 C0.66 0.33 1.32 0.66 2 1 C2.59355614 3.64860427 2.74209269 6.29197322 3 9 C2.01 8.67 1.02 8.34 0 8 C-0.38063221 5.6739143 -0.71269945 3.33944736 -1 1 C-0.67 0.67 -0.34 0.34 0 0 Z " fill="#002C53" transform="translate(234,532)"/>
<path d="M0 0 C2.56687367 3.8503105 1.83288724 5.58569763 1 10 C-1 8 -1 8 -1.1875 4.4375 C-1 1 -1 1 0 0 Z " fill="#00274A" transform="translate(548,502)"/>
<path d="M0 0 C6.625 0.75 6.625 0.75 10 3 C6.65155086 4.05236973 5.40920111 4.20005388 2.1875 2.625 C1.465625 2.08875 0.74375 1.5525 0 1 C0 0.67 0 0.34 0 0 Z " fill="#C0100F" transform="translate(97,512)"/>
<path d="M0 0 C0.66 0.33 1.32 0.66 2 1 C2 1.66 2 2.32 2 3 C0.02 3.66 -1.96 4.32 -4 5 C-4.66 4.34 -5.32 3.68 -6 3 C-4.03533587 1.93224776 -2.03144641 0.93446535 0 0 Z " fill="#002A49" transform="translate(502,568)"/>
<path d="M0 0 C3.63 0.66 7.26 1.32 11 2 C11 2.33 11 2.66 11 3 C7.37 3 3.74 3 0 3 C0 2.01 0 1.02 0 0 Z " fill="#00375C" transform="translate(703,555)"/>
<path d="M0 0 C0.763125 0.20625 1.52625 0.4125 2.3125 0.625 C2.6425 1.615 2.9725 2.605 3.3125 3.625 C-1.1425 2.635 -1.1425 2.635 -5.6875 1.625 C-2.6875 -0.375 -2.6875 -0.375 0 0 Z " fill="#002C4C" transform="translate(570.6875,518.375)"/>
<path d="M0 0 C1.0625 1.8125 1.0625 1.8125 2 4 C1.67 4.99 1.34 5.98 1 7 C0.34 7 -0.32 7 -1 7 C-1.33 7.66 -1.66 8.32 -2 9 C-1.125 2.25 -1.125 2.25 0 0 Z " fill="#00294C" transform="translate(254,513)"/>
<path d="M0 0 C-2.98646769 1.99097846 -5.59687262 2.94124926 -9 4 C-6.73455663 -1.01633889 -5.27613404 -1.24961069 0 0 Z " fill="#002A4B" transform="translate(628,507)"/>
<path d="M0 0 C3.375 0.25 3.375 0.25 7 1 C8.4375 3.0625 8.4375 3.0625 9 5 C5.54074837 3.7508258 2.85306797 2.32472205 0 0 Z " fill="#C51315" transform="translate(122,491)"/>
<path d="M0 0 C1.5 1.125 1.5 1.125 3 3 C3.1875 6.1875 3.1875 6.1875 3 9 C2.67 8.01 2.34 7.02 2 6 C1.34 6 0.68 6 0 6 C-0.38218767 4.34385343 -0.71395102 2.67542976 -1 1 C-0.67 0.67 -0.34 0.34 0 0 Z " fill="#CF1014" transform="translate(141,472)"/>
<path d="M0 0 C4 4.625 4 4.625 4 8 C3.34 8 2.68 8 2 8 C-0.1519437 4.77208445 -0.20086443 3.71599191 0 0 Z " fill="#002853" transform="translate(799,554)"/>
<path d="M0 0 C0.99 0.33 1.98 0.66 3 1 C3 3.31 3 5.62 3 8 C2.67 7.34 2.34 6.68 2 6 C1.34 6 0.68 6 0 6 C0 4.02 0 2.04 0 0 Z " fill="#003461" transform="translate(447,542)"/>
<path d="" fill="#FFFFFF" transform="translate(0,0)"/>
<path d="" fill="#FFFFFF" transform="translate(0,0)"/>
<path d="" fill="#80FFFF" transform="translate(0,0)"/>
<path d="" fill="#AAAAFF" transform="translate(0,0)"/>
</svg>
