<?xml version="1.0" encoding="UTF-8"?>
<svg version="1.1" xmlns="http://www.w3.org/2000/svg" width="118" height="56">
<path d="M0 0 C1.98 0.66 3.96 1.32 6 2 C6 2.66 6 3.32 6 4 C6.598125 3.814375 7.19625 3.62875 7.8125 3.4375 C10 3 10 3 13 4 C15.1182079 3.76230794 15.1182079 3.76230794 17 3 C17.33 2.34 17.66 1.68 18 1 C18.99 1 19.98 1 21 1 C21 4.3 21 7.6 21 11 C21.66 11 22.32 11 23 11 C22.67 7.7 22.34 4.4 22 1 C23.32 1 24.64 1 26 1 C25.67 2.65 25.34 4.3 25 6 C25.99 6 26.98 6 28 6 C27.505 3.525 27.505 3.525 27 1 C28.32 1 29.64 1 31 1 C31 2.65 31 4.3 31 6 C31.5775 5.67 32.155 5.34 32.75 5 C35 4 35 4 39 4 C42.17466443 2.75759314 42.17466443 2.75759314 44 0 C47 1 47 1 48 3 C48.99 3 49.98 3 51 3 C51.33 2.34 51.66 1.68 52 1 C52.99 1 53.98 1 55 1 C55.99 2.485 55.99 2.485 57 4 C57.99 4 58.98 4 60 4 C59.67 6.31 59.34 8.62 59 11 C59.66 10.67 60.32 10.34 61 10 C61 7.36 61 4.72 61 2 C63.04425902 0.97787049 64.75419972 0.40832732 67 0 C67.99 0.33 68.98 0.66 70 1 C70 1.99 70 2.98 70 4 C70.763125 4 71.52625 4 72.3125 4 C74.20833333 4 76.10416667 4 78 4 C79.010625 3.814375 80.02125 3.62875 81.0625 3.4375 C85.85161335 2.90537629 90.2425052 3.37779243 95 4 C95.66 3.01 96.32 2.02 97 1 C99.125 0.3125 99.125 0.3125 101 0 C101.495 2.475 101.495 2.475 102 5 C100.35 5.33 98.7 5.66 97 6 C97 8.31 97 10.62 97 13 C93.35017185 15.11093813 91.13026603 14.8890161 86.97265625 14.28515625 C82.32930535 13.83973626 77.68786347 13.99337496 73.02856445 14.12548828 C68.82200092 14.19370023 65.8192597 13.71970283 62 12 C59.2663568 12.29519768 59.2663568 12.29519768 57 13 C56.505 10.03 56.505 10.03 56 7 C56 8.98 56 10.96 56 13 C52.71303767 13.79953138 51.28976808 14.09658936 48 13 C46.41229482 13.08604696 44.8276055 13.23907446 43.25 13.4375 C32.23194051 14.67422096 32.23194051 14.67422096 27 13 C27.33 11.35 27.66 9.7 28 8 C27.01 8 26.02 8 25 8 C25.495 10.475 25.495 10.475 26 13 C21.66666667 13 17.33333333 13 13 13 C11.783125 13.185625 10.56625 13.37125 9.3125 13.5625 C5.01895142 14.13603525 1.26579509 13.68557421 -3 13 C-3.33 11.02 -3.66 9.04 -4 7 C-4 8.98 -4 10.96 -4 13 C-8.86839009 14.13218374 -10.05445816 13.97821674 -15 12 C-15.33 8.37 -15.66 4.74 -16 1 C-14.576875 0.938125 -13.15375 0.87625 -11.6875 0.8125 C-10.48673828 0.76029297 -10.48673828 0.76029297 -9.26171875 0.70703125 C-6.52148416 1.06198392 -5.70828921 1.89366282 -4 4 C-2.68 2.68 -1.36 1.36 0 0 Z M-13 3 C-13 5.64 -13 8.28 -13 11 C-12.01 10.67 -11.02 10.34 -10 10 C-10 8.02 -10 6.04 -10 4 C-10.99 3.67 -11.98 3.34 -13 3 Z M18 3 C19 5 19 5 19 5 Z M52 3 C52 3.99 52 4.98 52 6 C51.34 6 50.68 6 50 6 C50 7.65 50 9.3 50 11 C50.99 11 51.98 11 53 11 C53 8.36 53 5.72 53 3 C52.67 3 52.34 3 52 3 Z M67 3 C66.01 3.66 65.02 4.32 64 5 C64.33 6.32 64.66 7.64 65 9 C65.99 8.01 66.98 7.02 68 6 C67.67 5.01 67.34 4.02 67 3 Z M85 5 C85 6.98 85 8.96 85 11 C85.66 9.68 86.32 8.36 87 7 C86.34 6.34 85.68 5.68 85 5 Z M-8 6 C-8 7.65 -8 9.3 -8 11 C-7.67 11 -7.34 11 -7 11 C-7 9.35 -7 7.7 -7 6 C-7.33 6 -7.66 6 -8 6 Z M-1 6 C-1 7.65 -1 9.3 -1 11 C-0.67 11 -0.34 11 0 11 C0 9.35 0 7.7 0 6 C-0.33 6 -0.66 6 -1 6 Z M3 6 C3 7.98 3 9.96 3 12 C3.33 12 3.66 12 4 12 C4 10.02 4 8.04 4 6 C3.67 6 3.34 6 3 6 Z M6 6 C6 7.65 6 9.3 6 11 C6.66 10.34 7.32 9.68 8 9 C8 8.01 8 7.02 8 6 C7.34 6 6.68 6 6 6 Z M10 6 C10.33 6.66 10.66 7.32 11 8 C11.33 7.34 11.66 6.68 12 6 C11.34 6 10.68 6 10 6 Z M14 6 C15 8 15 8 15 8 Z M43 6 C44 10 44 10 44 10 Z M47 6 C47 7.98 47 9.96 47 12 C47.33 12 47.66 12 48 12 C48 10.02 48 8.04 48 6 C47.67 6 47.34 6 47 6 Z M78 6 C78 7.65 78 9.3 78 11 C78.66 11 79.32 11 80 11 C80 9.35 80 7.7 80 6 C79.34 6 78.68 6 78 6 Z M82 6 C82 7.98 82 9.96 82 12 C82.33 12 82.66 12 83 12 C83 10.02 83 8.04 83 6 C82.67 6 82.34 6 82 6 Z M89 6 C89 7.98 89 9.96 89 12 C89.33 12 89.66 12 90 12 C90 10.02 90 8.04 90 6 C89.67 6 89.34 6 89 6 Z M93 6 C92.67 7.65 92.34 9.3 92 11 C92.66 11 93.32 11 94 11 C94 9.35 94 7.7 94 6 C93.67 6 93.34 6 93 6 Z M18 7 C18 8.32 18 9.64 18 11 C18.33 9.68 18.66 8.36 19 7 C18.67 7 18.34 7 18 7 Z M75 7 C75 8.32 75 9.64 75 11 C75.33 9.68 75.66 8.36 76 7 C75.67 7 75.34 7 75 7 Z M66 8 C67 10 67 10 67 10 Z M70 8 C71 12 71 12 71 12 Z M10 9 C11.485 9.99 11.485 9.99 13 11 C13 10.34 13 9.68 13 9 C12.01 9 11.02 9 10 9 Z M33 9 C33.33 9.66 33.66 10.32 34 11 C34.66 10.34 35.32 9.68 36 9 C35.01 9 34.02 9 33 9 Z M-9 11 C-8 13 -8 13 -8 13 Z " fill="#143668" transform="translate(16,41)"/>
<path d="M0 0 C0.33 9.24 0.66 18.48 1 28 C0.34 28 -0.32 28 -1 28 C-2.07525194 30.65228812 -3.09456151 33.28368454 -4 36 C-6.64 36 -9.28 36 -12 36 C-12.268125 35.4225 -12.53625 34.845 -12.8125 34.25 C-13.91006625 31.96953824 -13.91006625 31.96953824 -15.5559082 30.18457031 C-17.33007854 27.50066901 -17.34863725 25.98853588 -17.29296875 22.796875 C-17.28330078 21.8171875 -17.27363281 20.8375 -17.26367188 19.828125 C-17.2259668 18.30445313 -17.2259668 18.30445313 -17.1875 16.75 C-17.17396484 15.71875 -17.16042969 14.6875 -17.14648438 13.625 C-17.11117607 11.08280208 -17.06186036 8.54166777 -17 6 C-15.11076602 4.98758753 -13.21330056 3.99052575 -11.3125 3 C-10.25675781 2.443125 -9.20101562 1.88625 -8.11328125 1.3125 C-5 0 -5 0 0 0 Z M-3 2 C-3 9.59 -3 17.18 -3 25 C-2.67 25 -2.34 25 -2 25 C-2 17.41 -2 9.82 -2 2 C-2.33 2 -2.66 2 -3 2 Z M-6 4 C-6 10.93 -6 17.86 -6 25 C-5.67 25 -5.34 25 -5 25 C-5 18.07 -5 11.14 -5 4 C-5.33 4 -5.66 4 -6 4 Z M-9 5 C-9 11.6 -9 18.2 -9 25 C-8.67 25 -8.34 25 -8 25 C-8 18.4 -8 11.8 -8 5 C-8.33 5 -8.66 5 -9 5 Z M-7 27 C-6 29 -6 29 -6 29 Z M-4 27 C-3 29 -3 29 -3 29 Z " fill="#193F78" transform="translate(64,0)"/>
<path d="M0 0 C0.33 9.24 0.66 18.48 1 28 C-1.31 28.33 -3.62 28.66 -6 29 C-6 28.34 -6 27.68 -6 27 C-6.66 27 -7.32 27 -8 27 C-8.33 18.75 -8.66 10.5 -9 2 C-5 0 -5 0 0 0 Z M-3 2 C-3 9.59 -3 17.18 -3 25 C-2.67 25 -2.34 25 -2 25 C-2 17.41 -2 9.82 -2 2 C-2.33 2 -2.66 2 -3 2 Z M-6 4 C-6 10.93 -6 17.86 -6 25 C-5.67 25 -5.34 25 -5 25 C-5 18.07 -5 11.14 -5 4 C-5.33 4 -5.66 4 -6 4 Z " fill="#D4A529" transform="translate(64,0)"/>
<path d="M0 0 C0.66 0.33 1.32 0.66 2 1 C2 2.32 2 3.64 2 5 C0.35 5.33 -1.3 5.66 -3 6 C-3 8.31 -3 10.62 -3 13 C-6.08785599 14.83166003 -7.95800315 15.19090024 -11.5 14.6875 C-12.62921875 14.53861328 -12.62921875 14.53861328 -13.78125 14.38671875 C-15.88821634 14.01948342 -17.93378882 13.54942434 -20 13 C-19.01 12.67 -18.02 12.34 -17 12 C-18.21044132 7.39257135 -18.21044132 7.39257135 -20 3 C-15.05 3.33 -10.1 3.66 -5 4 C-4.34 3.01 -3.68 2.02 -3 1 C-2.01 0.67 -1.02 0.34 0 0 Z M-15 5 C-15 6.98 -15 8.96 -15 11 C-14.34 9.68 -13.68 8.36 -13 7 C-13.66 6.34 -14.32 5.68 -15 5 Z M-11 6 C-11 7.98 -11 9.96 -11 12 C-10.67 12 -10.34 12 -10 12 C-10 10.02 -10 8.04 -10 6 C-10.33 6 -10.66 6 -11 6 Z M-7 6 C-7.33 7.65 -7.66 9.3 -8 11 C-7.34 11 -6.68 11 -6 11 C-6 9.35 -6 7.7 -6 6 C-6.33 6 -6.66 6 -7 6 Z " fill="#12305A" transform="translate(116,41)"/>
<path d="M0 0 C1.423125 -0.061875 2.84625 -0.12375 4.3125 -0.1875 C5.51326172 -0.23970703 5.51326172 -0.23970703 6.73828125 -0.29296875 C9.50708741 0.0656849 10.18360958 0.97054325 12 3 C12.66 3 13.32 3 14 3 C14.33 3.66 14.66 4.32 15 5 C15.99 4.67 16.98 4.34 18 4 C18 6.31 18 8.62 18 11 C16.35 11 14.7 11 13 11 C12.67 9.35 12.34 7.7 12 6 C12 7.98 12 9.96 12 12 C7.13160991 13.13218374 5.94554184 12.97821674 1 11 C0.67 7.37 0.34 3.74 0 0 Z M3 2 C3 4.64 3 7.28 3 10 C3.99 9.67 4.98 9.34 6 9 C6 7.02 6 5.04 6 3 C5.01 2.67 4.02 2.34 3 2 Z M8 5 C8 6.65 8 8.3 8 10 C8.33 10 8.66 10 9 10 C9 8.35 9 6.7 9 5 C8.67 5 8.34 5 8 5 Z M7 10 C8 12 8 12 8 12 Z " fill="#12315F" transform="translate(0,42)"/>
<path d="M0 0 C0.99 0 1.98 0 3 0 C3 3.3 3 6.6 3 10 C3.66 10 4.32 10 5 10 C4.67 6.7 4.34 3.4 4 0 C5.32 0 6.64 0 8 0 C7.67 1.65 7.34 3.3 7 5 C7.99 5 8.98 5 10 5 C9.67 3.35 9.34 1.7 9 0 C10.32 0 11.64 0 13 0 C13 0.66 13 1.32 13 2 C12.34 2 11.68 2 11 2 C11.33 4.97 11.66 7.94 12 11 C11.34 11 10.68 11 10 11 C10 9.68 10 8.36 10 7 C9.01 7 8.02 7 7 7 C7.33 8.65 7.66 10.3 8 12 C6.35425434 12.02688151 4.70838587 12.04634123 3.0625 12.0625 C2.14597656 12.07410156 1.22945312 12.08570313 0.28515625 12.09765625 C-2 12 -2 12 -3 11 C-3.04092937 8.66702567 -3.04241723 6.33294775 -3 4 C-2.34 4 -1.68 4 -1 4 C-0.67 2.68 -0.34 1.36 0 0 Z M0 2 C1 4 1 4 1 4 Z M0 6 C0 7.32 0 8.64 0 10 C0.33 8.68 0.66 7.36 1 6 C0.67 6 0.34 6 0 6 Z " fill="#183B73" transform="translate(34,42)"/>
<path d="M0 0 C0.66 0.99 1.32 1.98 2 3 C2.5775 2.67 3.155 2.34 3.75 2 C7.1391755 0.49369978 9.54532069 0.84844023 13 2 C13 4.31 13 6.62 13 9 C12.34 8.34 11.68 7.68 11 7 C11 7.99 11 8.98 11 10 C6.34462607 10.83796731 2.62921525 11.0161692 -2 10 C-1.67 9.34 -1.34 8.68 -1 8 C-0.67 8 -0.34 8 0 8 C0 5.36 0 2.72 0 0 Z M4 6 C4.33 6.66 4.66 7.32 5 8 C5.66 7.34 6.32 6.68 7 6 C6.01 6 5.02 6 4 6 Z " fill="#16386C" transform="translate(45,44)"/>
<path d="M0 0 C0.66 0.33 1.32 0.66 2 1 C2 1.66 2 2.32 2 3 C3.98 3 5.96 3 8 3 C6.6875 5.9375 6.6875 5.9375 5 9 C2.07175348 9.97608217 0.04386724 10.08226668 -3 10 C-3.66 8.02 -4.32 6.04 -5 4 C-4.34 3.34 -3.68 2.68 -3 2 C-2.01 2 -1.02 2 0 2 C0 1.34 0 0.68 0 0 Z " fill="#264169" transform="translate(55,26)"/>
<path d="M0 0 C4.29 0.33 8.58 0.66 13 1 C12.01 1.66 11.02 2.32 10 3 C9.87625 3.99 9.7525 4.98 9.625 6 C9.41875 6.99 9.2125 7.98 9 9 C6.31051312 10.6718432 4.81978278 11.13293775 1.6875 10.625 C1.130625 10.41875 0.57375 10.2125 0 10 C0.99 9.67 1.98 9.34 3 9 C1.78955868 4.39257135 1.78955868 4.39257135 0 0 Z M5 2 C5 3.98 5 5.96 5 8 C5.66 6.68 6.32 5.36 7 4 C6.34 3.34 5.68 2.68 5 2 Z " fill="#102C54" transform="translate(96,44)"/>
<path d="M0 0 C0.33 0.66 0.66 1.32 1 2 C1.99 1.67 2.98 1.34 4 1 C4 3.31 4 5.62 4 8 C2.35 8 0.7 8 -1 8 C-1.33 6.35 -1.66 4.7 -2 3 C-2 4.98 -2 6.96 -2 9 C-3.32 9 -4.64 9 -6 9 C-6 6.36 -6 3.72 -6 1 C-3.92446352 0.4465236 -2.15634036 0 0 0 Z " fill="#184380" transform="translate(14,45)"/>
<path d="M0 0 C1.32 0 2.64 0 4 0 C3.67 1.65 3.34 3.3 3 5 C3.99 5 4.98 5 6 5 C5.67 3.35 5.34 1.7 5 0 C6.32 0 7.64 0 9 0 C9 0.66 9 1.32 9 2 C8.34 2 7.68 2 7 2 C7.33 4.97 7.66 7.94 8 11 C7.34 11 6.68 11 6 11 C6 9.68 6 8.36 6 7 C5.01 7 4.02 7 3 7 C3 8.32 3 9.64 3 11 C2.34 11 1.68 11 1 11 C0.67 7.37 0.34 3.74 0 0 Z " fill="#18417F" transform="translate(38,42)"/>
<path d="M0 0 C1.32 0 2.64 0 4 0 C5 1 5 1 5.0625 4.0625 C5.041875 5.031875 5.02125 6.00125 5 7 C3.125 7.625 3.125 7.625 1 8 C0.34 7.34 -0.32 6.68 -1 6 C-1 4.68 -1 3.36 -1 2 C-1.99 2 -2.98 2 -4 2 C-4 3.65 -4 5.3 -4 7 C-4.33 7 -4.66 7 -5 7 C-5.33 4.69 -5.66 2.38 -6 0 C-3 -1 -3 -1 0 0 Z M1 1 C1 2.65 1 4.3 1 6 C1.66 6 2.32 6 3 6 C3 4.35 3 2.7 3 1 C2.34 1 1.68 1 1 1 Z " fill="#1A4685" transform="translate(93,46)"/>
<path d="M0 0 C0.33 0.66 0.66 1.32 1 2 C1.99 2.33 2.98 2.66 4 3 C4 3.66 4 4.32 4 5 C4.66 5.33 5.32 5.66 6 6 C6 6.66 6 7.32 6 8 C6.99 8.66 7.98 9.32 9 10 C9 10.66 9 11.32 9 12 C5.37 12 1.74 12 -2 12 C-1.67 11.34 -1.34 10.68 -1 10 C-0.01 10 0.98 10 2 10 C1.505 8.9171875 1.505 8.9171875 1 7.8125 C-0.00603529 4.98302573 -0.16977402 2.97104534 0 0 Z " fill="#081A2F" transform="translate(85,43)"/>
<path d="M0 0 C1.65 0.33 3.3 0.66 5 1 C4.34 4.63 3.68 8.26 3 12 C3.66 12 4.32 12 5 12 C5 12.66 5 13.32 5 14 C2.36 13.67 -0.28 13.34 -3 13 C-3 12.67 -3 12.34 -3 12 C-1.35 12 0.3 12 2 12 C2 9.69 2 7.38 2 5 C0.68 5.33 -0.64 5.66 -2 6 C-1.125 1.125 -1.125 1.125 0 0 Z " fill="#0A1E37" transform="translate(16,41)"/>
<path d="M0 0 C2.29633824 3.44450737 2.54016485 5.93812283 3 10 C-1.75 11.125 -1.75 11.125 -4 10 C-4 7.69 -4 5.38 -4 3 C-3.01 3.99 -2.02 4.98 -1 6 C-0.67 4.02 -0.34 2.04 0 0 Z " fill="#18417D" transform="translate(69,44)"/>
<path d="M0 0 C0 0.99 0 1.98 0 3 C0.04125 3.845625 0.0825 4.69125 0.125 5.5625 C0 8 0 8 -2 10 C-2.99 9.67 -3.98 9.34 -5 9 C-5 8.34 -5 7.68 -5 7 C-4.34 6.67 -3.68 6.34 -3 6 C-3.66 4.35 -4.32 2.7 -5 1 C-3.35 0.67 -1.7 0.34 0 0 Z " fill="#0E294E" transform="translate(31,44)"/>
<path d="M0 0 C0.99 0 1.98 0 3 0 C3.49230769 6.4 3.49230769 6.4 1 9.4375 C0.01 10.2109375 0.01 10.2109375 -1 11 C-1.66 10.01 -2.32 9.02 -3 8 C-2.34 7.67 -1.68 7.34 -1 7 C-0.59270772 4.67843403 -0.25561323 2.3431213 0 0 Z M1 3 C2 7 2 7 2 7 Z " fill="#0A2243" transform="translate(58,44)"/>
<path d="M0 0 C2.31 0.33 4.62 0.66 7 1 C6.67 2.65 6.34 4.3 6 6 C5.34 5.34 4.68 4.68 4 4 C1.39719432 4.32041397 1.39719432 4.32041397 -1 5 C-1 2 -1 2 0 0 Z " fill="#112D52" transform="translate(79,41)"/>
<path d="M0 0 C0.66 0.33 1.32 0.66 2 1 C2 2.32 2 3.64 2 5 C-0.31 5.33 -2.62 5.66 -5 6 C-4.1875 3.5625 -4.1875 3.5625 -3 1 C-2.01 0.67 -1.02 0.34 0 0 Z " fill="#0D224C" transform="translate(116,41)"/>
<path d="M0 0 C2.1875 1.4375 2.1875 1.4375 4 3 C3.67 4.32 3.34 5.64 3 7 C2.01 5.68 1.02 4.36 0 3 C-0.33 4.65 -0.66 6.3 -1 8 C-3 6 -3 6 -3.125 3.375 C-3.08375 2.59125 -3.0425 1.8075 -3 1 C-2.01 0.67 -1.02 0.34 0 0 Z " fill="#184480" transform="translate(109,45)"/>
<path d="M0 0 C1.32 0 2.64 0 4 0 C3.67 3.63 3.34 7.26 3 11 C2.34 11 1.68 11 1 11 C0.67 7.37 0.34 3.74 0 0 Z " fill="#18417E" transform="translate(0,42)"/>
<path d="M0 0 C0.66 0 1.32 0 2 0 C2.66 3.63 3.32 7.26 4 11 C2.35 11.33 0.7 11.66 -1 12 C-0.67 11.01 -0.34 10.02 0 9 C0.06740865 7.43881572 0.08514456 5.8749748 0.0625 4.3125 C0.05347656 3.50425781 0.04445312 2.69601563 0.03515625 1.86328125 C0.02355469 1.24839844 0.01195312 0.63351563 0 0 Z " fill="#19417C" transform="translate(60,43)"/>
<path d="M0 0 C0.66 0.33 1.32 0.66 2 1 C1.67 1.598125 1.34 2.19625 1 2.8125 C-0.20787988 5.05386471 -0.20787988 5.05386471 0 8 C-1.32 7.67 -2.64 7.34 -4 7 C-4 4 -4 4 -3 2 C-2.01 2 -1.02 2 0 2 C0 1.34 0 0.68 0 0 Z " fill="#465B75" transform="translate(55,26)"/>
<path d="M0 0 C1.32 0 2.64 0 4 0 C4.66 1.32 5.32 2.64 6 4 C5.01 4 4.02 4 3 4 C3 5.65 3 7.3 3 9 C2.67 9 2.34 9 2 9 C2 6.69 2 4.38 2 2 C1.67 2.33 1.34 2.66 1 3 C0.34 2.67 -0.32 2.34 -1 2 C-0.67 1.34 -0.34 0.68 0 0 Z " fill="#091A33" transform="translate(5,42)"/>
<path d="M0 0 C0.86625 0.3403125 0.86625 0.3403125 1.75 0.6875 C1.09 0.6875 0.43 0.6875 -0.25 0.6875 C-0.58 2.3375 -0.91 3.9875 -1.25 5.6875 C-1.58 5.0275 -1.91 4.3675 -2.25 3.6875 C-4.27463255 3.03536708 -4.27463255 3.03536708 -6.25 2.6875 C-2.80384615 -0.38942308 -2.80384615 -0.38942308 0 0 Z " fill="#856617" transform="translate(61.25,0.3125)"/>
<path d="M0 0 C2 1 2 1 2 1 Z " fill="#000000" transform="translate(52,45)"/>
<path d="" fill="#000000" transform="translate(0,0)"/>
<path d="" fill="#000000" transform="translate(0,0)"/>
<path d="" fill="#000000" transform="translate(0,0)"/>
<path d="" fill="#000000" transform="translate(0,0)"/>
<path d="" fill="#000020" transform="translate(0,0)"/>
<path d="" fill="#000000" transform="translate(0,0)"/>
<path d="" fill="#000000" transform="translate(0,0)"/>
<path d="" fill="#000000" transform="translate(0,0)"/>
<path d="" fill="#000000" transform="translate(0,0)"/>
<path d="" fill="#000024" transform="translate(0,0)"/>
<path d="" fill="#000000" transform="translate(0,0)"/>
<path d="" fill="#000000" transform="translate(0,0)"/>
<path d="" fill="#000000" transform="translate(0,0)"/>
<path d="" fill="#000000" transform="translate(0,0)"/>
<path d="" fill="#000000" transform="translate(0,0)"/>
<path d="" fill="#000000" transform="translate(0,0)"/>
<path d="" fill="#000000" transform="translate(0,0)"/>
<path d="" fill="#000000" transform="translate(0,0)"/>
<path d="" fill="#000000" transform="translate(0,0)"/>
<path d="" fill="#000000" transform="translate(0,0)"/>
<path d="" fill="#000000" transform="translate(0,0)"/>
<path d="" fill="#000000" transform="translate(0,0)"/>
<path d="" fill="#000000" transform="translate(0,0)"/>
<path d="" fill="#000000" transform="translate(0,0)"/>
<path d="" fill="#000000" transform="translate(0,0)"/>
<path d="" fill="#000000" transform="translate(0,0)"/>
<path d="" fill="#000000" transform="translate(0,0)"/>
<path d="" fill="#000000" transform="translate(0,0)"/>
<path d="" fill="#000000" transform="translate(0,0)"/>
<path d="" fill="#000000" transform="translate(0,0)"/>
<path d="" fill="#000000" transform="translate(0,0)"/>
<path d="" fill="#000000" transform="translate(0,0)"/>
<path d="" fill="#000000" transform="translate(0,0)"/>
<path d="" fill="#000000" transform="translate(0,0)"/>
<path d="" fill="#000000" transform="translate(0,0)"/>
<path d="" fill="#000000" transform="translate(0,0)"/>
<path d="" fill="#000000" transform="translate(0,0)"/>
<path d="" fill="#000000" transform="translate(0,0)"/>
<path d="" fill="#000000" transform="translate(0,0)"/>
<path d="" fill="#000000" transform="translate(0,0)"/>
<path d="" fill="#000000" transform="translate(0,0)"/>
<path d="" fill="#000000" transform="translate(0,0)"/>
<path d="" fill="#000000" transform="translate(0,0)"/>
<path d="" fill="#000000" transform="translate(0,0)"/>
<path d="" fill="#000000" transform="translate(0,0)"/>
<path d="" fill="#000000" transform="translate(0,0)"/>
</svg>
