<?xml version="1.0" encoding="UTF-8"?>
<svg version="1.1" xmlns="http://www.w3.org/2000/svg" width="307" height="164">
<path d="M0 0 C0.07632377 7.11662901 0.12871469 14.23315169 0.16479492 21.35009766 C0.17984279 23.7690831 0.20028588 26.18804143 0.22631836 28.60693359 C0.262877 32.09219063 0.2797669 35.5770856 0.29296875 39.0625 C0.30845261 40.13677246 0.32393646 41.21104492 0.33988953 42.31787109 C0.34140689 49.15128071 0.09342994 55.75222012 -4.87890625 60.97265625 C-8.80924268 62.87629986 -12.74900215 62.62008072 -17 62 C-21.14728865 59.66715013 -22.661347 57.48710298 -24 53 C-24.26778213 49.69956854 -24.23265653 46.414824 -24.1953125 43.10546875 C-24.1924826 42.15811356 -24.18965271 41.21075836 -24.18673706 40.23469543 C-24.17557187 37.21883334 -24.15047389 34.20327184 -24.125 31.1875 C-24.11496547 29.13867617 -24.10584045 27.08984768 -24.09765625 25.04101562 C-24.07564449 20.02722852 -24.04113971 15.01366517 -24 10 C-20.37777789 8.32724698 -16.7517834 6.66283749 -13.125 5 C-11.57619141 4.28457031 -11.57619141 4.28457031 -9.99609375 3.5546875 C-9.00996094 3.10351562 -8.02382813 2.65234375 -7.0078125 2.1875 C-6.09660645 1.76855469 -5.18540039 1.34960938 -4.24658203 0.91796875 C-2 0 -2 0 0 0 Z " fill="#012374" transform="translate(30,42)"/>
<path d="M0 0 C0.06979351 8.82373549 0.12295926 17.6473746 0.15543652 26.47132683 C0.17103121 30.56952606 0.19215479 34.66753516 0.22631836 38.765625 C0.25913478 42.72732513 0.2768995 46.68884343 0.28463173 50.6506691 C0.29013556 52.15520206 0.30088221 53.65972611 0.31719017 55.16418076 C0.44466497 67.42183405 -0.27877418 77.72027204 -9 87 C-13.97026344 91.39232583 -19.5093909 92.57748113 -26 93 C-31.27272566 92.54324413 -34.87392717 91.35070344 -39 88 C-38.03320312 88.05800781 -37.06640625 88.11601563 -36.0703125 88.17578125 C-27.79796863 88.46244663 -20.75736852 88.38763166 -14 83 C-6.16807752 74.29580179 -6.67667357 63.03245675 -6.5859375 52 C-6.5671994 50.55410693 -6.54762407 49.10822449 -6.5272522 47.66235352 C-6.47620363 43.88135076 -6.43643317 40.10031265 -6.39910889 36.31915283 C-6.3588969 32.45096286 -6.30788355 28.58291644 -6.2578125 24.71484375 C-6.16137679 17.14332811 -6.07686999 9.57174226 -6 2 C-2.25 0 -2.25 0 0 0 Z " fill="#071659" transform="translate(60,29)"/>
<path d="M0 0 C0.06984721 7.91105494 0.12298592 15.82197868 0.15543652 23.73326683 C0.17101978 27.40773878 0.19212165 31.08199806 0.22631836 34.75634766 C0.25917666 38.30956709 0.27690804 41.86258338 0.28463173 45.41594315 C0.29278316 47.41541501 0.31615924 49.4148064 0.33988953 51.41415405 C0.34167372 61.18209356 -0.53258957 70.23910748 -7 78 C-13.11106462 82.71061231 -18.42692704 83.7394583 -26 83 C-29.54137747 81.97099598 -32.3596752 80.6403248 -35 78 C-33.92621094 78.04640625 -32.85242188 78.0928125 -31.74609375 78.140625 C-21.06450248 78.79767652 -21.06450248 78.79767652 -12 74 C-7.98856015 68.03267178 -6.90134816 62.13279874 -6.79467773 55.01635742 C-6.77473251 53.83551071 -6.75478729 52.654664 -6.73423767 51.43803406 C-6.71752518 50.17328751 -6.70081268 48.90854095 -6.68359375 47.60546875 C-6.66281265 46.30297684 -6.64203156 45.00048492 -6.62062073 43.65852356 C-6.56561816 40.20790737 -6.51611341 36.75723365 -6.46777344 33.30651855 C-6.41739836 29.78046594 -6.36179613 26.25449613 -6.30664062 22.72851562 C-6.19932622 15.81908229 -6.09782275 8.90957405 -6 2 C-1.125 0 -1.125 0 0 0 Z " fill="#05145D" transform="translate(50,33)"/>
<path d="M0 0 C2.97 0 5.94 0 9 0 C9 10.56 9 21.12 9 32 C9.99 32.33 10.98 32.66 12 33 C12 33.66 12 34.32 12 35 C9.22949974 35.1946838 6.45886998 35.38102792 3.6875 35.5625 C2.50897461 35.64661133 2.50897461 35.64661133 1.30664062 35.73242188 C0.1706543 35.80493164 0.1706543 35.80493164 -0.98828125 35.87890625 C-1.68477783 35.9260376 -2.38127441 35.97316895 -3.09887695 36.02172852 C-5 36 -5 36 -8 35 C-8 34.34 -8 33.68 -8 33 C-8.86625 33.515625 -9.7325 34.03125 -10.625 34.5625 C-14.46552375 36.19827864 -16.08877043 36.3906594 -20 35 C-22 32.75 -22 32.75 -23 30 C-22.36116898 26.25827543 -21.19122176 25.14872803 -18.1875 22.8125 C-15.48570255 21.27618381 -12.92448822 20.03217231 -10 19 C-10.33 17.35 -10.66 15.7 -11 14 C-12.65 14 -14.3 14 -16 14 C-16.33 15.65 -16.66 17.3 -17 19 C-18.32 19 -19.64 19 -21 19 C-21.8125 17.3125 -21.8125 17.3125 -22 15 C-19.60148993 11.8746687 -17.80762175 10.27493507 -14.0625 9 C-10.19378296 9 -8.18872374 9.82587018 -5 12 C-2.62001619 16.28876278 -2.76409216 20.53919716 -2.875 25.3125 C-2.88402344 26.05306641 -2.89304688 26.79363281 -2.90234375 27.55664062 C-2.92575787 29.37123467 -2.96162385 31.18566071 -3 33 C-0.03 32.505 -0.03 32.505 3 32 C3 22.43 3 12.86 3 3 C2.01 3 1.02 3 0 3 C0 2.01 0 1.02 0 0 Z M-16 25 C-16.81584568 28.05908413 -16.81584568 28.05908413 -17 31 C-14.525 31.495 -14.525 31.495 -12 32 C-9.90250005 29.64031256 -9.03094296 28.45383006 -8.8125 25.25 C-8.874375 24.5075 -8.93625 23.765 -9 23 C-12.19131 23 -13.45285085 23.13209062 -16 25 Z " fill="#051257" transform="translate(162,78)"/>
<path d="M0 0 C4.29 0 8.58 0 13 0 C13.33 0.99 13.66 1.98 14 3 C13.01 3.33 12.02 3.66 11 4 C10.67 7.96 10.34 11.92 10 16 C13.96 16 17.92 16 22 16 C21.505 9.565 21.505 9.565 21 3 C20.01 3 19.02 3 18 3 C18 2.01 18 1.02 18 0 C22.29 0 26.58 0 31 0 C31 0.99 31 1.98 31 3 C30.01 3.495 30.01 3.495 29 4 C28.67 13.24 28.34 22.48 28 32 C29.485 32.495 29.485 32.495 31 33 C31 33.66 31 34.32 31 35 C26.71 35 22.42 35 18 35 C18.33 34.01 18.66 33.02 19 32 C19.66 31.67 20.32 31.34 21 31 C21.46898963 28.1840151 21.46898963 28.1840151 21.625 24.9375 C21.74875 22.978125 21.8725 21.01875 22 19 C18.04 19 14.08 19 10 19 C10 23.29 10 27.58 10 32 C11.32 32.33 12.64 32.66 14 33 C14 33.66 14 34.32 14 35 C9.38 35 4.76 35 0 35 C0.33 34.01 0.66 33.02 1 32 C1.66 31.67 2.32 31.34 3 31 C3 22.09 3 13.18 3 4 C2.01 3.67 1.02 3.34 0 3 C0 2.01 0 1.02 0 0 Z " fill="#0D1C58" transform="translate(86,78)"/>
<path d="M0 0 C1.02480469 0.23976563 1.02480469 0.23976563 2.0703125 0.484375 C3.875 1.25 3.875 1.25 5.875 4.25 C6.19384766 6.24291992 6.19384766 6.24291992 6.2890625 8.48046875 C6.32773437 9.28291016 6.36640625 10.08535156 6.40625 10.91210938 C6.4371875 11.74548828 6.468125 12.57886719 6.5 13.4375 C6.53867187 14.28248047 6.57734375 15.12746094 6.6171875 15.99804688 C6.71136279 18.08167524 6.79426675 20.16580753 6.875 22.25 C8.855 22.25 10.835 22.25 12.875 22.25 C12.7881197 19.3110493 12.68126233 16.37518711 12.5625 13.4375 C12.53994141 12.60412109 12.51738281 11.77074219 12.49414062 10.91210938 C12.4409668 9.70844727 12.4409668 9.70844727 12.38671875 8.48046875 C12.36053467 7.74207764 12.33435059 7.00368652 12.30737305 6.24291992 C11.77267037 3.77833609 10.77534653 2.84947676 8.875 1.25 C9.875 0.25 9.875 0.25 11.90625 0.1171875 C12.7209375 0.11976562 13.535625 0.12234375 14.375 0.125 C15.1896875 0.12242188 16.004375 0.11984375 16.84375 0.1171875 C18.875 0.25 18.875 0.25 19.875 1.25 C20.205 0.92 20.535 0.59 20.875 0.25 C24.3125 0 24.3125 0 27.875 0.25 C29.875 3.25 29.875 3.25 29.5 5.9375 C29.29375 6.700625 29.0875 7.46375 28.875 8.25 C26.4 7.755 26.4 7.755 23.875 7.25 C23.875 5.93 23.875 4.61 23.875 3.25 C21.48541996 4.71458132 20.0983716 5.63572809 19.125 8.3125 C18.50074982 14.78971415 18.50074982 14.78971415 18.875 21.25 C19.865 21.91 20.855 22.57 21.875 23.25 C21.875 23.91 21.875 24.57 21.875 25.25 C20.98296875 25.23839844 20.0909375 25.22679688 19.171875 25.21484375 C18.00140625 25.20582031 16.8309375 25.19679688 15.625 25.1875 C14.46484375 25.17589844 13.3046875 25.16429688 12.109375 25.15234375 C9.00879664 25.12409795 9.00879664 25.12409795 6.625 25.84375 C4.875 26.25 4.875 26.25 2.125 24.8125 C1.3825 24.296875 0.64 23.78125 -0.125 23.25 C-0.82625 23.78625 -1.5275 24.3225 -2.25 24.875 C-5.125 26.25 -5.125 26.25 -8.3125 25.5625 C-11.125 24.25 -11.125 24.25 -13.125 22.25 C-13.5 19 -13.5 19 -12.125 15.25 C-8.3249886 12.76891148 -4.31466781 10.97515733 -0.125 9.25 C-0.455 7.6 -0.785 5.95 -1.125 4.25 C-2.775 4.25 -4.425 4.25 -6.125 4.25 C-6.455 5.9 -6.785 7.55 -7.125 9.25 C-8.445 9.25 -9.765 9.25 -11.125 9.25 C-11.875 7 -11.875 7 -12.125 4.25 C-8.75686951 -0.24084065 -5.35314096 -1.34337378 0 0 Z M-3.6875 14.25 C-4.821875 14.91 -5.95625 15.57 -7.125 16.25 C-7.125 17.9 -7.125 19.55 -7.125 21.25 C-5.28799211 22.02242269 -5.28799211 22.02242269 -3.125 22.25 C-1.2738697 21.32006533 -1.2738697 21.32006533 -0.125 19.25 C0.60541853 15.63976901 0.60541853 15.63976901 0.875 12.25 C-0.86706308 12.25 -2.21095092 13.3909169 -3.6875 14.25 Z " fill="#061B65" transform="translate(251.125,87.75)"/>
<path d="M0 0 C0.33 0.66 0.66 1.32 1 2 C1.53625 1.649375 2.0725 1.29875 2.625 0.9375 C5.81689475 -0.32245845 7.72424145 0.09393913 11 1 C13.01929891 2.57275476 13.8849011 3.46947923 14.43237305 5.99291992 C14.45855713 6.73131104 14.48474121 7.46970215 14.51171875 8.23046875 C14.56489258 9.43413086 14.56489258 9.43413086 14.61914062 10.66210938 C14.64169922 11.49548828 14.66425781 12.32886719 14.6875 13.1875 C14.73874023 14.4549707 14.73874023 14.4549707 14.79101562 15.74804688 C14.87341471 17.83156649 14.93838645 19.91576216 15 22 C16.98 22.33 18.96 22.66 21 23 C21 16.73 21 10.46 21 4 C20.01 4 19.02 4 18 4 C18 3.01 18 2.02 18 1 C22.455 0.505 22.455 0.505 27 0 C27 7.59 27 15.18 27 23 C27.99 23 28.98 23 30 23 C30 23.99 30 24.98 30 26 C21.75 26 13.5 26 5 26 C5 25.01 5 24.02 5 23 C5.99 22.67 6.98 22.34 8 22 C8 16.72 8 11.44 8 6 C4.36380344 4.91915479 4.36380344 4.91915479 2 5 C1.1431466 8.74527857 0.80775236 12.28446798 0.75 16.125 C0.72421875 17.15882812 0.6984375 18.19265625 0.671875 19.2578125 C0.75753358 22.04060056 0.75753358 22.04060056 2.515625 23.8671875 C3.00546875 24.24101563 3.4953125 24.61484375 4 25 C3 26 3 26 0.27734375 26.09765625 C-0.82480469 26.08605469 -1.92695312 26.07445313 -3.0625 26.0625 C-4.16722656 26.05347656 -5.27195312 26.04445313 -6.41015625 26.03515625 C-7.69212891 26.01775391 -7.69212891 26.01775391 -9 26 C-9 25.01 -9 24.02 -9 23 C-8.01 22.67 -7.02 22.34 -6 22 C-5.91928212 19.20775927 -5.85964592 16.41783434 -5.8125 13.625 C-5.78736328 12.8309375 -5.76222656 12.036875 -5.73632812 11.21875 C-5.70995595 9.14413852 -5.84513538 7.06899135 -6 5 C-6.99 4.34 -7.98 3.68 -9 3 C-9 2.34 -9 1.68 -9 1 C-2.25 0 -2.25 0 0 0 Z " fill="#06165E" transform="translate(124,46)"/>
<path d="M0 0 C0.05090835 7.52560522 0.08582092 15.05116566 0.10986328 22.5769043 C0.11989132 25.13453837 0.13351707 27.69216106 0.15087891 30.24975586 C0.17526779 33.93606382 0.1865154 37.62221954 0.1953125 41.30859375 C0.20563507 42.44332626 0.21595764 43.57805878 0.22659302 44.74717712 C0.22893943 61.52943982 0.22893943 61.52943982 -4.875 66.9375 C-5.36742188 67.48277344 -5.85984375 68.02804688 -6.3671875 68.58984375 C-10.52475577 72.18047089 -14.19381365 72.35612877 -19.515625 72.26953125 C-22.80076298 71.91312477 -25.22458975 70.75289068 -28 69 C-25.35266651 68.15285328 -23.44971765 68.02038083 -20.625 68.125 C-16.5197845 67.98344084 -14.41525934 67.25096639 -11 65 C-7.36541943 60.23744616 -6.8833884 55.4483153 -6.84228516 49.59887695 C-6.82689194 48.01747673 -6.82689194 48.01747673 -6.81118774 46.40412903 C-6.80388641 45.27689926 -6.79658508 44.14966949 -6.7890625 42.98828125 C-6.76101644 40.59830018 -6.73235217 38.20832629 -6.703125 35.81835938 C-6.66171024 32.05232779 -6.62481876 28.28643382 -6.59863281 24.52026367 C-6.57116494 20.88432252 -6.52532082 17.2489906 -6.4765625 13.61328125 C-6.47330963 12.47997879 -6.47005676 11.34667633 -6.46670532 10.17903137 C-6.45013885 9.13422104 -6.43357239 8.08941071 -6.41650391 7.01293945 C-6.40841705 6.09092239 -6.4003302 5.16890533 -6.39199829 4.21894836 C-6.26263885 3.4866954 -6.13327942 2.75444244 -6 2 C-3 0 -3 0 0 0 Z " fill="#032371" transform="translate(40,38)"/>
<path d="M0 0 C4.29 0 8.58 0 13 0 C13 0.99 13 1.98 13 3 C12.01 3 11.02 3 10 3 C9.94169213 6.39576062 9.90630054 9.7913915 9.875 13.1875 C9.85824219 14.14720703 9.84148437 15.10691406 9.82421875 16.09570312 C9.81455078 17.49272461 9.81455078 17.49272461 9.8046875 18.91796875 C9.78897705 20.19837036 9.78897705 20.19837036 9.77294922 21.50463867 C10.02795806 24.30726815 10.84458578 26.44729419 12 29 C16.48133574 29.72256829 16.48133574 29.72256829 21 30 C21.92553743 26.86149936 22.11664647 24.06319222 22.09765625 20.796875 C22.09282227 19.32734375 22.09282227 19.32734375 22.08789062 17.828125 C22.07951172 16.81234375 22.07113281 15.7965625 22.0625 14.75 C22.05798828 13.71875 22.05347656 12.6875 22.04882812 11.625 C22.03706088 9.08327427 22.02062011 6.54166681 22 4 C21.01 3.67 20.02 3.34 19 3 C19 2.01 19 1.02 19 0 C22.96 0 26.92 0 31 0 C31 0.99 31 1.98 31 3 C30.01 3.33 29.02 3.66 28 4 C27.98541748 4.6705542 27.97083496 5.3411084 27.95581055 6.03198242 C27.881117 9.08438822 27.78452701 12.13572585 27.6875 15.1875 C27.66494141 16.24259766 27.64238281 17.29769531 27.61914062 18.38476562 C27.58369141 19.40634766 27.54824219 20.42792969 27.51171875 21.48046875 C27.48553467 22.41785889 27.45935059 23.35524902 27.43237305 24.32104492 C26.78604524 28.32564971 25.03636318 31.01534725 22.12109375 33.78515625 C18.27704002 35.98681502 14.2860534 35.61130097 10 35 C6.3679824 33.10832417 5.31929242 31.84846938 3.8828125 28.03125 C2.56675409 23.09603095 2.78489674 18.13254098 2.875 13.0625 C2.88402344 12.09248047 2.89304687 11.12246094 2.90234375 10.12304688 C2.92573893 7.74843593 2.95851824 5.37435224 3 3 C2.01 3 1.02 3 0 3 C0 2.01 0 1.02 0 0 Z " fill="#061663" transform="translate(85,37)"/>
<path d="M0 0 C0.01458252 0.95366455 0.02916504 1.9073291 0.04418945 2.88989258 C0.10217792 6.42933585 0.17940958 9.96814324 0.26245117 13.50708008 C0.29569818 15.03855059 0.32373093 16.57014356 0.34643555 18.10180664 C0.37998718 20.30407887 0.4322991 22.50522912 0.48828125 24.70703125 C0.49467117 25.39150833 0.5010611 26.07598541 0.50764465 26.78120422 C0.5994084 29.75020838 0.66735787 31.5753313 2.53198242 33.95581055 C3.01642822 34.30039307 3.50087402 34.64497559 4 35 C3 36 3 36 1.15234375 36.09765625 C-0.8984375 36.06510417 -2.94921875 36.03255208 -5 36 C-5.33 35.34 -5.66 34.68 -6 34 C-6.66 34.66 -7.32 35.32 -8 36 C-12.09223437 36.46327182 -14.27920044 36.4484975 -17.8125 34.25 C-21.03728988 30.93307326 -22.28812631 28.25600136 -22.3125 23.625 C-22.20166089 19.41311385 -21.43763796 16.53037221 -19 13 C-15.81215929 10.25491494 -14.49629431 9.96691371 -10.25 10.25 C-7 11 -7 11 -6 12 C-6 9.69 -6 7.38 -6 5 C-6.99 4.67 -7.98 4.34 -9 4 C-9 3.01 -9 2.02 -9 1 C-1.125 0 -1.125 0 0 0 Z M-14.64453125 15.70703125 C-16.22544457 18.38137165 -16.37358177 19.91772002 -16.3125 23 C-16.30863281 23.845625 -16.30476562 24.69125 -16.30078125 25.5625 C-15.98148806 28.15001882 -15.38032227 29.79934386 -14 32 C-12.16666667 33.16666667 -12.16666667 33.16666667 -10 33 C-6.88763362 30.86580591 -6.09092769 29.34422625 -5.125 25.6875 C-4.98916738 21.68043764 -5.64723685 18.75767541 -7 15 C-8.04862094 13.74843946 -8.04862094 13.74843946 -10.375 13.6875 C-13.08660323 13.7294023 -13.08660323 13.7294023 -14.64453125 15.70703125 Z " fill="#051254" transform="translate(215,36)"/>
<path d="M0 0 C2.64 0 5.28 0 8 0 C8.33 3.96 8.66 7.92 9 12 C9.66 11.34 10.32 10.68 11 10 C16.68348624 9.4587156 16.68348624 9.4587156 19 10 C21.16071244 11.79251929 21.91108096 13.2262451 22.23168945 16.01611328 C22.29579472 18.43474637 22.26118219 20.8317128 22.1875 23.25 C22.16719727 24.51070312 22.16719727 24.51070312 22.14648438 25.796875 C22.11123464 27.86485938 22.0574302 29.93251271 22 32 C23.32 32.33 24.64 32.66 26 33 C26 33.66 26 34.32 26 35 C21.71 35 17.42 35 13 35 C13 34.34 13 33.68 13 33 C13.99 32.34 14.98 31.68 16 31 C16.2208564 28.04935852 16.28060989 25.31631769 16.1875 22.375 C16.17396484 21.57320312 16.16042969 20.77140625 16.14648438 19.9453125 C16.11109051 17.96325622 16.05728234 15.98154449 16 14 C13.55519921 14.18828772 13.55519921 14.18828772 11 15 C8.52295025 18.19129109 8.61035144 21.82747598 8.375 25.75 C8.30023438 26.92046875 8.22546875 28.0909375 8.1484375 29.296875 C8.07496094 30.63492188 8.07496094 30.63492188 8 32 C8.99 32.33 9.98 32.66 11 33 C11 33.66 11 34.32 11 35 C7.04 35 3.08 35 -1 35 C-1 34.34 -1 33.68 -1 33 C-0.01 32.34 0.98 31.68 2 31 C2.41789089 28.08935621 2.41789089 28.08935621 2.29296875 24.6796875 C2.28330078 23.42285156 2.27363281 22.16601562 2.26367188 20.87109375 C2.2259668 18.89302734 2.2259668 18.89302734 2.1875 16.875 C2.17245483 15.53517097 2.15876613 14.19532596 2.14648438 12.85546875 C2.11102872 9.56991158 2.06160849 6.28515418 2 3 C1.01 3 0.02 3 -1 3 C-0.67 2.01 -0.34 1.02 0 0 Z " fill="#051C61" transform="translate(191,78)"/>
<path d="M0 0 C2.3181362 1.89111111 3.66914015 3.33828031 5 6 C5 8.31 5 10.62 5 13 C0.05 13 -4.9 13 -10 13 C-9.34 15.31 -8.68 17.62 -8 20 C-6.72125 20.061875 -5.4425 20.12375 -4.125 20.1875 C-3.40570313 20.22230469 -2.68640625 20.25710937 -1.9453125 20.29296875 C-0.98238281 20.14794922 -0.98238281 20.14794922 0 20 C0.66 19.01 1.32 18.02 2 17 C2.99 17 3.98 17 5 17 C2.81575898 23.21668598 2.81575898 23.21668598 0 25 C-5.081266 25.66639554 -6.99531639 25.63257857 -11.375 22.875 C-14.5949631 19.34837375 -15.90853391 16.85259868 -16.0625 12.05078125 C-15.72869879 6.57435521 -13.89410093 3.80138424 -10 0 C-6.19426871 -1.2685771 -3.89430952 -0.88817586 0 0 Z M-7 3 C-9.2773501 5.81509993 -9.2773501 5.81509993 -9 9 C-6.36 9 -3.72 9 -1 9 C-1.33 7.35 -1.66 5.7 -2 4 C-3.65 3.67 -5.3 3.34 -7 3 Z " fill="#071760" transform="translate(186,47)"/>
<path d="M0 0 C2.875 2.625 2.875 2.625 5 6 C5 8.31 5 10.62 5 13 C0.05 13 -4.9 13 -10 13 C-8.46860184 18.06015034 -8.46860184 18.06015034 -4.5625 21.1875 C-1.82677068 21.23832155 -1.82677068 21.23832155 0.3125 19.0625 C0.869375 18.381875 1.42625 17.70125 2 17 C2.99 17.33 3.98 17.66 5 18 C4.04954384 21.5166878 3.30866369 22.78954749 0.25 24.875 C-3.52195404 26.1806764 -5.23140334 26.28292652 -9 25 C-13.39899439 21.80073135 -14.99202197 18.55805509 -15.9140625 13.34765625 C-16.05705586 9.44133767 -14.99242298 6.33377861 -13 3 C-8.99983321 -0.87516158 -5.31111974 -1.59333592 0 0 Z M-7.75 4.1875 C-9.37848864 6.18185196 -9.37848864 6.18185196 -9 10 C-6.03 10 -3.06 10 0 10 C-0.6954344 6.99615946 -0.6954344 6.99615946 -2 4 C-4.52507183 2.61528319 -5.35877792 2.56488502 -7.75 4.1875 Z " fill="#061A69" transform="translate(133,88)"/>
<path d="M0 0 C3.73793461 3.23954333 3.61023697 7.32284359 4 12 C-0.95 12 -5.9 12 -11 12 C-9.46860184 17.06015034 -9.46860184 17.06015034 -5.5625 20.1875 C-2.12835559 19.93622114 -1.21717573 18.52299307 1 16 C1.66 16 2.32 16 3 16 C2.64715325 18.61106596 2.30406662 20.55190182 0.8125 22.75 C-1.83494263 24.5758225 -3.79237765 24.87421089 -7 25 C-10.77463382 23.7166245 -12.69951564 22.33211429 -15.375 19.375 C-17.44634358 15.07297872 -17.8564493 11.69367802 -17 7 C-15.09143589 3.50096579 -13.08599799 -0.07288978 -9.3125 -1.75 C-5.81436637 -2.12817661 -3.2608672 -1.24505838 0 0 Z M-8 2 C-10.58777208 5.05580974 -10.58777208 5.05580974 -11 9 C-8.03 9 -5.06 9 -2 9 C-2.33 7.02 -2.66 5.04 -3 3 C-4.65 2.67 -6.3 2.34 -8 2 Z " fill="#071D6C" transform="translate(297,89)"/>
<path d="M0 0 C0.66 0.33 1.32 0.66 2 1 C2.02317503 9.40586115 2.04094143 17.81170894 2.05181217 26.21759415 C2.05702969 30.12082295 2.06410684 34.02402988 2.07543945 37.92724609 C2.08630847 41.69438644 2.09228537 45.46150576 2.09487724 49.22866058 C2.09672424 50.66555869 2.10033095 52.10245564 2.10573006 53.53934479 C2.11299363 55.55258562 2.11340851 57.56584763 2.11352539 59.57910156 C2.115746 60.72493713 2.11796661 61.87077271 2.12025452 63.05133057 C2.01799691 65.55871136 1.73528797 67.61515677 1 70 C0.01 70 -0.98 70 -2 70 C-2.04631461 61.31611496 -2.08186471 52.63227237 -2.10362434 43.94829082 C-2.1140672 39.91608509 -2.12823551 35.88396378 -2.15087891 31.85180664 C-2.17258947 27.96147137 -2.18456484 24.07121736 -2.18975449 20.18082619 C-2.19345346 18.69564344 -2.20067654 17.2104652 -2.21146011 15.725317 C-2.22595148 13.64710203 -2.22797896 11.56922406 -2.22705078 9.4909668 C-2.231492 8.30738083 -2.23593323 7.12379486 -2.24050903 5.90434265 C-2 3 -2 3 0 0 Z " fill="#021F73" transform="translate(57,30)"/>
<path d="M0 0 C2.4375 1.75 2.4375 1.75 4 4 C3.75 6.75 3.75 6.75 3 9 C1.68 9 0.36 9 -1 9 C-1.33 7.35 -1.66 5.7 -2 4 C-3.98 4 -5.96 4 -8 4 C-8.96306898 6.88920694 -9.1955936 8.92247881 -9.25 11.9375 C-9.27578125 12.79214844 -9.3015625 13.64679688 -9.328125 14.52734375 C-8.93876562 17.46144478 -7.93350171 18.80700201 -6 21 C-3.56282742 20.72965366 -3.56282742 20.72965366 -1 20 C-0.34 19.01 0.32 18.02 1 17 C1.99 17.33 2.98 17.66 4 18 C3.07739356 21.10331257 2.29502729 22.74711947 -0.1875 24.875 C-3.97869858 26.39147943 -6.0887037 26.11751323 -10 25 C-13.65830259 21.97792395 -15.7323068 19.74900323 -16.203125 14.9140625 C-16.30184148 10.09340775 -16.19299757 6.87721133 -13 3 C-8.71562122 -0.74883144 -5.52523113 -1.46587765 0 0 Z " fill="#05165D" transform="translate(233,88)"/>
<path d="M0 0 C0.99 0 1.98 0 3 0 C3 2.31 3 4.62 3 7 C5.31 7 7.62 7 10 7 C9.67 8.32 9.34 9.64 9 11 C7.02 11 5.04 11 3 11 C3.33 16.28 3.66 21.56 4 27 C7.18490007 27.2773501 7.18490007 27.2773501 10 25 C10 29 10 29 8 32 C4.95756968 33.15118985 3.44525095 33.1490737 0.3515625 32.11328125 C-2 30 -2 30 -2.40209961 27.97070312 C-2.49359912 25.40145909 -2.43460203 22.88039962 -2.3125 20.3125 C-2.27866211 18.97348633 -2.27866211 18.97348633 -2.24414062 17.60742188 C-2.18520574 15.40325728 -2.10300818 13.20247328 -2 11 C-3.65 10.67 -5.3 10.34 -7 10 C-7 9.34 -7 8.68 -7 8 C-6.401875 7.79375 -5.80375 7.5875 -5.1875 7.375 C-2.18981233 5.49073918 -1.38638224 3.18867916 0 0 Z " fill="#06216D" transform="translate(180,81)"/>
<path d="M0 0 C0.99 0 1.98 0 3 0 C3 2.64 3 5.28 3 8 C5.31 8 7.62 8 10 8 C10 8.99 10 9.98 10 11 C7.69 11 5.38 11 3 11 C3.33 16.61 3.66 22.22 4 28 C4.99 28 5.98 28 7 28 C7.33 27.34 7.66 26.68 8 26 C8.99 26 9.98 26 11 26 C9.92598892 28.91517292 9.22189824 30.77810176 7 33 C1.75236039 33.55825953 1.75236039 33.55825953 -0.6730957 31.75854492 C-2.35612094 29.52803327 -2.34876643 28.32206587 -2.29296875 25.55078125 C-2.28330078 24.70322266 -2.27363281 23.85566406 -2.26367188 22.98242188 C-2.23853516 22.10134766 -2.21339844 21.22027344 -2.1875 20.3125 C-2.17396484 19.41982422 -2.16042969 18.52714844 -2.14648438 17.60742188 C-2.11114079 15.40433834 -2.06180493 13.20247418 -2 11 C-3.65 11 -5.3 11 -7 11 C-5.76632058 7.29896173 -3.73190399 5.73190399 -1 3 C-0.67 2.01 -0.34 1.02 0 0 Z " fill="#091958" transform="translate(160,39)"/>
<path d="M0 0 C0.66 0 1.32 0 2 0 C2 19.8 2 39.6 2 60 C0.515 60.495 0.515 60.495 -1 61 C-2.16800005 54.64258137 -2.05476513 48.45886977 -1.9140625 42.01171875 C-1.89282318 40.87217239 -1.87158386 39.73262604 -1.84970093 38.55854797 C-1.80360096 36.16064077 -1.75468704 33.76278621 -1.703125 31.36499023 C-1.62490205 27.68288935 -1.55793048 24.00070197 -1.4921875 20.31835938 C-1.44598206 17.9869658 -1.39912979 15.65558494 -1.3515625 13.32421875 C-1.32178818 11.66648689 -1.32178818 11.66648689 -1.29141235 9.9752655 C-1.25665298 8.44776421 -1.25665298 8.44776421 -1.22119141 6.8894043 C-1.20263092 5.99118454 -1.18407043 5.09296478 -1.16494751 4.16752625 C-1 2 -1 2 0 0 Z " fill="#032375" transform="translate(46,36)"/>
<path d="M0 0 C4.29 0 8.58 0 13 0 C13 0.99 13 1.98 13 3 C12.01 3 11.02 3 10 3 C9.94169213 6.39576062 9.90630054 9.7913915 9.875 13.1875 C9.85824219 14.14720703 9.84148437 15.10691406 9.82421875 16.09570312 C9.81455078 17.49272461 9.81455078 17.49272461 9.8046875 18.91796875 C9.78897705 20.19837036 9.78897705 20.19837036 9.77294922 21.50463867 C10.03141427 24.34525296 10.73553118 26.44914639 12 29 C12.66 29.33 13.32 29.66 14 30 C14 30.66 14 31.32 14 32 C10.83884224 30.63016497 10.0072908 30.0109362 8 27 C7.77294922 24.45629883 7.77294922 24.45629883 7.8046875 21.45703125 C7.81435547 19.84731445 7.81435547 19.84731445 7.82421875 18.20507812 C7.84097656 17.08552734 7.85773438 15.96597656 7.875 14.8125 C7.88402344 13.68134766 7.89304687 12.55019531 7.90234375 11.38476562 C7.92593138 8.58963172 7.958847 5.79492155 8 3 C7.01 3 6.02 3 5 3 C5.1102391 6.72975606 5.24078413 10.45853583 5.375 14.1875 C5.4059375 15.24259766 5.436875 16.29769531 5.46875 17.38476562 C5.50742188 18.40634766 5.54609375 19.42792969 5.5859375 20.48046875 C5.6173584 21.41785889 5.6487793 22.35524902 5.68115234 23.32104492 C6.02480064 26.20837476 6.70483684 28.40055282 8 31 C10.14598502 32.23634658 10.14598502 32.23634658 12.625 32.8125 C13.85089844 33.16248047 13.85089844 33.16248047 15.1015625 33.51953125 C16.04128906 33.75736328 16.04128906 33.75736328 17 34 C17 34.33 17 34.66 17 35 C13.0810762 35.30736657 10.66526025 35.36958903 7.1875 33.4375 C2.0480245 27.71065587 2.74591421 20.32605789 2.875 13.0625 C2.88402344 12.09248047 2.89304687 11.12246094 2.90234375 10.12304688 C2.92573893 7.74843593 2.95851824 5.37435224 3 3 C2.01 3 1.02 3 0 3 C0 2.01 0 1.02 0 0 Z " fill="#010A53" transform="translate(85,37)"/>
<path d="M0 0 C2.30142435 1.78174788 3.80034391 3.16304165 4.48828125 6.046875 C4.72323102 8.0246611 4.86751458 10.01271872 5 12 C0.05 12 -4.9 12 -10 12 C-8.46860184 17.06015034 -8.46860184 17.06015034 -4.5625 20.1875 C-1.12835559 19.93622114 -0.21717573 18.52299307 2 16 C2.66 16 3.32 16 4 16 C3.64715325 18.61106596 3.30406662 20.55190182 1.8125 22.75 C-0.83494263 24.5758225 -2.79237765 24.87421089 -6 25 C-9.97472063 23.47126129 -11.61853665 22.57219503 -14 19 C-12.02 19.66 -10.04 20.32 -8 21 C-8.49113281 20.46890625 -8.98226563 19.9378125 -9.48828125 19.390625 C-11.43009777 16.31984538 -11.30491694 14.35078604 -11.1875 10.75 C-11.16042969 9.67234375 -11.13335937 8.5946875 -11.10546875 7.484375 C-11.07066406 6.66453125 -11.03585937 5.8446875 -11 5 C-10.34 5.33 -9.68 5.66 -9 6 C-9.33 6.99 -9.66 7.98 -10 9 C-9.39671875 8.98839844 -8.7934375 8.97679688 -8.171875 8.96484375 C-6.97304688 8.95130859 -6.97304688 8.95130859 -5.75 8.9375 C-4.56664062 8.92009766 -4.56664062 8.92009766 -3.359375 8.90234375 C-1.09308998 8.99614694 0.8288895 9.36758937 3 10 C2.05066101 6.64566891 1.10251165 3.30753495 0 0 Z " fill="#051154" transform="translate(296,89)"/>
<path d="M0 0 C4.29 0 8.58 0 13 0 C13 0.99 13 1.98 13 3 C12.01 3.495 12.01 3.495 11 4 C10.67 13.24 10.34 22.48 10 32 C10.99 32.33 11.98 32.66 13 33 C13 33.66 13 34.32 13 35 C8.71 35 4.42 35 0 35 C0.33 34.01 0.66 33.02 1 32 C1.66 31.67 2.32 31.34 3 31 C3.46898963 28.1840151 3.46898963 28.1840151 3.625 24.9375 C3.69976562 23.83277344 3.77453125 22.72804688 3.8515625 21.58984375 C3.90054688 20.73519531 3.94953125 19.88054687 4 19 C4.33 19 4.66 19 5 19 C5 23.29 5 27.58 5 32 C5.99 32 6.98 32 8 32 C7.99476318 31.15703369 7.98952637 30.31406738 7.98413086 29.44555664 C7.96712174 26.32772064 7.95456594 23.20990823 7.94506836 20.09204102 C7.94002943 18.74079614 7.93319823 17.38955674 7.92456055 16.03833008 C7.91247581 14.09979566 7.90730172 12.161222 7.90234375 10.22265625 C7.89710693 9.05484619 7.89187012 7.88703613 7.88647461 6.68383789 C8 4 8 4 9 3 C6.03 3 3.06 3 0 3 C0 2.01 0 1.02 0 0 Z " fill="#040A59" transform="translate(104,78)"/>
<path d="M0 0 C2.64 0 5.28 0 8 0 C7.67 0.66 7.34 1.32 7 2 C6.90261219 4.08152667 6.86923159 6.16619734 6.8671875 8.25 C6.86589844 9.4978125 6.86460938 10.745625 6.86328125 12.03125 C6.86714844 13.3409375 6.87101562 14.650625 6.875 16 C6.87113281 17.3096875 6.86726563 18.619375 6.86328125 19.96875 C6.86521484 21.84046875 6.86521484 21.84046875 6.8671875 23.75 C6.86831543 24.89984375 6.86944336 26.0496875 6.87060547 27.234375 C6.81105432 29.95954475 6.81105432 29.95954475 8 32 C6.02 31.67 4.04 31.34 2 31 C2.01160156 30.15179688 2.02320312 29.30359375 2.03515625 28.4296875 C2.51869108 14.00972732 2.51869108 14.00972732 0 0 Z " fill="#042377" transform="translate(106,80)"/>
<path d="M0 0 C1.65 0 3.3 0 5 0 C8.13293435 5.14755093 8.37993835 9.05250622 8.1875 14.875 C8.17396484 15.65875 8.16042969 16.4425 8.14648438 17.25 C8.11141789 19.16696782 8.05762072 21.08357751 8 23 C5.03824877 22.38722388 3.61941217 21.74627478 1 20 C1.33 19.01 1.66 18.02 2 17 C2.12047541 14.66894093 2.17534303 12.33413858 2.1875 10 C2.20167969 8.7625 2.21585938 7.525 2.23046875 6.25 C2.25871019 2.85240575 2.25871019 2.85240575 0 0 Z " fill="#061868" transform="translate(151,89)"/>
<path d="M0 0 C0.66 0.33 1.32 0.66 2 1 C2.02886338 5.47915328 2.04675187 9.95828291 2.0625 14.4375 C2.07087891 15.71689453 2.07925781 16.99628906 2.08789062 18.31445312 C2.09272461 20.13686523 2.09272461 20.13686523 2.09765625 21.99609375 C2.10551147 23.68496704 2.10551147 23.68496704 2.11352539 25.40795898 C2 28 2 28 1 29 C2.65 29.33 4.3 29.66 6 30 C6 29.34 6 28.68 6 28 C6.99 28.33 7.98 28.66 9 29 C9 29.66 9 30.32 9 31 C6.22949974 31.1946838 3.45886998 31.38102792 0.6875 31.5625 C-0.09818359 31.61857422 -0.88386719 31.67464844 -1.69335938 31.73242188 C-2.8293457 31.80493164 -2.8293457 31.80493164 -3.98828125 31.87890625 C-4.68477783 31.9260376 -5.38127441 31.97316895 -6.09887695 32.02172852 C-8 32 -8 32 -11 31 C-11 30.34 -11 29.68 -11 29 C-11.928125 29.495 -12.85625 29.99 -13.8125 30.5 C-17 32 -17 32 -20 32 C-20 31.34 -20 30.68 -20 30 C-18.33720673 28.9935725 -16.67016516 27.99414593 -15 27 C-14.34 26.01 -13.68 25.02 -13 24 C-12.34 24.33 -11.68 24.66 -11 25 C-11.33 25.66 -11.66 26.32 -12 27 C-8.34149382 29.90353174 -8.34149382 29.90353174 0 28 C0 18.76 0 9.52 0 0 Z " fill="#011154" transform="translate(165,82)"/>
<path d="M0 0 C0 16.83 0 33.66 0 51 C-0.99 51.495 -0.99 51.495 -2 52 C-2 35.83 -2 19.66 -2 3 C-4.31 3.66 -6.62 4.32 -9 5 C-9 4.34 -9 3.68 -9 3 C-2.25 0 -2.25 0 0 0 Z " fill="#040D59" transform="translate(30,42)"/>
<path d="M0 0 C0.99 0 1.98 0 3 0 C3.05057791 7.65377999 3.08568184 15.30751713 3.10986328 22.96142578 C3.11994064 25.56691091 3.1336027 28.17238469 3.15087891 30.77783203 C3.17505102 34.51597899 3.1864656 38.25397685 3.1953125 41.9921875 C3.20563507 43.16304901 3.21595764 44.33391052 3.22659302 45.54025269 C3.22674408 46.62122223 3.22689514 47.70219177 3.22705078 48.81591797 C3.231492 49.77078094 3.23593323 50.72564392 3.24050903 51.70944214 C3 54 3 54 1 56 C0.67 37.52 0.34 19.04 0 0 Z " fill="#040B5C" transform="translate(37,38)"/>
<path d="M0 0 C0.99 0 1.98 0 3 0 C3.33 6.27 3.66 12.54 4 19 C5.32 19.33 6.64 19.66 8 20 C8.33 19.34 8.66 18.68 9 18 C9.99 18 10.98 18 12 18 C10.92598892 20.91517292 10.22189824 22.77810176 8 25 C4.875 25.125 4.875 25.125 2 25 C-0.42336231 20.21262303 -0.47091642 15.50313636 -0.6875 10.25 C-0.73455078 9.37472656 -0.78160156 8.49945313 -0.83007812 7.59765625 C-1.05521682 2.83652651 -1.05521682 2.83652651 -1 1 C-0.67 0.67 -0.34 0.34 0 0 Z " fill="#032473" transform="translate(159,47)"/>
<path d="M0 0 C1.65 0 3.3 0 5 0 C5.33 0.66 5.66 1.32 6 2 C5.34 2 4.68 2 4 2 C4.0721875 2.825 4.144375 3.65 4.21875 4.5 C4.95749647 13.6932894 5.10772973 22.78312343 5 32 C3.35 32 1.7 32 0 32 C0 21.44 0 10.88 0 0 Z " fill="#042277" transform="translate(90,80)"/>
<path d="M0 0 C1.65 0 3.3 0 5 0 C4.97381592 0.73114014 4.94763184 1.46228027 4.9206543 2.21557617 C4.81649856 5.53933082 4.75161379 8.86274194 4.6875 12.1875 C4.64560547 13.33798828 4.60371094 14.48847656 4.56054688 15.67382812 C4.34660361 22.38207165 4.34660361 22.38207165 7.33203125 28.17578125 C9.2134315 29.46218523 11.1036367 30.7357578 13 32 C6.375 31.25 6.375 31.25 3 29 C1.15224958 25.39498379 0.71487512 22.28027454 0.5859375 18.26171875 C0.54726562 17.19501953 0.50859375 16.12832031 0.46875 15.02929688 C0.4378125 13.92650391 0.406875 12.82371094 0.375 11.6875 C0.33632812 10.56537109 0.29765625 9.44324219 0.2578125 8.28710938 C0.16377989 5.52490148 0.07812659 2.762696 0 0 Z " fill="#062279" transform="translate(89,39)"/>
<path d="M0 0 C0.01458252 0.95366455 0.02916504 1.9073291 0.04418945 2.88989258 C0.10217792 6.42933585 0.17940958 9.96814324 0.26245117 13.50708008 C0.29569818 15.03855059 0.32373093 16.57014356 0.34643555 18.10180664 C0.37998718 20.30407887 0.4322991 22.50522912 0.48828125 24.70703125 C0.49467117 25.39150833 0.5010611 26.07598541 0.50764465 26.78120422 C0.5994084 29.75020838 0.66735787 31.5753313 2.53198242 33.95581055 C3.25865112 34.47268433 3.25865112 34.47268433 4 35 C3 36 3 36 1.15234375 36.09765625 C-0.8984375 36.06510417 -2.94921875 36.03255208 -5 36 C-4.67 35.01 -4.34 34.02 -4 33 C-3.01 33 -2.02 33 -1 33 C-1.13874615 29.22887069 -1.28721093 25.45818555 -1.4375 21.6875 C-1.47681641 20.61564453 -1.51613281 19.54378906 -1.55664062 18.43945312 C-1.59853516 17.41142578 -1.64042969 16.38339844 -1.68359375 15.32421875 C-1.72025146 14.37635498 -1.75690918 13.42849121 -1.79467773 12.4519043 C-1.91430187 9.863829 -1.91430187 9.863829 -3 7 C-3.33 8.98 -3.66 10.96 -4 13 C-4.33 13 -4.66 13 -5 13 C-5.33 10.36 -5.66 7.72 -6 5 C-6.99 4.67 -7.98 4.34 -9 4 C-9 3.01 -9 2.02 -9 1 C-1.125 0 -1.125 0 0 0 Z " fill="#071555" transform="translate(215,36)"/>
<path d="M0 0 C1.11511089 3.34533267 0.93410412 3.88053566 -0.3125 7 C-0.57675781 7.680625 -0.84101562 8.36125 -1.11328125 9.0625 C-2 11 -2 11 -4 14 C0.67025461 10.84442256 2.12344231 8.1358421 4 3 C5 6 5 6 3.9375 8.875 C1.3861066 12.99015064 -1.6089781 15.80448905 -6 18 C-12.06353588 18.56709328 -16.72107992 18.33405479 -22 15 C-19.35266651 14.15285328 -17.44971765 14.02038083 -14.625 14.125 C-10.5197845 13.98344084 -8.41525934 13.25096639 -5 11 C-2.43811165 7.61464754 -1.22239556 4.04330838 0 0 Z " fill="#051155" transform="translate(34,92)"/>
<path d="M0 0 C1.93897212 3.27924407 2.29325528 5.85533219 2.4140625 9.640625 C2.45273438 10.71054687 2.49140625 11.78046875 2.53125 12.8828125 C2.5621875 13.99398437 2.593125 15.10515625 2.625 16.25 C2.66367188 17.37664063 2.70234375 18.50328125 2.7421875 19.6640625 C2.83637336 22.44254548 2.92199586 25.22102334 3 28 C1.02 27.67 -0.96 27.34 -3 27 C-3 26.01 -3 25.02 -3 24 C-2.34 24 -1.68 24 -1 24 C-1.70583522 15.46348556 -1.70583522 15.46348556 -3 7 C-2.34 7 -1.68 7 -1 7 C-1.020625 6.030625 -1.04125 5.06125 -1.0625 4.0625 C-1 1 -1 1 0 0 Z " fill="#072174" transform="translate(212,42)"/>
<path d="M0 0 C1.175625 0.0825 2.35125 0.165 3.5625 0.25 C5.5625 3.25 5.5625 3.25 5.1875 5.9375 C4.98125 6.700625 4.775 7.46375 4.5625 8.25 C2.9125 7.92 1.2625 7.59 -0.4375 7.25 C-0.4375 5.93 -0.4375 4.61 -0.4375 3.25 C-2.95472049 4.79281256 -4.25587275 5.59614189 -5.0625 8.5 C-5.45707845 11.3935753 -5.5351696 14.1434231 -5.5 17.0625 C-5.49097656 18.03832031 -5.48195313 19.01414062 -5.47265625 20.01953125 C-5.46105469 20.75558594 -5.44945312 21.49164063 -5.4375 22.25 C-6.0975 22.25 -6.7575 22.25 -7.4375 22.25 C-7.75484272 14.53974732 -7.81538558 8.27600201 -4.4375 1.25 C-3.4375 0.25 -3.4375 0.25 0 0 Z " fill="#07165F" transform="translate(275.4375,87.75)"/>
<path d="M0 0 C0 10.23 0 20.46 0 31 C0.66 31 1.32 31 2 31 C2 31.66 2 32.32 2 33 C0.02 33 -1.96 33 -4 33 C-3.67 32.34 -3.34 31.68 -3 31 C-2.75546163 26.52556428 -2.81479644 22.04286276 -2.8125 17.5625 C-2.80025391 16.30888672 -2.78800781 15.05527344 -2.77539062 13.76367188 C-2.77345703 12.56419922 -2.77152344 11.36472656 -2.76953125 10.12890625 C-2.76542236 9.02619385 -2.76131348 7.92348145 -2.75708008 6.78735352 C-2.79350563 3.78934549 -2.79350563 3.78934549 -5 1 C-2 0 -2 0 0 0 Z " fill="#071F79" transform="translate(169,79)"/>
<path d="M0 0 C1.984375 1.421875 1.984375 1.421875 4 4 C4.50627389 7.09456173 4.37696402 10.12473175 4.25 13.25 C4.23195312 14.09046875 4.21390625 14.9309375 4.1953125 15.796875 C4.14830798 17.86507395 4.07656724 19.93268441 4 22 C5.32 22.33 6.64 22.66 8 23 C8 23.66 8 24.32 8 25 C3.71 25 -0.58 25 -5 25 C-5 24.34 -5 23.68 -5 23 C-4.01 22.34 -3.02 21.68 -2 21 C-1.77892213 18.2114711 -1.71892465 15.65346819 -1.8125 12.875 C-1.82603516 12.12089844 -1.83957031 11.36679688 -1.85351562 10.58984375 C-1.88890015 8.72625873 -1.94270833 6.86304022 -2 5 C-1.34 5 -0.68 5 0 5 C0 10.94 0 16.88 0 23 C0.99 23 1.98 23 3 23 C2.88569952 20.1033852 2.7589576 17.20821684 2.625 14.3125 C2.5940625 13.49587891 2.563125 12.67925781 2.53125 11.83789062 C2.32044076 7.49873367 1.98261241 3.95716543 0 0 Z " fill="#05144D" transform="translate(209,88)"/>
<path d="M0 0 C0.66 0 1.32 0 2 0 C2 3.96 2 7.92 2 12 C5.96 12 9.92 12 14 12 C14 12.99 14 13.98 14 15 C9.71 15 5.42 15 1 15 C1 18.96 1 22.92 1 27 C0.67 27 0.34 27 0 27 C0 18.09 0 9.18 0 0 Z " fill="#05115F" transform="translate(94,82)"/>
<path d="M0 0 C2.3125 -0.3125 2.3125 -0.3125 5 0 C8.76378566 4.40291908 8.3559558 8.83984625 8.1875 14.3125 C8.17396484 15.14845703 8.16042969 15.98441406 8.14648438 16.84570312 C8.11131217 18.89741498 8.05751048 20.94879275 8 23 C7.01 23 6.02 23 5 23 C5 17.06 5 11.12 5 5 C4.34 5 3.68 5 3 5 C1.375 3.625 1.375 3.625 0 2 C0 1.34 0 0.68 0 0 Z " fill="#062172" transform="translate(204,88)"/>
<path d="M0 0 C0.99 0.33 1.98 0.66 3 1 C3.33 7.27 3.66 13.54 4 20 C2.68 20 1.36 20 0 20 C-1.50938632 16.98122735 -1.14366437 13.86920415 -1.125 10.5625 C-1.12886719 9.88123047 -1.13273438 9.19996094 -1.13671875 8.49804688 C-1.1306374 5.39351954 -0.98890312 2.96670935 0 0 Z " fill="#032372" transform="translate(134,50)"/>
<path d="M0 0 C2.70540031 3.33666039 3.36475519 5.74452281 3 10 C1.68 10 0.36 10 -1 10 C-1.66 7.69 -2.32 5.38 -3 3 C-5.31 3.33 -7.62 3.66 -10 4 C-10 3.34 -10 2.68 -10 2 C-11.98 2.99 -11.98 2.99 -14 4 C-10.64 -0.68 -10.64 -0.68 -8.125 -1.9375 C-4.97190612 -2.03023806 -2.85313155 -1.33550839 0 0 Z " fill="#06115A" transform="translate(296,89)"/>
<path d="M0 0 C3 4.33333333 3 4.33333333 3 7 C2.34 7 1.68 7 1 7 C0.67 6.01 0.34 5.02 0 4 C-1.65 4 -3.3 4 -5 4 C-5.33 5.65 -5.66 7.3 -6 9 C-7.32 9 -8.64 9 -10 9 C-10.75 6.75 -10.75 6.75 -11 4 C-9.18288645 1.57718193 -7.758655 0.29886409 -4.9375 -0.8125 C-3 -1 -3 -1 0 0 Z " fill="#060E54" transform="translate(250,88)"/>
<path d="M0 0 C0.78375 0.825 1.5675 1.65 2.375 2.5 C4.63721264 5.22988506 4.63721264 5.22988506 7 5 C7.66 4.67 8.32 4.34 9 4 C9.99 4.04125 10.98 4.0825 12 4.125 C12.99 4.08375 13.98 4.0425 15 4 C15.66 3.01 16.32 2.02 17 1 C17.99 1 18.98 1 20 1 C17.81575898 7.21668598 17.81575898 7.21668598 15 9 C8.56146597 9.84439791 8.56146597 9.84439791 5.1796875 8.015625 C2.8082766 6.15973821 1.19700413 4.52065378 0.125 1.6875 C0.08375 1.130625 0.0425 0.57375 0 0 Z " fill="#07125B" transform="translate(171,63)"/>
<path d="M0 0 C1.32 0.33 2.64 0.66 4 1 C3.360625 1.474375 2.72125 1.94875 2.0625 2.4375 C-0.85860535 6.0667521 -1.1029579 9.4144135 -1 14 C-0.1950483 17.42825684 -0.1950483 17.42825684 1 20 C2.65 20.33 4.3 20.66 6 21 C6 21.66 6 22.32 6 23 C2.48954758 22.76065097 0.44708004 22.34119266 -2.375 20.1875 C-4.89097351 15.25232119 -4.77982338 10.42877043 -4 5 C-2 1.75 -2 1.75 0 0 Z " fill="#072075" transform="translate(199,48)"/>
<path d="M0 0 C0.66 0 1.32 0 2 0 C3.12602442 3.37807327 2.96376311 6.51929224 2.8984375 10.046875 C3.03209886 12.61728584 4.03965444 14.63114761 5 17 C4.68863844 19.67770941 4.20221634 21.59556732 3 24 C2.960008 25.99960012 2.95653201 28.00047242 3 30 C0.24560484 27.24560484 0.69010724 25.53396797 0.5859375 21.6796875 C0.54726562 20.42285156 0.50859375 19.16601562 0.46875 17.87109375 C0.4378125 16.55238281 0.406875 15.23367187 0.375 13.875 C0.33681971 12.53513082 0.29776794 11.19528617 0.2578125 9.85546875 C0.1632797 6.57045381 0.07772844 3.28544862 0 0 Z " fill="#092178" transform="translate(194,80)"/>
<path d="M0 0 C1.23556641 0.01740234 1.23556641 0.01740234 2.49609375 0.03515625 C3.32238281 0.04417969 4.14867187 0.05320312 5 0.0625 C5.63808594 0.07410156 6.27617187 0.08570312 6.93359375 0.09765625 C6.27359375 1.74765625 5.61359375 3.39765625 4.93359375 5.09765625 C4.27359375 5.09765625 3.61359375 5.09765625 2.93359375 5.09765625 C2.94519531 5.66613281 2.95679688 6.23460938 2.96875 6.8203125 C3.02582569 11.70436109 2.75316147 16.2826959 1.93359375 21.09765625 C1.60359375 21.09765625 1.27359375 21.09765625 0.93359375 21.09765625 C0.89621094 19.90527344 0.85882813 18.71289062 0.8203125 17.484375 C0.75465343 15.91793725 0.68820607 14.35153241 0.62109375 12.78515625 C0.59853516 11.99947266 0.57597656 11.21378906 0.55273438 10.40429688 C0.51728516 9.64697266 0.48183594 8.88964844 0.4453125 8.109375 C0.41912842 7.41287842 0.39294434 6.71638184 0.3659668 5.9987793 C-0.17864393 3.60415266 -1.22469787 2.66493078 -3.06640625 1.09765625 C-2.06640625 0.09765625 -2.06640625 0.09765625 0 0 Z " fill="#051A66" transform="translate(263.06640625,87.90234375)"/>
<path d="M0 0 C0.495 0.99 0.495 0.99 1 2 C-1.38076268 7.47220079 -4.71192946 11.18719652 -10 14 C-17.13481861 16.16956729 -23.47852389 15.46037508 -30 12 C-30.66 11.34 -31.32 10.68 -32 10 C-30.5199159 10.11362262 -29.04089926 10.24122908 -27.5625 10.375 C-26.73878906 10.44460937 -25.91507813 10.51421875 -25.06640625 10.5859375 C-24.04353516 10.79089844 -24.04353516 10.79089844 -23 11 C-22.67 11.66 -22.34 12.32 -22 13 C-16.30265156 13.34881725 -13.01713524 12.41208425 -8 10 C-7.01 9.67 -6.02 9.34 -5 9 C-3.93283296 7.20067421 -3.93283296 7.20067421 -3 5 C-2.01120795 3.32665961 -1.01351664 1.65848177 0 0 Z " fill="#070F4E" transform="translate(47,101)"/>
<path d="M0 0 C1.00511605 2.61330172 0.97541678 4.14442643 0.5 6.9375 C-1.56246764 11.14837143 -4.059497 12.51894256 -8 15 C-8.66 13.68 -9.32 12.36 -10 11 C-8.38405168 8.95880212 -6.7143618 6.95927063 -5 5 C-4.34 5 -3.68 5 -3 5 C-3 4.34 -3 3.68 -3 3 C-2.34 3 -1.68 3 -1 3 C-0.67 2.01 -0.34 1.02 0 0 Z " fill="#041D68" transform="translate(55,102)"/>
<path d="M0 0 C0.66 0.33 1.32 0.66 2 1 C1.67 1.66 1.34 2.32 1 3 C4.60178588 5.40119059 7.50866369 5.43771322 11.6875 5.625 C12.7403418 5.68300781 12.7403418 5.68300781 13.81445312 5.7421875 C15.54254655 5.8362334 17.27123675 5.9191968 19 6 C19 5.34 19 4.68 19 4 C19.99 4.33 20.98 4.66 22 5 C22 5.66 22 6.32 22 7 C19.22949974 7.1946838 16.45886998 7.38102792 13.6875 7.5625 C12.90181641 7.61857422 12.11613281 7.67464844 11.30664062 7.73242188 C10.1706543 7.80493164 10.1706543 7.80493164 9.01171875 7.87890625 C8.31522217 7.9260376 7.61872559 7.97316895 6.90112305 8.02172852 C5 8 5 8 2 7 C2 6.34 2 5.68 2 5 C1.071875 5.495 0.14375 5.99 -0.8125 6.5 C-4 8 -4 8 -7 8 C-7 7.34 -7 6.68 -7 6 C-5.33720673 4.9935725 -3.67016516 3.99414593 -2 3 C-1.34 2.01 -0.68 1.02 0 0 Z " fill="#080E4C" transform="translate(152,106)"/>
<path d="M0 0 C0.66 0 1.32 0 2 0 C2 6.27 2 12.54 2 19 C2.99 19.33 3.98 19.66 5 20 C5 19.34 5 18.68 5 18 C7.475 18.99 7.475 18.99 10 20 C9.67 20.66 9.34 21.32 9 22 C5.04 22 1.08 22 -3 22 C-3 21.01 -3 20.02 -3 19 C-2.01 18.67 -1.02 18.34 0 18 C0 12.06 0 6.12 0 0 Z " fill="#061051" transform="translate(118,50)"/>
<path d="M0 0 C0.66 0.33 1.32 0.66 2 1 C1.67 2.32 1.34 3.64 1 5 C1.90492187 4.96519531 1.90492187 4.96519531 2.828125 4.9296875 C4.02695313 4.90261719 4.02695313 4.90261719 5.25 4.875 C6.03890625 4.85179688 6.8278125 4.82859375 7.640625 4.8046875 C10.20731941 5.0171622 11.7916067 5.71345895 14 7 C13.67 5.02 13.34 3.04 13 1 C13.66 1 14.32 1 15 1 C15 3.31 15 5.62 15 8 C10.05 8 5.1 8 0 8 C-1 3 -1 3 0 0 Z " fill="#071156" transform="translate(123,93)"/>
<path d="M0 0 C0 0.99 0 1.98 0 3 C-1.2065625 3.4021875 -1.2065625 3.4021875 -2.4375 3.8125 C-3.283125 4.204375 -4.12875 4.59625 -5 5 C-5.33 5.99 -5.66 6.98 -6 8 C-7.91864771 7.74357696 -9.83490994 7.46926564 -11.75 7.1875 C-12.81734375 7.03667969 -13.8846875 6.88585937 -14.984375 6.73046875 C-18.05451094 5.98679593 -19.66080478 5.07234528 -22 3 C-20.49759766 3.05220703 -20.49759766 3.05220703 -18.96484375 3.10546875 C-9.10236805 3.42334181 -9.10236805 3.42334181 0 0 Z " fill="#070D4A" transform="translate(43,114)"/>
<path d="M0 0 C1.32 0 2.64 0 4 0 C4.33 7.26 4.66 14.52 5 22 C3.68 21.67 2.36 21.34 1 21 C1.33 14.73 1.66 8.46 2 2 C1.34 2 0.68 2 0 2 C0 1.34 0 0.68 0 0 Z " fill="#08207B" transform="translate(145,48)"/>
<path d="M0 0 C0.33 0 0.66 0 1 0 C1 4.29 1 8.58 1 13 C2.32 13.33 3.64 13.66 5 14 C5 14.66 5 15.32 5 16 C0.38 16 -4.24 16 -9 16 C-8.67 15.01 -8.34 14.02 -8 13 C-5.9375 12.3125 -5.9375 12.3125 -4 12 C-4.33 12.99 -4.66 13.98 -5 15 C-3.68 14.67 -2.36 14.34 -1 14 C-0.67 9.38 -0.34 4.76 0 0 Z " fill="#060F4A" transform="translate(95,97)"/>
<path d="M0 0 C1.65 0 3.3 0 5 0 C4.01 0.495 4.01 0.495 3 1 C3.33 1.66 3.66 2.32 4 3 C4.08559118 5.17824961 4.10713412 7.35915255 4.09765625 9.5390625 C4.09443359 10.84101562 4.09121094 12.14296875 4.08789062 13.484375 C4.07953466 14.86458399 4.07106971 16.24479232 4.0625 17.625 C4.05748501 19.01301926 4.0529221 20.40104022 4.04882812 21.7890625 C4.03700976 25.19275132 4.02053434 28.59635439 4 32 C3.34 31.67 2.68 31.34 2 31 C2 21.76 2 12.52 2 3 C1.01 3 0.02 3 -1 3 C-0.67 2.01 -0.34 1.02 0 0 Z " fill="#030B51" transform="translate(191,78)"/>
<path d="M0 0 C0.66 0 1.32 0 2 0 C0.67572816 6.38058252 0.67572816 6.38058252 -2.25 9.0625 C-5.8831138 10.30106152 -7.57472089 9.59846358 -11 8 C-13 6 -13 6 -13.125 3.375 C-13.08375 2.59125 -13.0425 1.8075 -13 1 C-12.34 1 -11.68 1 -11 1 C-10.34 2.98 -9.68 4.96 -9 7 C-8.4225 6.855625 -7.845 6.71125 -7.25 6.5625 C-5.16666667 6.04166667 -3.08333333 5.52083333 -1 5 C-0.67 3.35 -0.34 1.7 0 0 Z " fill="#050A51" transform="translate(251,104)"/>
<path d="M0 0 C3.96 0 7.92 0 12 0 C12 0.99 12 1.98 12 3 C10.68 3.33 9.36 3.66 8 4 C8 3.34 8 2.68 8 2 C7.01 2.33 6.02 2.66 5 3 C5.33 4.65 5.66 6.3 6 8 C5.34 8 4.68 8 4 8 C3.896875 7.360625 3.79375 6.72125 3.6875 6.0625 C3.460625 5.381875 3.23375 4.70125 3 4 C2.01 3.67 1.02 3.34 0 3 C0 2.01 0 1.02 0 0 Z " fill="#0A1150" transform="translate(104,37)"/>
<path d="M0 0 C2.64 0 5.28 0 8 0 C5.125 5.875 5.125 5.875 4 7 C3.63239269 9.32817964 3.29758419 11.6618385 3 14 C2.67 14 2.34 14 2 14 C1.93941406 13.24074219 1.87882812 12.48148438 1.81640625 11.69921875 C1.73261719 10.70535156 1.64882812 9.71148437 1.5625 8.6875 C1.48128906 7.70136719 1.40007812 6.71523437 1.31640625 5.69921875 C1.08187441 2.90624401 1.08187441 2.90624401 0 0 Z " fill="#051D6C" transform="translate(106,80)"/>
<path d="M0 0 C1.65 0.33 3.3 0.66 5 1 C5 2.65 5 4.3 5 6 C3.35 6.33 1.7 6.66 0 7 C-0.66 5.68 -1.32 4.36 -2 3 C-1.34 2.01 -0.68 1.02 0 0 Z " fill="#08165B" transform="translate(146,36)"/>
<path d="M0 0 C0 6.93 0 13.86 0 21 C-0.33 21 -0.66 21 -1 21 C-1.33 14.73 -1.66 8.46 -2 2 C-3.32 2 -4.64 2 -6 2 C-6 2.66 -6 3.32 -6 4 C-6.99 4 -7.98 4 -9 4 C-9 3.01 -9 2.02 -9 1 C-2.25 0 -2.25 0 0 0 Z " fill="#09124A" transform="translate(151,46)"/>
<path d="M0 0 C-0.99 0.33 -1.98 0.66 -3 1 C-3 1.66 -3 2.32 -3 3 C-3.8971875 3.061875 -3.8971875 3.061875 -4.8125 3.125 C-7.35100832 3.87739901 -7.35100832 3.87739901 -8.75 7.0625 C-9.1625 8.031875 -9.575 9.00125 -10 10 C-10.33 9.01 -10.66 8.02 -11 7 C-9.5625 4.3125 -9.5625 4.3125 -8 2 C-9.32 2.33 -10.64 2.66 -12 3 C-8.61326653 -2.08010021 -5.54065966 -0.94086673 0 0 Z " fill="#060B55" transform="translate(186,47)"/>
<path d="M0 0 C2.31 0 4.62 0 7 0 C7 0.66 7 1.32 7 2 C8.98 2 10.96 2 13 2 C13.33 1.34 13.66 0.68 14 0 C14.66 0.33 15.32 0.66 16 1 C16 1.66 16 2.32 16 3 C15.10796875 2.98839844 14.2159375 2.97679688 13.296875 2.96484375 C12.12640625 2.95582031 10.9559375 2.94679688 9.75 2.9375 C8.58984375 2.92589844 7.4296875 2.91429688 6.234375 2.90234375 C3.5660783 2.98290826 1.54559321 3.35203082 -1 4 C-3.25 3.0625 -3.25 3.0625 -5 2 C-4.34 1.67 -3.68 1.34 -3 1 C-2.01 1.33 -1.02 1.66 0 2 C0 1.34 0 0.68 0 0 Z " fill="#090D47" transform="translate(257,110)"/>
<path d="M0 0 C1.58294782 -0.05437607 3.16644256 -0.09296271 4.75 -0.125 C5.63171875 -0.14820313 6.5134375 -0.17140625 7.421875 -0.1953125 C10.1135858 0.00860498 11.69904974 0.63448279 14 2 C13 3 13 3 10.05859375 3.09765625 C8.26615234 3.08025391 8.26615234 3.08025391 6.4375 3.0625 C4.64119141 3.04896484 4.64119141 3.04896484 2.80859375 3.03515625 C1.88175781 3.02355469 0.95492187 3.01195312 0 3 C0 2.01 0 1.02 0 0 Z " fill="#02065E" transform="translate(176,57)"/>
<path d="M0 0 C0.33 0.66 0.66 1.32 1 2 C3.52733235 2.65555119 3.52733235 2.65555119 6 3 C6 3.99 6 4.98 6 6 C5.34 5.34 4.68 4.68 4 4 C2.35 4 0.7 4 -1 4 C-1.66 9.28 -2.32 14.56 -3 20 C-3.33 20 -3.66 20 -4 20 C-4.3853211 6.96330275 -4.3853211 6.96330275 -2 1 C-1.34 0.67 -0.68 0.34 0 0 Z " fill="#051251" transform="translate(127,47)"/>
<path d="M0 0 C0.99 0.33 1.98 0.66 3 1 C2.01508224 4.64419572 1.34173648 5.78914132 -1.9375 7.8125 C-5 9 -5 9 -8 9 C-8 8.34 -8 7.68 -8 7 C-6.68 6.67 -5.36 6.34 -4 6 C-4 5.34 -4 4.68 -4 4 C-2.70766393 2.62689293 -1.37562854 1.28965176 0 0 Z " fill="#070E52" transform="translate(135,105)"/>
<path d="M0 0 C0.33 0 0.66 0 1 0 C0.98839844 0.92683594 0.97679688 1.85367188 0.96484375 2.80859375 C0.95582031 4.00613281 0.94679688 5.20367187 0.9375 6.4375 C0.92589844 7.63246094 0.91429688 8.82742187 0.90234375 10.05859375 C0.66098208 12.88873341 0.66098208 12.88873341 2 14 C4.32817964 14.36760731 6.6618385 14.70241581 9 15 C9 15.33 9 15.66 9 16 C4.71 16 0.42 16 -4 16 C-3.67 15.01 -3.34 14.02 -3 13 C-2.34 12.67 -1.68 12.34 -1 12 C-0.53101037 9.1840151 -0.53101037 9.1840151 -0.375 5.9375 C-0.30023438 4.83277344 -0.22546875 3.72804688 -0.1484375 2.58984375 C-0.09945312 1.73519531 -0.05046875 0.88054687 0 0 Z " fill="#081452" transform="translate(108,97)"/>
<path d="M0 0 C0.66 0.33 1.32 0.66 2 1 C1.375 3.375 1.375 3.375 0 6 C-2.8125 7.5 -2.8125 7.5 -6 8 C-8.875 6.625 -8.875 6.625 -11 5 C-10.34 4.34 -9.68 3.68 -9 3 C-8.67 3.66 -8.34 4.32 -8 5 C-7.01 5 -6.02 5 -5 5 C-4.67 4.34 -4.34 3.68 -4 3 C-2.69084721 1.96854629 -1.35917857 0.96457834 0 0 Z " fill="#060D4F" transform="translate(189,106)"/>
<path d="M0 0 C2.5 1.375 2.5 1.375 5 4 C5.44908891 7.37080851 5.29036649 10.61884349 5 14 C4.01 14.495 4.01 14.495 3 15 C1.9375 13.25 1.9375 13.25 1 11 C1.165 10.401875 1.33 9.80375 1.5 9.1875 C2.26578964 5.83717032 1.04630124 3.20045085 0 0 Z " fill="#082276" transform="translate(250,88)"/>
<path d="M0 0 C0.99 0 1.98 0 3 0 C3 2.31 3 4.62 3 7 C2.34 6.01 1.68 5.02 1 4 C-1.25885324 7.25397508 -1.25885324 7.25397508 -2 11 C-3.65 10.67 -5.3 10.34 -7 10 C-7 9.34 -7 8.68 -7 8 C-6.401875 7.79375 -5.80375 7.5875 -5.1875 7.375 C-2.18981233 5.49073918 -1.38638224 3.18867916 0 0 Z " fill="#0A1350" transform="translate(180,81)"/>
<path d="M0 0 C0.66 0 1.32 0 2 0 C3 3 3 3 1.890625 5.2265625 C1.07851563 6.41378906 1.07851563 6.41378906 0.25 7.625 C-0.54664063 8.81996094 -0.54664063 8.81996094 -1.359375 10.0390625 C-3 12 -3 12 -6 13 C-6 10 -6 10 -5 7 C-4.34 6.71125 -3.68 6.4225 -3 6.125 C-0.70849401 5.1446618 -0.70849401 5.1446618 -0.25 2.375 C-0.1675 1.59125 -0.085 0.8075 0 0 Z " fill="#052178" transform="translate(45,98)"/>
<path d="M0 0 C3 4 3 4 3 6 C2.34 6 1.68 6 1 6 C1.061875 7.175625 1.061875 7.175625 1.125 8.375 C1 11 1 11 -1 13 C-1.99 12.67 -2.98 12.34 -4 12 C-2.68 8.04 -1.36 4.08 0 0 Z " fill="#041B5C" transform="translate(44,92)"/>
<path d="M0 0 C2.68099266 3.50591348 3.49516338 6.65840504 4 11 C1.2160817 9.60804085 1.02101003 7.84424221 0 5 C-1.32 5 -2.64 5 -4 5 C-4.33 4.34 -4.66 3.68 -5 3 C-6.32 3.33 -7.64 3.66 -9 4 C-6.19632015 0.92930303 -4.26207314 0 0 0 Z " fill="#021151" transform="translate(130,87)"/>
<path d="M0 0 C0.99 0 1.98 0 3 0 C1.92598892 2.91517292 1.22189824 4.77810176 -1 7 C-4.125 7.125 -4.125 7.125 -7 7 C-7 6.34 -7 5.68 -7 5 C-6.01 5 -5.02 5 -4 5 C-4.66 4.01 -5.32 3.02 -6 2 C-4.35 2 -2.7 2 -1 2 C-0.67 1.34 -0.34 0.68 0 0 Z " fill="#061359" transform="translate(168,65)"/>
<path d="M0 0 C0.625 1.875 0.625 1.875 1 4 C0.34 4.66 -0.32 5.32 -1 6 C-1.99757977 9.63269616 -2.10770918 13.06013786 -2.0625 16.8125 C-2.05347656 17.78832031 -2.04445313 18.76414062 -2.03515625 19.76953125 C-2.02355469 20.50558594 -2.01195312 21.24164063 -2 22 C-2.66 22 -3.32 22 -4 22 C-4.31734272 14.28974732 -4.37788558 8.02600201 -1 1 C-0.67 0.67 -0.34 0.34 0 0 Z " fill="#04094D" transform="translate(272,88)"/>
<path d="M0 0 C0.99 0.33 1.98 0.66 3 1 C3 2.98 3 4.96 3 7 C2.34 6.67 1.68 6.34 1 6 C0.67 9.96 0.34 13.92 0 18 C-0.33 18 -0.66 18 -1 18 C-1.02698422 15.56242587 -1.04683099 13.12515085 -1.0625 10.6875 C-1.07087891 9.99720703 -1.07925781 9.30691406 -1.08789062 8.59570312 C-1.10307906 5.4516975 -1.00193327 3.00579981 0 0 Z " fill="#0D2569" transform="translate(134,50)"/>
<path d="M0 0 C0.99 0.33 1.98 0.66 3 1 C1.52307692 5.67692308 1.52307692 5.67692308 -1.125 7.3125 C-2.053125 7.6528125 -2.053125 7.6528125 -3 8 C-3.75 6.25 -3.75 6.25 -4 4 C-2.0625 1.75 -2.0625 1.75 0 0 Z " fill="#070C51" transform="translate(234,105)"/>
<path d="M0 0 C0.90492187 0.02320312 1.80984375 0.04640625 2.7421875 0.0703125 C4.10730469 0.09738281 4.10730469 0.09738281 5.5 0.125 C6.19867188 0.14820312 6.89734375 0.17140625 7.6171875 0.1953125 C7.9471875 1.1853125 8.2771875 2.1753125 8.6171875 3.1953125 C6.6796875 3.7578125 6.6796875 3.7578125 4.6171875 4.1953125 C4.2871875 3.8653125 3.9571875 3.5353125 3.6171875 3.1953125 C2.26971666 2.96456168 0.91341185 2.78378187 -0.4453125 2.6328125 C-1.7446875 2.4884375 -3.0440625 2.3440625 -4.3828125 2.1953125 C-2.3828125 0.1953125 -2.3828125 0.1953125 0 0 Z " fill="#030E55" transform="translate(91.3828125,77.8046875)"/>
<path d="M0 0 C0.99 0.33 1.98 0.66 3 1 C2.525625 1.350625 2.05125 1.70125 1.5625 2.0625 C-0.67873825 4.84163543 -0.67117658 7.5144717 -1 11 C-1.99 11 -2.98 11 -4 11 C-4.49230769 4.6 -4.49230769 4.6 -2 1.5625 C-1.34 1.046875 -0.68 0.53125 0 0 Z " fill="#071E76" transform="translate(177,48)"/>
<path d="M0 0 C0.66 0.33 1.32 0.66 2 1 C1.67 3.31 1.34 5.62 1 8 C2.32 8.33 3.64 8.66 5 9 C3.1875 9.6875 3.1875 9.6875 1 10 C-0.75 8.875 -0.75 8.875 -2 7 C-2.3125 4.4375 -2.3125 4.4375 -2 2 C-1.34 1.34 -0.68 0.68 0 0 Z " fill="#071E74" transform="translate(143,103)"/>
<path d="M0 0 C0.66 0 1.32 0 2 0 C2.33 1.65 2.66 3.3 3 5 C1.02 5.99 1.02 5.99 -1 7 C-1.625 4.625 -1.625 4.625 -2 2 C-1.34 1.34 -0.68 0.68 0 0 Z " fill="#06145F" transform="translate(242,91)"/>
<path d="M0 0 C1.98 0 3.96 0 6 0 C5.67 1.32 5.34 2.64 5 4 C3.02 4 1.04 4 -1 4 C-0.67 2.68 -0.34 1.36 0 0 Z " fill="#06105B" transform="translate(184,88)"/>
<path d="M0 0 C0.99 0 1.98 0 3 0 C3.268125 0.969375 3.53625 1.93875 3.8125 2.9375 C4.204375 3.948125 4.59625 4.95875 5 6 C5.99 6.33 6.98 6.66 8 7 C8 7.33 8 7.66 8 8 C5.625 8.125 5.625 8.125 3 8 C0.4345406 5.4345406 0.45953913 3.52313332 0 0 Z " fill="#082172" transform="translate(239,104)"/>
<path d="M0 0 C1.32 0.66 2.64 1.32 4 2 C-0.75 6.875 -0.75 6.875 -3 8 C-2.45276317 4.62537285 -1.9451 2.91765 0 0 Z " fill="#052279" transform="translate(50,109)"/>
<path d="M0 0 C0.99 0 1.98 0 3 0 C1.83857315 4.35535069 0.92300495 6.64619703 -3 9 C-3.66 8.67 -4.32 8.34 -5 8 C-4.0409375 7.690625 -4.0409375 7.690625 -3.0625 7.375 C-0.65074923 6.10461791 -0.65074923 6.10461791 -0.25 2.875 C-0.1675 1.92625 -0.085 0.9775 0 0 Z " fill="#041759" transform="translate(26,95)"/>
<path d="M0 0 C0.66 0 1.32 0 2 0 C2 0.66 2 1.32 2 2 C2.99 2.33 3.98 2.66 5 3 C4.1028125 3.0928125 4.1028125 3.0928125 3.1875 3.1875 C0.12856542 4.3236757 -0.55041099 6.17330142 -2 9 C-2.66 8.67 -3.32 8.34 -4 8 C-1.125 1.125 -1.125 1.125 0 0 Z " fill="#060D54" transform="translate(202,88)"/>
<path d="M0 0 C4.29 0 8.58 0 13 0 C13 0.99 13 1.98 13 3 C12.01 3 11.02 3 10 3 C10 2.34 10 1.68 10 1 C6.53058454 1.45822468 3.32604951 1.89131683 0 3 C0 2.01 0 1.02 0 0 Z " fill="#0D1445" transform="translate(85,37)"/>
<path d="M0 0 C0.66 0 1.32 0 2 0 C2.33 2.31 2.66 4.62 3 7 C1.68 7 0.36 7 -1 7 C-0.67 4.69 -0.34 2.38 0 0 Z " fill="#062074" transform="translate(296,92)"/>
<path d="M0 0 C2.31 0 4.62 0 7 0 C7 0.99 7 1.98 7 3 C4.69 3 2.38 3 0 3 C0 2.01 0 1.02 0 0 Z " fill="#111755" transform="translate(163,47)"/>
<path d="M0 0 C0.99 0.33 1.98 0.66 3 1 C3 1.66 3 2.32 3 3 C-0.96 3 -4.92 3 -9 3 C-9 2.34 -9 1.68 -9 1 C-6.03 1.33 -3.06 1.66 0 2 C0 1.34 0 0.68 0 0 Z " fill="#0C134A" transform="translate(199,110)"/>
<path d="M0 0 C2.92879371 0.62759865 5.36095629 1.58622659 8 3 C7.67 3.66 7.34 4.32 7 5 C4.03 4.505 4.03 4.505 1 4 C0.67 2.68 0.34 1.36 0 0 Z " fill="#0A1866" transform="translate(223,108)"/>
<path d="M0 0 C1.32 0 2.64 0 4 0 C4.33 1.65 4.66 3.3 5 5 C3.68 4.67 2.36 4.34 1 4 C0.67 2.68 0.34 1.36 0 0 Z " fill="#071B6C" transform="translate(183,48)"/>
<path d="M0 0 C3.3 0.33 6.6 0.66 10 1 C9.34 1.66 8.68 2.32 8 3 C4.4375 2.75 4.4375 2.75 1 2 C0.67 1.34 0.34 0.68 0 0 Z " fill="#0E104E" transform="translate(12,106)"/>
<path d="M0 0 C0.33 0.99 0.66 1.98 1 3 C0.01 3.495 0.01 3.495 -1 4 C-1.99 3.67 -2.98 3.34 -4 3 C-4.66 4.65 -5.32 6.3 -6 8 C-7 6 -7 6 -6.375 4 C-4.60734929 1.42887169 -2.92410941 0.92340297 0 0 Z " fill="#071561" transform="translate(125,89)"/>
<path d="M0 0 C2.97 0 5.94 0 9 0 C8.34 1.32 7.68 2.64 7 4 C7 3.01 7 2.02 7 1 C4.69 1.66 2.38 2.32 0 3 C0 2.01 0 1.02 0 0 Z " fill="#060D4B" transform="translate(261,88)"/>
<path d="M0 0 C0.66 0 1.32 0 2 0 C3.0625 1.875 3.0625 1.875 4 4 C3.67 4.66 3.34 5.32 3 6 C1.68 5.67 0.36 5.34 -1 5 C-0.67 3.35 -0.34 1.7 0 0 Z " fill="#082077" transform="translate(120,64)"/>
<path d="M0 0 C3 1 6 2 9 3 C9 3.33 9 3.66 9 4 C6.1875 4.625 6.1875 4.625 3 5 C2.01 4.34 1.02 3.68 0 3 C0 2.01 0 1.02 0 0 Z " fill="#091E72" transform="translate(123,108)"/>
<path d="M0 0 C1.65 0 3.3 0 5 0 C4.67 1.32 4.34 2.64 4 4 C4.99 4.33 5.98 4.66 7 5 C6.01 5.495 6.01 5.495 5 6 C3.31237149 4.3545622 1.6459651 2.68711423 0 1 C0 0.67 0 0.34 0 0 Z " fill="#031560" transform="translate(119,107)"/>
<path d="M0 0 C1.32 0.33 2.64 0.66 4 1 C4 2.65 4 4.3 4 6 C2.68 5.34 1.36 4.68 0 4 C0 2.68 0 1.36 0 0 Z " fill="#061E64" transform="translate(153,102)"/>
<path d="M0 0 C4.67692308 1.47692308 4.67692308 1.47692308 6.3125 4.125 C6.539375 4.74375 6.76625 5.3625 7 6 C5.1875 5.8125 5.1875 5.8125 3 5 C1.25 2.4375 1.25 2.4375 0 0 Z " fill="#062377" transform="translate(173,64)"/>
<path d="" fill="#002A2A" transform="translate(0,0)"/>
</svg>
