<svg width="32" height="32" viewBox="0 0 32 32" fill="none" xmlns="http://www.w3.org/2000/svg">
<rect width="32" height="32" rx="12" fill="#FF4880"/>
<path d="M22.1211 15.5C22.1211 15.5318 22.1211 15.5625 22.1211 15.595C22.0998 16.4862 21.7692 17.5 20.3711 17.5C18.9248 17.5 18.6211 16.4125 18.6211 15.5V13C18.6212 12.9314 18.6073 12.8636 18.5801 12.8007C18.553 12.7377 18.5131 12.6811 18.4631 12.6342C18.4131 12.5873 18.354 12.5512 18.2895 12.5281C18.225 12.505 18.1564 12.4954 18.088 12.5C17.9592 12.511 17.8394 12.5705 17.7527 12.6665C17.6661 12.7624 17.619 12.8876 17.6211 13.0168V13.2668C17.1697 12.8623 16.6064 12.604 16.0053 12.5259C15.4042 12.4478 14.7936 12.5536 14.2538 12.8294C13.7141 13.1052 13.2705 13.538 12.9816 14.0709C12.6927 14.6037 12.5719 15.2116 12.6353 15.8144C12.6986 16.4172 12.9431 16.9867 13.3364 17.4478C13.7298 17.909 14.2536 18.2402 14.8389 18.3977C15.4242 18.5553 16.0435 18.5319 16.6152 18.3306C17.187 18.1293 17.6843 17.7595 18.0417 17.27C18.1042 17.3793 18.1748 17.4837 18.253 17.5825C18.5886 18 19.228 18.5 20.3711 18.5C20.5642 18.5006 20.7569 18.4849 20.9473 18.4531C20.9944 18.4452 21.0428 18.451 21.0867 18.4698C21.1305 18.4885 21.1682 18.5194 21.195 18.5589C21.2219 18.5983 21.2369 18.6446 21.2384 18.6923C21.2398 18.74 21.2275 18.7871 21.203 18.8281C20.6153 19.8138 19.7773 20.6265 18.774 21.1836C17.7707 21.7407 16.6378 22.0223 15.4905 22C12.0667 21.9312 9.25859 19.1787 9.12609 15.7568C9.0922 14.8933 9.23087 14.0316 9.53397 13.2223C9.83708 12.4129 10.2985 11.6722 10.8914 11.0433C11.4842 10.4144 12.1965 9.91011 12.9865 9.55982C13.7766 9.20952 14.6286 9.0203 15.4926 9.00322C16.3567 8.98614 17.2155 9.14155 18.0188 9.46034C18.8221 9.77914 19.5537 10.2549 20.1709 10.8599C20.7881 11.4648 21.2785 12.1868 21.6134 12.9835C21.9482 13.7802 22.1208 14.6357 22.1211 15.5ZM13.6211 15.5C13.6211 15.8955 13.7384 16.2822 13.9582 16.6111C14.1779 16.94 14.4903 17.1964 14.8557 17.3477C15.2212 17.4991 15.6233 17.5387 16.0113 17.4615C16.3992 17.3844 16.7556 17.1939 17.0353 16.9142C17.315 16.6345 17.5055 16.2781 17.5827 15.8902C17.6598 15.5022 17.6202 15.1001 17.4689 14.7346C17.3175 14.3692 17.0611 14.0568 16.7322 13.837C16.4033 13.6173 16.0167 13.5 15.6211 13.5C15.0907 13.5 14.582 13.7107 14.2069 14.0858C13.8318 14.4608 13.6211 14.9695 13.6211 15.5Z" fill="white"/>
</svg>
