<svg width="32" height="32" viewBox="0 0 32 32" fill="none" xmlns="http://www.w3.org/2000/svg">
<rect width="32" height="32" rx="13" fill="#FF4880"/>
<path d="M16.5 9.16016C14.9507 9.16181 13.4653 9.7418 12.3698 10.7729C11.2743 11.804 10.658 13.202 10.6562 14.6602C10.6562 19.3664 15.9688 22.9208 16.1952 23.0695C16.2845 23.1284 16.3909 23.16 16.5 23.16C16.6091 23.16 16.7155 23.1284 16.8048 23.0695C17.0312 22.9208 22.3438 19.3664 22.3438 14.6602C22.342 13.202 21.7257 11.804 20.6302 10.7729C19.5347 9.7418 18.0493 9.16181 16.5 9.16016ZM16.5 12.6602C16.9203 12.6602 17.3311 12.7775 17.6806 12.9972C18.03 13.217 18.3024 13.5293 18.4632 13.8948C18.6241 14.2602 18.6662 14.6624 18.5842 15.0503C18.5022 15.4383 18.2998 15.7947 18.0026 16.0744C17.7054 16.3541 17.3268 16.5446 16.9146 16.6217C16.5024 16.6989 16.0751 16.6593 15.6868 16.5079C15.2985 16.3565 14.9666 16.1002 14.7331 15.7713C14.4996 15.4424 14.375 15.0557 14.375 14.6602C14.375 14.1297 14.5989 13.621 14.9974 13.2459C15.3959 12.8709 15.9364 12.6602 16.5 12.6602Z" fill="white"/>
</svg>
