<svg width="32" height="34" viewBox="0 0 32 34" fill="none" xmlns="http://www.w3.org/2000/svg">
<rect width="32" height="32" rx="12" fill="#FF4880"/>
<path d="M16.75 7.5C18.1042 7.52083 19.3229 7.85417 20.4062 8.5C21.4896 9.14583 22.3542 10.0104 23 11.0938C23.6458 12.1771 23.9792 13.3958 24 14.75C23.9583 15.2083 23.7083 15.4583 23.25 15.5C22.7917 15.4583 22.5417 15.2083 22.5 14.75C22.4583 13.125 21.8958 11.7708 20.8125 10.6875C19.7292 9.60417 18.375 9.04167 16.75 9C16.2917 8.95833 16.0417 8.70833 16 8.25C16.0417 7.79167 16.2917 7.54167 16.75 7.5ZM17 13.5C17.2917 13.5 17.5312 13.5938 17.7188 13.7812C17.9062 13.9688 18 14.2083 18 14.5C18 14.7917 17.9062 15.0312 17.7188 15.2188C17.5312 15.4062 17.2917 15.5 17 15.5C16.7083 15.5 16.4688 15.4062 16.2812 15.2188C16.0938 15.0312 16 14.7917 16 14.5C16 14.2083 16.0938 13.9688 16.2812 13.7812C16.4688 13.5938 16.7083 13.5 17 13.5ZM16 11.25C16.0417 10.7917 16.2917 10.5417 16.75 10.5C17.9583 10.5208 18.9583 10.9375 19.75 11.75C20.5625 12.5417 20.9792 13.5417 21 14.75C20.9583 15.2083 20.7083 15.4583 20.25 15.5C19.7917 15.4583 19.5417 15.2083 19.5 14.75C19.4792 13.9792 19.2083 13.3333 18.6875 12.8125C18.1667 12.2917 17.5208 12.0208 16.75 12C16.2917 11.9583 16.0417 11.7083 16 11.25ZM11.6875 7.53125C11.9792 7.46875 12.2708 7.5 12.5625 7.625C12.8333 7.75 13.0312 7.96875 13.1562 8.28125L14.4062 11.2812C14.5938 11.8438 14.4688 12.3229 14.0312 12.7188L12.5 13.9688C13.0208 15.0729 13.7083 16.0625 14.5625 16.9375C15.4375 17.7917 16.4271 18.4792 17.5312 19L18.7812 17.4688C19.1771 17.0312 19.6562 16.9062 20.2188 17.0938L23.2188 18.3438C23.5104 18.4688 23.7292 18.6667 23.875 18.9375C24 19.2292 24.0312 19.5312 23.9688 19.8438L23.2188 22.5938C23.0104 23.1562 22.6042 23.4583 22 23.5C19.3958 23.4792 17.0417 22.8438 14.9375 21.5938C12.8333 20.3438 11.1562 18.6667 9.90625 16.5625C8.65625 14.4583 8.02083 12.1042 8 9.5C8.04167 8.89583 8.35417 8.48958 8.9375 8.28125L11.6875 7.53125Z" fill="white"/>
</svg>
